<?xml version="1.0" encoding="utf-8"?>
<!-- Generator: Adobe Illustrator 23.1.0, SVG Export Plug-In . SVG Version: 6.00 Build 0)  -->
<svg version="1.1" xmlns="http://www.w3.org/2000/svg" xmlns:xlink="http://www.w3.org/1999/xlink" x="0px" y="0px"
	 viewBox="0 0 1920 1080" style="enable-background:new 0 0 1920 1080;" xml:space="preserve">
<style type="text/css">
	.st0{opacity:0.9;fill:#F3F3F3;}
	.st1{opacity:0.5;fill:url(#SVGID_1_);enable-background:new    ;}
	.st2{opacity:0.5;}
	.st3{fill:url(#SVGID_2_);}
	.st4{fill:url(#SVGID_3_);}
	.st5{fill:url(#SVGID_4_);}
	.st6{opacity:0.5;fill:url(#SVGID_5_);enable-background:new    ;}
	.st7{fill:none;stroke:#00A2A0;stroke-width:6;stroke-miterlimit:10;}
	.st8{opacity:0.6;fill:none;stroke:#2CF2ED;stroke-width:6;stroke-miterlimit:10;enable-background:new    ;}
	.st9{opacity:0.6;fill:none;stroke:#2BF1EC;stroke-width:6;stroke-miterlimit:10;enable-background:new    ;}
	.st10{opacity:0.6;fill:none;stroke:#2BF0EB;stroke-width:6;stroke-miterlimit:10;enable-background:new    ;}
	.st11{opacity:0.6;fill:none;stroke:#2AEFEA;stroke-width:6;stroke-miterlimit:10;enable-background:new    ;}
	.st12{opacity:0.6;fill:none;stroke:#2AEEE9;stroke-width:6;stroke-miterlimit:10;enable-background:new    ;}
	.st13{opacity:0.6;fill:none;stroke:#29EDE8;stroke-width:6;stroke-miterlimit:10;enable-background:new    ;}
	.st14{opacity:0.6;fill:none;stroke:#29ECE7;stroke-width:6;stroke-miterlimit:10;enable-background:new    ;}
	.st15{opacity:0.6;fill:none;stroke:#28EBE6;stroke-width:6;stroke-miterlimit:10;enable-background:new    ;}
	.st16{opacity:0.6;fill:none;stroke:#28EAE5;stroke-width:6;stroke-miterlimit:10;enable-background:new    ;}
	.st17{opacity:0.6;fill:none;stroke:#27E9E4;stroke-width:6;stroke-miterlimit:10;enable-background:new    ;}
	.st18{opacity:0.6;fill:none;stroke:#27E8E3;stroke-width:6;stroke-miterlimit:10;enable-background:new    ;}
	.st19{opacity:0.6;fill:none;stroke:#26E7E3;stroke-width:6;stroke-miterlimit:10;enable-background:new    ;}
	.st20{opacity:0.6;fill:none;stroke:#25E6E2;stroke-width:6;stroke-miterlimit:10;enable-background:new    ;}
	.st21{opacity:0.6;fill:none;stroke:#25E5E1;stroke-width:6;stroke-miterlimit:10;enable-background:new    ;}
	.st22{opacity:0.6;fill:none;stroke:#24E4E0;stroke-width:6;stroke-miterlimit:10;enable-background:new    ;}
	.st23{opacity:0.6;fill:none;stroke:#24E3DF;stroke-width:6;stroke-miterlimit:10;enable-background:new    ;}
	.st24{opacity:0.6;fill:none;stroke:#23E2DE;stroke-width:6;stroke-miterlimit:10;enable-background:new    ;}
	.st25{opacity:0.6;fill:none;stroke:#23E1DD;stroke-width:6;stroke-miterlimit:10;enable-background:new    ;}
	.st26{opacity:0.6;fill:none;stroke:#22E0DC;stroke-width:6;stroke-miterlimit:10;enable-background:new    ;}
	.st27{opacity:0.6;fill:none;stroke:#22DFDB;stroke-width:6;stroke-miterlimit:10;enable-background:new    ;}
	.st28{opacity:0.6;fill:none;stroke:#21DEDA;stroke-width:6;stroke-miterlimit:10;enable-background:new    ;}
	.st29{opacity:0.6;fill:none;stroke:#21DDD9;stroke-width:6;stroke-miterlimit:10;enable-background:new    ;}
	.st30{opacity:0.6;fill:none;stroke:#20DCD8;stroke-width:6;stroke-miterlimit:10;enable-background:new    ;}
	.st31{opacity:0.6;fill:none;stroke:#20DBD7;stroke-width:6;stroke-miterlimit:10;enable-background:new    ;}
	.st32{opacity:0.6;fill:none;stroke:#1FDAD6;stroke-width:6;stroke-miterlimit:10;enable-background:new    ;}
	.st33{opacity:0.6;fill:none;stroke:#1ED9D5;stroke-width:6;stroke-miterlimit:10;enable-background:new    ;}
	.st34{opacity:0.6;fill:none;stroke:#1ED8D4;stroke-width:6;stroke-miterlimit:10;enable-background:new    ;}
	.st35{opacity:0.6;fill:none;stroke:#1DD7D3;stroke-width:6;stroke-miterlimit:10;enable-background:new    ;}
	.st36{opacity:0.6;fill:none;stroke:#1DD6D2;stroke-width:6;stroke-miterlimit:10;enable-background:new    ;}
	.st37{opacity:0.6;fill:none;stroke:#1CD5D1;stroke-width:6;stroke-miterlimit:10;enable-background:new    ;}
	.st38{opacity:0.6;fill:none;stroke:#1CD4D0;stroke-width:6;stroke-miterlimit:10;enable-background:new    ;}
	.st39{opacity:0.6;fill:none;stroke:#1BD3D0;stroke-width:6;stroke-miterlimit:10;enable-background:new    ;}
	.st40{opacity:0.6;fill:none;stroke:#1BD2CF;stroke-width:6;stroke-miterlimit:10;enable-background:new    ;}
	.st41{opacity:0.6;fill:none;stroke:#1AD1CE;stroke-width:6;stroke-miterlimit:10;enable-background:new    ;}
	.st42{opacity:0.6;fill:none;stroke:#1AD0CD;stroke-width:6;stroke-miterlimit:10;enable-background:new    ;}
	.st43{opacity:0.6;fill:none;stroke:#19CFCC;stroke-width:6;stroke-miterlimit:10;enable-background:new    ;}
	.st44{opacity:0.6;fill:none;stroke:#18CECB;stroke-width:6;stroke-miterlimit:10;enable-background:new    ;}
	.st45{opacity:0.6;fill:none;stroke:#18CDCA;stroke-width:6;stroke-miterlimit:10;enable-background:new    ;}
	.st46{opacity:0.6;fill:none;stroke:#17CCC9;stroke-width:6;stroke-miterlimit:10;enable-background:new    ;}
	.st47{opacity:0.6;fill:none;stroke:#17CBC8;stroke-width:6;stroke-miterlimit:10;enable-background:new    ;}
	.st48{opacity:0.6;fill:none;stroke:#16CAC7;stroke-width:6;stroke-miterlimit:10;enable-background:new    ;}
	.st49{opacity:0.6;fill:none;stroke:#16CAC6;stroke-width:6;stroke-miterlimit:10;enable-background:new    ;}
	.st50{opacity:0.6;fill:none;stroke:#15C9C5;stroke-width:6;stroke-miterlimit:10;enable-background:new    ;}
	.st51{opacity:0.6;fill:none;stroke:#15C8C4;stroke-width:6;stroke-miterlimit:10;enable-background:new    ;}
	.st52{opacity:0.6;fill:none;stroke:#14C7C3;stroke-width:6;stroke-miterlimit:10;enable-background:new    ;}
	.st53{opacity:0.6;fill:none;stroke:#14C6C2;stroke-width:6;stroke-miterlimit:10;enable-background:new    ;}
	.st54{opacity:0.6;fill:none;stroke:#13C5C1;stroke-width:6;stroke-miterlimit:10;enable-background:new    ;}
	.st55{opacity:0.6;fill:none;stroke:#12C4C0;stroke-width:6;stroke-miterlimit:10;enable-background:new    ;}
	.st56{opacity:0.6;fill:none;stroke:#12C3BF;stroke-width:6;stroke-miterlimit:10;enable-background:new    ;}
	.st57{opacity:0.6;fill:none;stroke:#11C2BE;stroke-width:6;stroke-miterlimit:10;enable-background:new    ;}
	.st58{opacity:0.6;fill:none;stroke:#11C1BD;stroke-width:6;stroke-miterlimit:10;enable-background:new    ;}
	.st59{opacity:0.6;fill:none;stroke:#10C0BD;stroke-width:6;stroke-miterlimit:10;enable-background:new    ;}
	.st60{opacity:0.6;fill:none;stroke:#10BFBC;stroke-width:6;stroke-miterlimit:10;enable-background:new    ;}
	.st61{opacity:0.6;fill:none;stroke:#0FBEBB;stroke-width:6;stroke-miterlimit:10;enable-background:new    ;}
	.st62{opacity:0.6;fill:none;stroke:#0FBDBA;stroke-width:6;stroke-miterlimit:10;enable-background:new    ;}
	.st63{opacity:0.6;fill:none;stroke:#0EBCB9;stroke-width:6;stroke-miterlimit:10;enable-background:new    ;}
	.st64{opacity:0.6;fill:none;stroke:#0EBBB8;stroke-width:6;stroke-miterlimit:10;enable-background:new    ;}
	.st65{opacity:0.6;fill:none;stroke:#0DBAB7;stroke-width:6;stroke-miterlimit:10;enable-background:new    ;}
	.st66{opacity:0.6;fill:none;stroke:#0CB9B6;stroke-width:6;stroke-miterlimit:10;enable-background:new    ;}
	.st67{opacity:0.6;fill:none;stroke:#0CB8B5;stroke-width:6;stroke-miterlimit:10;enable-background:new    ;}
	.st68{opacity:0.6;fill:none;stroke:#0BB7B4;stroke-width:6;stroke-miterlimit:10;enable-background:new    ;}
	.st69{opacity:0.6;fill:none;stroke:#0BB6B3;stroke-width:6;stroke-miterlimit:10;enable-background:new    ;}
	.st70{opacity:0.6;fill:none;stroke:#0AB5B2;stroke-width:6;stroke-miterlimit:10;enable-background:new    ;}
	.st71{opacity:0.6;fill:none;stroke:#0AB4B1;stroke-width:6;stroke-miterlimit:10;enable-background:new    ;}
	.st72{opacity:0.6;fill:none;stroke:#09B3B0;stroke-width:6;stroke-miterlimit:10;enable-background:new    ;}
	.st73{opacity:0.6;fill:none;stroke:#09B2AF;stroke-width:6;stroke-miterlimit:10;enable-background:new    ;}
	.st74{opacity:0.6;fill:none;stroke:#08B1AE;stroke-width:6;stroke-miterlimit:10;enable-background:new    ;}
	.st75{opacity:0.6;fill:none;stroke:#08B0AD;stroke-width:6;stroke-miterlimit:10;enable-background:new    ;}
	.st76{opacity:0.6;fill:none;stroke:#07AFAC;stroke-width:6;stroke-miterlimit:10;enable-background:new    ;}
	.st77{opacity:0.6;fill:none;stroke:#07AEAB;stroke-width:6;stroke-miterlimit:10;enable-background:new    ;}
	.st78{opacity:0.6;fill:none;stroke:#06ADAA;stroke-width:6;stroke-miterlimit:10;enable-background:new    ;}
	.st79{opacity:0.6;fill:none;stroke:#05ACAA;stroke-width:6;stroke-miterlimit:10;enable-background:new    ;}
	.st80{opacity:0.6;fill:none;stroke:#05ABA9;stroke-width:6;stroke-miterlimit:10;enable-background:new    ;}
	.st81{opacity:0.6;fill:none;stroke:#04AAA8;stroke-width:6;stroke-miterlimit:10;enable-background:new    ;}
	.st82{opacity:0.6;fill:none;stroke:#04A9A7;stroke-width:6;stroke-miterlimit:10;enable-background:new    ;}
	.st83{opacity:0.6;fill:none;stroke:#03A8A6;stroke-width:6;stroke-miterlimit:10;enable-background:new    ;}
	.st84{opacity:0.6;fill:none;stroke:#03A7A5;stroke-width:6;stroke-miterlimit:10;enable-background:new    ;}
	.st85{opacity:0.6;fill:none;stroke:#02A6A4;stroke-width:6;stroke-miterlimit:10;enable-background:new    ;}
	.st86{opacity:0.6;fill:none;stroke:#02A5A3;stroke-width:6;stroke-miterlimit:10;enable-background:new    ;}
	.st87{opacity:0.6;fill:none;stroke:#01A4A2;stroke-width:6;stroke-miterlimit:10;enable-background:new    ;}
	.st88{opacity:0.6;fill:none;stroke:#01A3A1;stroke-width:6;stroke-miterlimit:10;enable-background:new    ;}
	.st89{opacity:0.6;fill:none;stroke:#00A2A0;stroke-width:6;stroke-miterlimit:10;enable-background:new    ;}
	.st90{fill:url(#SVGID_6_);}
	.st91{fill:url(#SVGID_7_);}
	.st92{fill:url(#SVGID_8_);}
	.st93{fill:none;stroke:#84DBEF;stroke-width:6;stroke-miterlimit:10;}
	.st94{fill:#DDE3E9;}
	.st95{fill:#47A067;}
	.st96{fill:#69A1AC;}
	.st97{fill:#89C5CC;}
	.st98{fill:#E3E3FF;}
	.st99{fill:#F2F2FF;}
	.st100{fill:#FFFFFF;}
	.st101{fill:#C5CFD6;}
	.st102{fill:#AFB9C5;}
	.st103{fill:#DDE3FB;}
	.st104{fill:#F2F2F2;}
	.st105{fill:#C5CFF0;}
	.st106{fill:#A57949;}
	.st107{fill:#F4BA73;}
	.st108{fill:#65B1EF;}
	.st109{fill:#F4D5BD;stroke:#F9F68A;stroke-miterlimit:10;}
	.st110{fill:#73B4F4;}
	.st111{fill:#EADC75;}
	.st112{fill:#94D6F7;}
	.st113{fill:#057710;}
	.st114{fill:#16C437;}
	.st115{fill:#6F9E7E;}
	.st116{fill:#74A56F;}
	.st117{fill:#B28B67;}
	.st118{fill:#191847;}
	.st119{fill:#45454C;}
	.st120{fill:#1F28CF;}
	.st121{fill:#2B44FF;}
	.st122{fill:#DB2721;}
	.st123{fill:#FF4133;}
</style>
<g id="Layer_2">
	<rect x="-0.3" y="2.9" class="st0" width="1920.5" height="1080.5"/>
</g>
<g id="Layer_1">
	<g>
		
			<linearGradient id="SVGID_1_" gradientUnits="userSpaceOnUse" x1="-0.5" y1="622.67" x2="1919.38" y2="622.67" gradientTransform="matrix(1 0 0 -1 0 1080)">
			<stop  offset="0" style="stop-color:#FFFFFF"/>
			<stop  offset="0.1264" style="stop-color:#EBFBFA"/>
			<stop  offset="0.3844" style="stop-color:#B9F2EB"/>
			<stop  offset="0.748" style="stop-color:#67E2D5"/>
			<stop  offset="0.8689" style="stop-color:#4BDDCD"/>
		</linearGradient>
		<path class="st1" d="M-0.5,897.2c284-92.5,570-193.9,1064.9-45.2s854.9-12.1,854.9-12.1V-0.5H-0.5V897.2z"/>
	</g>
	<g id="Layer_3">
		<g class="st2">
			
				<linearGradient id="SVGID_2_" gradientUnits="userSpaceOnUse" x1="46.997" y1="189.684" x2="1296.9189" y2="189.684" gradientTransform="matrix(1 0 0 -1 0 1080)">
				<stop  offset="0" style="stop-color:#FFFFFF"/>
				<stop  offset="0.1264" style="stop-color:#EBFBFA"/>
				<stop  offset="0.3844" style="stop-color:#B9F2EB"/>
				<stop  offset="0.748" style="stop-color:#67E2D5"/>
				<stop  offset="0.8689" style="stop-color:#4BDDCD"/>
			</linearGradient>
			<path class="st3" d="M47,956.2c0,0,366-284.2,1249.9-17.6"/>
			
				<linearGradient id="SVGID_3_" gradientUnits="userSpaceOnUse" x1="80.1049" y1="172.3681" x2="1231.923" y2="172.3681" gradientTransform="matrix(1 0 0 -1 0 1080)">
				<stop  offset="0" style="stop-color:#FFFFFF"/>
				<stop  offset="0.1264" style="stop-color:#EBFBFA"/>
				<stop  offset="0.3844" style="stop-color:#B9F2EB"/>
				<stop  offset="0.748" style="stop-color:#67E2D5"/>
				<stop  offset="0.8689" style="stop-color:#4BDDCD"/>
			</linearGradient>
			<path class="st4" d="M80.1,964.1c0,0,323.9-242.6,1151.8-16.8"/>
			
				<linearGradient id="SVGID_4_" gradientUnits="userSpaceOnUse" x1="113.2029" y1="155.055" x2="1166.927" y2="155.055" gradientTransform="matrix(1 0 0 -1 0 1080)">
				<stop  offset="0" style="stop-color:#FFFFFF"/>
				<stop  offset="0.1264" style="stop-color:#EBFBFA"/>
				<stop  offset="0.3844" style="stop-color:#B9F2EB"/>
				<stop  offset="0.748" style="stop-color:#67E2D5"/>
				<stop  offset="0.8689" style="stop-color:#4BDDCD"/>
			</linearGradient>
			<path class="st5" d="M113.2,972c0,0,281.8-200.9,1053.7-15.9"/>
		</g>
		
			<linearGradient id="SVGID_5_" gradientUnits="userSpaceOnUse" x1="-6.248119e-05" y1="225.628" x2="1368.9144" y2="225.628" gradientTransform="matrix(1 0 0 -1 0 1080)">
			<stop  offset="0" style="stop-color:#FFFFFF"/>
			<stop  offset="0.1264" style="stop-color:#EBFBFA"/>
			<stop  offset="0.3844" style="stop-color:#B9F2EB"/>
			<stop  offset="0.748" style="stop-color:#67E2D5"/>
			<stop  offset="0.8689" style="stop-color:#4BDDCD"/>
		</linearGradient>
		<path class="st6" d="M1368.9,935.2c0,0-849.9-350.3-1368.9-19.8"/>
		<path class="st7" d="M-0.6,840.1"/>
		<g>
			<path class="st8" d="M1919.3,1024.1c0,0-386-172.9-848.9-37.5c-385.1,112.7-870.6,8.2-1023-30.2c-16.6-4.2-32.8-10.2-48.3-17.9
				l0,0"/>
			<path class="st9" d="M1919.3,1021.4L1919.3,1021.4c-0.4-0.6-270.1-116.4-620.7-80c-72.8,7.7-149.4,21.7-228.3,44.6
				C706,1091.4,252.1,1003.7,75,961.5c-10.1-2.4-19.4-4.7-27.7-6.8c-16.6-4.2-32.8-10.2-48.4-17.9l0,0"/>
			<path class="st10" d="M1919.3,1018.6L1919.3,1018.6c-0.8-1.2-274.5-113.8-620.6-77.8c-72.8,7.8-149.4,21.8-228.3,44.4
				C705.9,1089.6,252,1001.9,75,959.7c-10.1-2.4-19.4-4.7-27.7-6.8c-16.6-4.2-32.8-10.2-48.3-18l0,0"/>
			<path class="st11" d="M1919.3,1015.9L1919.3,1015.9c-1.2-1.8-278.9-111.9-620.6-75.7c-72.7,7.7-149.4,21.9-228.3,44.2
				C705.9,1087.8,252,1000.1,75,958c-10.1-2.4-19.4-4.7-27.7-6.8c-16.6-4.2-32.8-10.3-48.3-18l0,0"/>
			<path class="st12" d="M1919.3,1013.2L1919.3,1013.2c-1.6-2.4-283.3-109.6-620.6-73.5c-72.7,7.8-149.4,21.9-228.3,44
				C705.8,1086.1,252,998.3,75,956.2c-10.1-2.4-19.4-4.7-27.7-6.8c-16.6-4.2-32.8-10.3-48.3-18l0,0"/>
			<path class="st13" d="M1919.3,1010.5L1919.3,1010.5c-2-3-287.7-107.2-620.6-71.3c-72.7,7.8-149.3,22-228.4,43.9
				C705.7,1084.2,251.9,996.5,75,954.4c-10.1-2.4-19.3-4.7-27.7-6.8c-16.6-4.2-32.8-10.3-48.3-18l0,0"/>
			<path class="st14" d="M1919.3,1007.8L1919.3,1007.8c-2.4-3.6-292-104.8-620.6-69.1c-72.7,7.9-149.3,22-228.4,43.7
				C705.7,1082.5,251.9,994.7,75,952.7c-10.1-2.4-19.3-4.7-27.7-6.8c-16.6-4.3-32.8-10.3-48.3-18.1l0,0"/>
			<path class="st15" d="M1919.3,1005L1919.3,1005c-2.8-4.2-296.4-102.4-620.5-66.9c-72.6,7.9-149.3,22.1-228.4,43.5
				c-364.7,99-818.4,11.2-995.3-30.7c-10.1-2.4-19.3-4.7-27.7-6.8C30.7,939.8,14.6,933.8-1,926l0,0"/>
			<path class="st16" d="M1919.3,1002.3L1919.3,1002.3c-3.3-4.8-300.8-99.9-620.5-64.7c-72.6,8-149.3,22.1-228.4,43.3
				c-364.8,97.9-818.5,10.1-995.3-31.7c-10.1-2.4-19.3-4.7-27.7-6.8C30.7,938.1,14.6,932-1,924.3l0,0"/>
			<path class="st17" d="M1919.3,999.6L1919.3,999.6c-3.7-5.4-305.2-97.5-620.5-62.5c-72.6,8.1-149.3,22.2-228.5,43.2
				c-364.8,96.9-818.5,9.1-995.3-32.8c-10.1-2.4-19.3-4.7-27.7-6.9c-16.6-4.3-32.8-10.4-48.3-18.1l0,0"/>
			<path class="st18" d="M1919.3,996.9L1919.3,996.9c-4.1-6-309.6-95.1-620.5-60.4c-72.5,8.1-149.3,22.2-228.5,43
				c-364.9,95.8-818.5,8-995.3-33.8c-10-2.4-19.3-4.7-27.7-6.9c-16.6-4.3-32.7-10.4-48.3-18.1l0,0"/>
			<path class="st19" d="M1919.3,994.2L1919.3,994.2c-4.5-6.6-313.9-92.7-620.5-58.2c-72.5,8.2-149.2,22.3-228.5,42.8
				c-365,94.7-818.6,6.9-995.3-34.9c-10-2.4-19.3-4.7-27.6-6.9c-16.6-4.3-32.7-10.4-48.3-18.2l0,0"/>
			<path class="st20" d="M1919.3,991.4L1919.3,991.4c-4.9-7.2-318.3-90.2-620.4-56c-72.5,8.2-149.2,22.3-228.5,42.6
				c-365,93.6-818.6,5.8-995.3-35.9c-10-2.4-19.3-4.7-27.6-6.9c-16.6-4.3-32.7-10.4-48.3-18.2l0,0"/>
			<path class="st21" d="M1919.3,988.7L1919.3,988.7c-5.3-7.8-322.7-87.8-620.4-53.8c-72.5,8.3-149.2,22.4-228.5,42.4
				c-365.1,92.5-818.6,4.7-995.3-37c-10-2.4-19.3-4.7-27.6-6.9c-16.6-4.4-32.7-10.5-48.3-18.2l0,0"/>
			<path class="st22" d="M1919.3,986L1919.3,986c-5.7-8.4-327.1-85.3-620.4-51.6c-72.4,8.3-149.2,22.4-228.6,42.3
				c-365.2,91.5-818.6,3.6-995.3-38c-10-2.4-19.2-4.7-27.6-6.9c-16.6-4.4-32.7-10.5-48.2-18.2l0,0"/>
			<path class="st23" d="M1919.3,983.3L1919.3,983.3c-6.1-9-331.4-82.9-620.4-49.4c-72.4,8.4-149.2,22.5-228.6,42.1
				c-365.2,90.4-818.7,2.5-995.4-39c-10-2.4-19.2-4.7-27.6-6.9c-16.6-4.4-32.7-10.5-48.2-18.3l0,0"/>
			<path class="st24" d="M1919.3,980.6L1919.3,980.6c-6.5-9.6-335.8-80.4-620.3-47.3c-72.4,8.4-149.2,22.6-228.6,41.9
				C705,1064.5,251.6,976.6,75,935.1c-10-2.3-19.2-4.7-27.6-6.9c-16.6-4.4-32.7-10.5-48.2-18.3l0,0"/>
			<path class="st25" d="M1919.3,977.8L1919.3,977.8c-6.9-10.2-340.2-77.9-620.3-45.1c-72.3,8.5-149.1,22.6-228.6,41.7
				c-365.4,88.2-818.7,0.3-995.4-41.1c-10-2.3-19.2-4.7-27.6-6.9c-16.6-4.4-32.7-10.5-48.2-18.3l0,0"/>
			<path class="st26" d="M1919.3,975.1L1919.3,975.1c-7.3-10.8-344.6-75.4-620.3-42.9c-72.3,8.5-149.1,22.7-228.6,41.5
				c-365.4,87.2-818.8-0.8-995.4-42.2c-10-2.3-19.2-4.7-27.6-6.9c-16.6-4.4-32.7-10.6-48.2-18.3l0,0"/>
			<path class="st27" d="M1919.3,972.4L1919.3,972.4c-7.7-11.4-349-73-620.3-40.7c-72.3,8.6-149.1,22.7-228.7,41.4
				c-365.5,86.1-818.8-1.9-995.4-43.2c-9.9-2.3-19.2-4.7-27.6-6.9c-16.6-4.4-32.7-10.6-48.2-18.3l0,0"/>
			<path class="st28" d="M1919.3,969.7L1919.3,969.7c-8.1-12-353.3-70.5-620.3-38.5c-72.3,8.6-149.1,22.8-228.7,41.2
				c-365.6,85-818.8-2.9-995.4-44.3c-9.9-2.3-19.2-4.6-27.6-6.9c-16.5-4.4-32.7-10.6-48.2-18.4l0,0"/>
			<path class="st29" d="M1919.3,967L1919.3,967c-8.6-12.6-357.7-68-620.2-36.3c-72.2,8.7-149.1,22.8-228.7,41
				c-365.6,83.9-818.9-4-995.4-45.3c-9.9-2.3-19.2-4.6-27.6-6.9c-16.5-4.5-32.7-10.6-48.2-18.4l0,0"/>
			<path class="st30" d="M1919.3,964.2L1919.3,964.2c-9-13.2-362.1-65.5-620.2-34.1c-72.2,8.8-149.1,22.9-228.7,40.8
				c-365.7,82.8-818.9-5.1-995.4-46.4c-9.9-2.3-19.1-4.6-27.6-7c-16.5-4.5-32.7-10.6-48.2-18.4l0,0"/>
			<path class="st31" d="M1919.3,961.5L1919.3,961.5c-9.4-13.8-366.5-62.9-620.2-32c-72.2,8.8-149,22.9-228.7,40.7
				C704.6,1052,251.4,964,74.9,922.8c-9.9-2.3-19.1-4.6-27.6-7c-16.5-4.5-32.7-10.7-48.2-18.4l0,0"/>
			<path class="st32" d="M1919.3,958.8L1919.3,958.8c-9.8-14.4-370.8-60.4-620.2-29.8c-72.2,8.9-149,23-228.8,40.5
				c-365.8,80.7-819-7.3-995.4-48.4c-9.9-2.3-19.1-4.6-27.6-7c-16.5-4.5-32.7-10.7-48.2-18.5l0,0"/>
			<path class="st33" d="M1919.3,956.1L1919.3,956.1c-10.2-15-375.2-57.9-620.2-27.6c-72.1,8.9-149,23-228.8,40.3
				c-365.9,79.6-819-8.4-995.4-49.5c-9.9-2.3-19.1-4.6-27.6-7c-16.5-4.5-32.7-10.7-48.2-18.5l0,0"/>
			<path class="st34" d="M1919.3,953.4L1919.3,953.4c-10.6-15.6-379.6-55.4-620.1-25.4c-72.1,9-149,23.1-228.8,40.1
				c-365.9,78.5-819-9.5-995.4-50.5c-9.9-2.3-19.1-4.6-27.6-7c-16.5-4.5-32.6-10.7-48.2-18.5l0,0"/>
			<path class="st35" d="M1919.3,950.6L1919.3,950.6c-11-16.2-383.9-52.8-620.1-23.2c-72.1,9-149,23.2-228.8,39.9
				c-366,77.4-819-10.6-995.4-51.6c-9.9-2.3-19.1-4.6-27.6-7c-16.5-4.5-32.6-10.7-48.2-18.5l0,0"/>
			<path class="st36" d="M1919.3,947.9L1919.3,947.9c-11.4-16.8-388.3-50.3-620.1-21c-72.1,9.1-148.9,23.2-228.9,39.8
				C704.2,1043,251.2,955,74.9,914c-9.8-2.3-19.1-4.6-27.6-7c-16.5-4.5-32.6-10.8-48.1-18.5l0,0"/>
			<path class="st37" d="M1919.3,945.2L1919.3,945.2c-11.8-17.3-392.7-47.7-620.1-18.9c-72,9.1-148.9,23.3-228.9,39.6
				c-366.1,75.3-819.1-12.8-995.4-53.7c-9.8-2.3-19.1-4.6-27.6-7c-16.5-4.5-32.6-10.8-48.1-18.6l0,0"/>
			<path class="st38" d="M1919.3,942.5L1919.3,942.5c-12.2-18-397.1-45.2-620.1-16.7c-72,9.2-148.9,23.3-228.9,39.4
				c-366.2,74.2-819.1-13.8-995.4-54.7c-9.8-2.3-19-4.6-27.6-7c-16.5-4.6-32.6-10.8-48.1-18.6l0,0"/>
			<path class="st39" d="M1919.3,939.8L1919.3,939.8c-12.6-18.5-401.4-42.6-620-14.5c-72,9.3-148.9,23.4-228.9,39.2
				c-366.3,73.1-819.2-14.9-995.4-55.7c-9.8-2.3-19-4.6-27.6-7c-16.5-4.6-32.6-10.8-48.1-18.6l0,0"/>
			<path class="st40" d="M1919.3,937.1L1919.3,937.1c-13-19.1-405.8-40-620-12.3c-71.9,9.3-148.9,23.4-228.9,39
				c-366.3,72-819.2-16-995.4-56.8c-9.8-2.3-19-4.6-27.6-7c-16.5-4.6-32.6-10.8-48.1-18.6l0,0"/>
			<path class="st41" d="M1919.3,934.3L1919.3,934.3c-13.4-19.8-410.2-37.4-620-10.1c-71.9,9.4-148.9,23.5-229,38.9
				C703.9,1034,251.1,946,74.9,905.3c-9.8-2.3-19-4.6-27.6-7c-16.5-4.6-32.6-10.8-48.1-18.6l0,0"/>
			<path class="st42" d="M1919.3,931.6L1919.3,931.6c-13.8-20.3-414.5-34.8-620-7.9c-71.9,9.4-148.8,23.5-229,38.7
				c-366.5,69.9-819.3-18.2-995.4-58.9c-9.8-2.3-19-4.6-27.6-7c-16.5-4.6-32.6-10.9-48.1-18.7l0,0"/>
			<path class="st43" d="M1919.3,928.9L1919.3,928.9c-14.3-20.9-418.9-32.2-619.9-5.7c-71.9,9.5-148.8,23.6-229,38.5
				c-366.5,68.8-819.3-19.3-995.4-59.9c-9.8-2.3-19-4.6-27.6-7c-16.5-4.6-32.6-10.9-48.1-18.7l0,0"/>
			<path class="st44" d="M1919.3,926.2L1919.3,926.2c-14.7-21.5-423.3-29.6-619.9-3.6c-71.8,9.5-148.8,23.6-229,38.3
				c-366.6,67.7-819.3-20.4-995.4-61c-9.8-2.3-19-4.6-27.6-7.1c-16.5-4.6-32.6-10.9-48.1-18.7l0,0"/>
			<path class="st45" d="M1919.3,923.4L1919.3,923.4c-15.1-22.1-427.6-27-619.9-1.4c-71.8,9.6-148.8,23.7-229,38.2
				c-366.7,66.6-819.3-21.5-995.5-62c-9.7-2.2-19-4.6-27.6-7.1c-16.5-4.7-32.6-10.9-48.1-18.7l0,0"/>
			<path class="st46" d="M1919.3,920.7L1919.3,920.7c-15.5-22.7-432-24.4-619.9,0.8c-71.8,9.6-148.8,23.7-229.1,38
				c-366.7,65.5-819.4-22.6-995.5-63.1c-9.7-2.2-19-4.6-27.6-7.1c-16.5-4.7-32.6-10.9-48.1-18.8l0,0"/>
			<path class="st47" d="M1919.3,918L1919.3,918c-15.9-23.3-436.4-21.8-619.9,3c-71.8,9.7-148.8,23.8-229.1,37.8
				c-366.8,64.5-819.4-23.7-995.5-64.1c-9.7-2.2-18.9-4.6-27.6-7.1c-16.5-4.7-32.6-11-48.1-18.8l0,0"/>
			<path class="st48" d="M1919.3,915.3L1919.3,915.3c-16.3-23.9-440.7-19.1-619.8,5.2c-71.7,9.7-148.7,23.9-229.1,37.6
				c-366.9,63.4-819.4-24.8-995.5-65.1c-9.7-2.2-18.9-4.6-27.6-7.1c-16.5-4.7-32.6-11-48.1-18.8l0,0"/>
			<path class="st49" d="M1919.3,912.6L1919.3,912.6c-16.7-24.5-445.1-16.5-619.8,7.4c-71.7,9.8-148.7,23.9-229.1,37.4
				c-366.9,62.3-819.5-25.8-995.5-66.2c-9.7-2.2-18.9-4.6-27.6-7.1c-16.5-4.7-32.6-11-48-18.8l0,0"/>
			<path class="st50" d="M1919.3,909.9L1919.3,909.9c-17.1-25.1-449.5-13.9-619.8,9.5c-71.7,9.8-148.7,24-229.2,37.3
				c-367,61.2-819.5-26.9-995.5-67.2c-9.7-2.2-18.9-4.6-27.6-7.1c-16.5-4.7-32.5-11-48-18.9l0,0"/>
			<path class="st51" d="M1919.3,907.1L1919.3,907.1c-17.5-25.7-453.8-11.2-619.8,11.7c-71.7,9.9-148.7,24-229.2,37.1
				c-367.1,60.1-819.5-28-995.5-68.3c-9.7-2.2-18.9-4.6-27.6-7.1c-16.5-4.7-32.5-11-48-18.9l0,0"/>
			<path class="st52" d="M1919.3,904.4L1919.3,904.4c-17.9-26.3-458.2-8.5-619.8,13.9c-71.6,10-148.7,24.1-229.2,36.9
				c-367.1,59.1-819.6-29.1-995.5-69.3c-9.7-2.2-18.9-4.6-27.6-7.1c-16.5-4.7-32.5-11.1-48-18.9l0,0"/>
			<path class="st53" d="M1919.3,901.7L1919.3,901.7c-18.3-26.9-462.5-5.9-619.7,16.1c-71.6,10-148.6,24.1-229.2,36.7
				c-367.2,58-819.6-30.2-995.5-70.4c-9.7-2.2-18.9-4.6-27.6-7.1c-16.5-4.8-32.5-11.1-48-18.9l0,0"/>
			<path class="st54" d="M1919.3,899L1919.3,899c-18.7-27.5-466.9-3.2-619.7,18.3c-71.6,10.1-148.6,24.2-229.2,36.5
				c-367.3,56.9-819.6-31.3-995.5-71.4c-9.7-2.2-18.9-4.6-27.6-7.1c-16.5-4.8-32.5-11.1-48-18.9l0,0"/>
			<path class="st55" d="M1919.3,896.3L1919.3,896.3c-19.1-28.1-471.3-0.5-619.7,20.5c-71.6,10.1-148.6,24.2-229.3,36.4
				c-367.3,55.8-819.7-32.4-995.5-72.4c-9.6-2.2-18.8-4.6-27.6-7.1c-16.5-4.8-32.5-11.1-48-19l0,0"/>
			<path class="st56" d="M1919.3,893.5L1919.3,893.5c-19.6-28.7-475.6,2.1-619.7,22.6c-71.5,10.2-148.6,24.3-229.3,36.2
				c-367.4,54.7-819.7-33.5-995.5-73.5c-9.6-2.2-18.8-4.6-27.6-7.1c-16.4-4.8-32.5-11.1-48-19l0,0"/>
			<path class="st57" d="M1919.3,890.8L1919.3,890.8c-20-29.3-480,4.8-619.6,24.8c-71.5,10.2-148.6,24.3-229.3,36
				c-367.5,53.7-819.7-34.6-995.5-74.5c-9.6-2.2-18.8-4.6-27.6-7.2c-16.4-4.8-32.5-11.2-48-19l0,0"/>
			<path class="st58" d="M1919.3,888.1L1919.3,888.1c-20.4-29.9-484.3,7.5-619.6,27c-71.5,10.3-148.6,24.4-229.3,35.8
				c-367.5,52.6-819.7-35.7-995.5-75.6c-9.6-2.2-18.8-4.6-27.6-7.2c-16.4-4.8-32.5-11.2-48-19l0,0"/>
			<path class="st59" d="M1919.3,885.4L1919.3,885.4c-20.8-30.5-488.7,10.3-619.6,29.2c-71.5,10.3-148.5,24.5-229.3,35.7
				c-367.6,51.5-819.8-36.7-995.5-76.6c-9.6-2.2-18.8-4.6-27.6-7.2c-16.4-4.8-32.5-11.2-48-19.1l0,0"/>
			<path class="st60" d="M1919.3,882.6L1919.3,882.6c-21.2-31.1-493,13-619.6,31.4c-71.4,10.4-148.5,24.5-229.4,35.5
				c-367.7,50.4-819.8-37.8-995.5-77.7c-9.6-2.2-18.8-4.6-27.6-7.2c-16.4-4.8-32.5-11.2-48-19.1l0,0"/>
			<path class="st61" d="M1919.3,879.9L1919.3,879.9c-21.6-31.7-497.4,15.7-619.6,33.6c-71.4,10.5-148.5,24.6-229.4,35.3
				c-367.7,49.3-819.8-38.9-995.5-78.7c-9.6-2.2-18.8-4.6-27.6-7.2c-16.4-4.8-32.5-11.2-48-19.1l0,0"/>
			<path class="st62" d="M1919.3,877.2L1919.3,877.2c-22-32.3-501.7,18.4-619.5,35.8c-71.4,10.5-148.5,24.6-229.4,35.1
				c-367.8,48.3-819.9-40-995.5-79.7c-9.6-2.2-18.8-4.6-27.6-7.2c-16.4-4.9-32.5-11.3-48-19.1l0,0"/>
			<path class="st63" d="M1919.3,874.5L1919.3,874.5c-22.4-32.9-506.1,21.1-619.5,37.9c-71.4,10.6-148.5,24.7-229.4,35
				c-367.9,47.2-819.9-41.1-995.5-80.8c-9.6-2.2-18.8-4.6-27.6-7.2c-16.4-4.9-32.5-11.3-47.9-19.1l0,0"/>
			<path class="st64" d="M1919.3,871.8L1919.3,871.8c-22.8-33.5-510.4,23.9-619.5,40.1c-71.4,10.6-148.5,24.7-229.5,34.8
				c-367.9,46.1-819.9-42.2-995.5-81.8c-9.5-2.2-18.7-4.6-27.6-7.2c-16.4-4.9-32.5-11.3-47.9-19.2l0,0"/>
			<path class="st65" d="M1919.3,869.1L1919.3,869.1c-23.2-34.1-514.8,26.6-619.5,42.3c-71.3,10.7-148.4,24.8-229.5,34.6
				c-368,45-820-43.3-995.5-82.9c-9.5-2.1-18.7-4.6-27.6-7.2c-16.4-4.9-32.5-11.3-47.9-19.2l0,0"/>
			<path class="st66" d="M1919.3,866.3L1919.3,866.3c-23.6-34.7-519.1,29.4-619.5,44.5c-71.3,10.7-148.4,24.8-229.5,34.4
				c-368.1,43.9-820-44.4-995.5-83.9c-9.5-2.1-18.7-4.6-27.6-7.2c-16.4-4.9-32.4-11.3-47.9-19.2l0,0"/>
			<path class="st67" d="M1919.3,863.6L1919.3,863.6c-24-35.3-523.5,32.2-619.4,46.7c-71.3,10.8-148.4,24.9-229.5,34.2
				c-368.1,42.8-820-45.5-995.6-85c-9.5-2.1-18.7-4.6-27.6-7.2c-16.4-4.9-32.4-11.4-47.9-19.2l0,0"/>
			<path class="st68" d="M1919.3,860.9L1919.3,860.9c-24.4-35.9-527.8,34.9-619.4,48.9c-71.3,10.8-148.4,24.9-229.5,34.1
				c-368.2,41.8-820.1-46.6-995.6-86c-9.5-2.1-18.7-4.6-27.6-7.2c-16.4-4.9-32.4-11.4-47.9-19.3l0,0"/>
			<path class="st69" d="M1919.3,858.2L1919.3,858.2c-24.8-36.5-532.2,37.7-619.4,51c-71.2,10.9-148.4,25-229.6,33.9
				C702.1,983.8,250.2,895.4,74.7,856c-9.5-2.1-18.7-4.6-27.6-7.2c-16.4-5-32.4-11.4-47.9-19.3l0,0"/>
			<path class="st70" d="M1919.3,855.5L1919.3,855.5c-25.3-37.1-536.5,40.5-619.4,53.2c-71.2,10.9-148.3,25-229.6,33.7
				C702,982,250.2,893.6,74.7,854.3c-9.5-2.1-18.7-4.5-27.5-7.3c-16.4-5-32.4-11.4-47.9-19.3l0,0"/>
			<path class="st71" d="M1919.3,852.7L1919.3,852.7c-25.7-37.7-540.9,43.3-619.3,55.4c-71.2,11-148.3,25.1-229.6,33.5
				c-368.4,38.5-820.1-49.8-995.6-89.1c-9.5-2.1-18.7-4.5-27.5-7.3c-16.4-5-32.4-11.5-47.9-19.3l0,0"/>
			<path class="st72" d="M1919.3,850L1919.3,850c-26.1-38.3-545.2,46.1-619.3,57.6c-71.2,11.1-148.3,25.2-229.6,33.3
				C701.9,978.4,250.1,890,74.7,850.8c-9.5-2.1-18.6-4.5-27.5-7.3c-16.4-5-32.4-11.5-47.9-19.3l0,0"/>
			<path class="st73" d="M1919.3,847.3L1919.3,847.3c-26.5-38.9-549.6,48.9-619.3,59.8c-71.1,11.1-148.3,25.2-229.6,33.2
				c-368.5,36.4-820.2-52-995.6-91.2c-9.4-2.1-18.6-4.5-27.5-7.3c-16.4-5-32.4-11.5-47.9-19.4l0,0"/>
			<path class="st74" d="M1919.3,844.6L1919.3,844.6c-26.9-39.5-553.9,51.7-619.3,62c-71.1,11.2-148.3,25.3-229.7,33
				c-368.6,35.3-820.2-53.1-995.6-92.3c-9.4-2.1-18.6-4.5-27.5-7.3c-16.4-5-32.4-11.5-47.9-19.4l0,0"/>
			<path class="st75" d="M1919.3,841.9L1919.3,841.9C1892,801.8,1361,896.4,1300,906c-71.1,11.2-148.3,25.3-229.7,32.8
				C701.7,973,250,884.6,74.7,845.5c-9.4-2.1-18.6-4.5-27.5-7.3c-16.4-5-32.4-11.5-47.9-19.4l0,0"/>
			<path class="st76" d="M1919.3,839.1L1919.3,839.1c-27.7-40.7-562.6,57.3-619.2,66.3c-71.1,11.3-148.2,25.4-229.7,32.6
				C701.6,971.2,250,882.8,74.7,843.7c-9.4-2.1-18.6-4.5-27.5-7.3c-16.4-5.1-32.4-11.6-47.9-19.4l0,0"/>
			<path class="st77" d="M1919.3,836.4L1919.3,836.4c-28.1-41.3-566.9,60.2-619.2,68.5c-71.1,11.3-148.2,25.4-229.7,32.5
				C701.5,969.4,250,881,74.7,842c-9.4-2.1-18.6-4.5-27.5-7.3c-16.4-5.1-32.4-11.6-47.8-19.5l0,0"/>
			<path class="st78" d="M1919.3,833.7L1919.3,833.7c-28.5-41.9-571.3,63-619.2,70.7c-71,11.4-148.2,25.5-229.8,32.3
				c-368.8,31-820.4-57.5-995.6-96.4c-9.4-2.1-18.6-4.5-27.5-7.3c-16.4-5.1-32.4-11.6-47.8-19.5l0,0"/>
			<path class="st79" d="M1919.3,831L1919.3,831c-28.9-42.5-575.6,65.9-619.2,72.9c-71,11.4-148.2,25.5-229.8,32.1
				c-368.9,29.9-820.4-58.6-995.6-97.5c-9.4-2.1-18.6-4.5-27.5-7.3c-16.4-5.1-32.4-11.6-47.8-19.5l0,0"/>
			<path class="st80" d="M1919.3,828.3L1919.3,828.3c-29.3-43.1-580,68.7-619.2,75.1c-71,11.5-148.2,25.6-229.8,31.9
				c-369,28.8-820.4-59.6-995.6-98.5c-9.4-2.1-18.6-4.5-27.5-7.3c-16.4-5.1-32.4-11.6-47.8-19.5l0,0"/>
			<path class="st81" d="M1919.3,825.5L1919.3,825.5c-29.7-43.7-584.3,71.6-619.1,77.3c-71,11.6-148.2,25.6-229.8,31.7
				c-369,27.7-820.5-60.7-995.6-99.6c-9.4-2.1-18.5-4.5-27.5-7.3c-16.4-5.1-32.4-11.7-47.8-19.5l0,0"/>
			<path class="st82" d="M1919.3,822.8L1919.3,822.8c-30.1-44.3-588.6,74.5-619.1,79.4c-71,11.6-148.1,25.7-229.8,31.6
				C701.2,960.5,249.8,872,74.7,833.2c-9.3-2.1-18.5-4.5-27.5-7.3c-16.4-5.1-32.3-11.7-47.8-19.6l0,0"/>
			<path class="st83" d="M1919.3,820.1L1919.3,820.1c-30.6-44.9-593,77.3-619.1,81.6c-70.9,11.7-148.1,25.8-229.9,31.4
				c-369.2,25.6-820.5-62.9-995.6-101.7c-9.3-2.1-18.5-4.5-27.5-7.4c-16.4-5.1-32.3-11.7-47.8-19.6l0,0"/>
			<path class="st84" d="M1919.3,817.4L1919.3,817.4c-31-45.5-597.3,80.2-619.1,83.8c-70.9,11.7-148.1,25.8-229.9,31.2
				c-369.2,24.5-820.5-64-995.6-102.7c-9.3-2.1-18.5-4.5-27.5-7.4c-16.4-5.2-32.3-11.7-47.8-19.6l0,0"/>
			<path class="st85" d="M1919.3,814.7L1919.3,814.7c-31.4-46.1-601.6,83.1-619.1,86c-70.9,11.8-148.1,25.9-229.9,31
				C701,955.1,249.7,866.6,74.7,827.9c-9.3-2.1-18.5-4.5-27.5-7.4c-16.3-5.2-32.3-11.7-47.8-19.6l0,0"/>
			<path class="st86" d="M1919.3,811.9L1919.3,811.9c-31.8-46.7-606,86-619,88.2c-70.9,11.8-148.1,25.9-229.9,30.8
				c-369.4,22.3-820.6-66.2-995.6-104.8c-9.3-2-18.5-4.5-27.5-7.4c-16.3-5.2-32.3-11.8-47.8-19.7l0,0"/>
			<path class="st87" d="M1919.3,809.2L1919.3,809.2c-32.2-47.3-610.3,88.9-619,90.4c-70.8,11.9-148,26-229.9,30.7
				C700.9,951.5,249.7,863,74.7,824.4c-9.3-2-18.5-4.5-27.5-7.4c-16.3-5.2-32.3-11.8-47.8-19.7l0,0"/>
			<path class="st88" d="M1919.3,806.5L1919.3,806.5c-32.6-47.9-614.6,91.8-619,92.5c-70.8,11.9-148,26-230,30.5
				c-369.5,20.2-820.7-68.4-995.6-106.9c-9.3-2-18.5-4.5-27.5-7.4c-16.3-5.2-32.3-11.8-47.8-19.7l0,0"/>
			<path class="st89" d="M1919.3,803.8L1919.3,803.8c-33-48.5-619,94.7-619,94.7C914.5,989.6,288.4,867.9,74.7,820.9
				c-26-5.7-51.2-14.8-75.3-27.1l0,0"/>
		</g>
		
			<linearGradient id="SVGID_6_" gradientUnits="userSpaceOnUse" x1="1873.9728" y1="239.352" x2="1873.9728" y2="239.352" gradientTransform="matrix(1 0 0 -1 0 1080)">
			<stop  offset="0" style="stop-color:#FFFFFF"/>
			<stop  offset="0.3017" style="stop-color:#EBFBFA"/>
			<stop  offset="0.8689" style="stop-color:#BDF2ED"/>
		</linearGradient>
		<path class="st90" d="M1874,840.6L1874,840.6z"/>
		
			<linearGradient id="SVGID_7_" gradientUnits="userSpaceOnUse" x1="247.8445" y1="81.351" x2="247.8445" y2="81.351" gradientTransform="matrix(1 0 0 -1 0 1080)">
			<stop  offset="0" style="stop-color:#FFFFFF"/>
			<stop  offset="0.177" style="stop-color:#EBFAF7"/>
			<stop  offset="0.5358" style="stop-color:#B9EBE2"/>
			<stop  offset="0.8689" style="stop-color:#85DDCD"/>
		</linearGradient>
		<path class="st91" d="M247.8,998.6L247.8,998.6z"/>
		
			<linearGradient id="SVGID_8_" gradientUnits="userSpaceOnUse" x1="1542.9336" y1="141.0199" x2="1542.9336" y2="141.0199" gradientTransform="matrix(1 0 0 -1 0 1080)">
			<stop  offset="0" style="stop-color:#FFFFFF"/>
			<stop  offset="0.3017" style="stop-color:#EBFBFA"/>
			<stop  offset="0.8689" style="stop-color:#BDF2ED"/>
		</linearGradient>
		<path class="st92" d="M1542.9,939L1542.9,939z"/>
		<path class="st93" d="M-1,840.5"/>
	</g>
	<g>
		<title>Group 3</title>
		<desc>Created with Sketch.</desc>
		<path id="Twisted-Leaf_1_" class="st94" d="M1652,385.3c-0.3-0.2-1-0.3-1.3-0.3c-1.4-0.2-2.8-0.4-4.2-0.4c-4.4,0-8.8,0.4-13,1.1
			c-2.7,0.4-6,1.8-8.7,1.1c-4.7-1.3-9.5-1.3-13.9,0.6c-4.1,1.8-7.2,5.1-9,8.7c-0.3,0.5-1.4,2.5-1.7,3.9c-0.1,0.3-0.3,0.6-0.4,0.8
			c-0.3,0.8-0.6,1.6-0.9,2.4c-0.1,0.3-0.4,1.1-0.1,1.3c-0.6,0.9-1.1,1.9-1.5,2.9c-1.2,2.9-2.5,6-2.9,9.1c-0.2,1.1-0.2,2.3,0,3.4
			c0.1,0.6,0,1.7,0.5,2.1c0.9,0.9,1.4-0.4,1.3-1c-0.8-4.6,0.7-8.9,2.5-13.2c1.1-2.8,3-5.3,5.1-7.6c1.7-1.9,3.5-3.3,5.8-4.6
			c2.8-1.5,5.9-2.7,8.9-4c2-0.8,4-1.6,6-2.3c0.5-0.2,1.2-0.6,1.7-0.6c1.1,0,2.6,0.7,3.6,1c3.4,0.9,6.8,2,10.3,2.4
			c2.2,0.3,4.3,0,6.4-0.7c0.2-0.1,0.6-0.2,1-0.5c1.5-0.5,3-1.2,4.3-2.2c0.7-0.6,1.4-1.3,2-2c0.2-0.2,0.3-0.4,0.3-0.6
			c0.1-0.1,0.2-0.1,0.2-0.2C1654.3,385.3,1652.9,385.3,1652,385.3"/>
		<path id="Fill-16_1_" class="st94" d="M1298.6,439.9c-0.9,0.6-1.7,1.3-2.5,1.9c-0.6,0.5-1.7,1.1-1.9,1.9c-0.2,0.8,0.5,1.5,1.1,2
			c3.1,2.5,6.5,4.3,10.8,4.5c6.5,0.4,12.2-1.1,17.9-4c4-2.1,6.6-5.1,7.2-9.3c4.7,1.8,9.3,4.2,13.2,7.2c1.9,1.5,3.6,3.1,5.1,4.9
			c1,1.2,1.9,2.4,2.8,3.6c0.4,0.5,0.8,1.5,1.4,1.8c0.7,0.4,1.6-0.2,1.6-0.9c0-0.6-0.8-1.3-1.1-1.8c-0.6-0.8-1.2-1.7-1.8-2.5
			c-1-1.3-2-2.6-3.2-3.9c-2.5-2.8-5.7-5.1-9.1-7c-6.4-3.8-13.4-6.1-21.2-6.3c-4.8-0.1-8.8,1.3-12.9,3.5
			C1303.6,436.9,1300.9,438.2,1298.6,439.9"/>
		<path id="Leaf_1_" class="st95" d="M1360.6,421.8c-5-4.6-10-9.2-15.5-13.2c-3.3-2.4-6.7-4.6-10.1-6.8c0.4,0.3,0.8,0.6,1.1,1
			c-1.1-0.6-2.4-1-3.6-1.6c-1.2-0.7-2.4-1.4-3.6-2.2c-2.3-1.5-4.5-3-6.9-4.5c-2.6-1.6-5.3-3-8-4.6c-2.3-1.3-4.5-2.7-7-3.8
			c-1.3-0.6-2.6-1.3-4-1.9c-0.4-0.2-4.9-2.8-4.9-2.8c0.2-0.2,2.5,0.8,2.9,0.9c1,0.4,2,0.8,3,1.3c-0.5-1-1-2-1.2-3
			c-0.1-0.3-0.6-2.7-0.4-2.9c0.1-0.1,1.6,4.2,1.7,4.6c0.1,0.3,0.1,0.8,0.2,1.1c0.2,0.5,0.2,0.4,0.6,0.6c0.8,0.5,1.8,0.9,2.7,1.3
			c0.5,0.2,1.9,1.1,2.7,1.4c2.6,1.1,5.2,2.9,7.7,4.3c-0.6-1.1-1.1-2.2-1.5-3.4c-0.1-0.3-1-2.8-0.8-3c0.2-0.2,2,3.7,2.1,4.1
			c0.2,0.7,0.2,1.4,0.5,2.1c0.3,0.7,1.1,1,1.8,1.4c2.7,1.6,5.4,3.2,8,5c2.8-4.6-0.4-10.1-3.2-13.9c-2-2.8-4.7-5.1-7.5-7.2
			c-3.8-2.8-8.1-4.9-12.4-7c-5-2.3-10.5-3.8-16.1-4.5c-3-0.4-6-0.3-9-0.2c-1.5,0.1-2.9,0.2-4.3,0.7c-0.6,0.2-1.2,0.4-1.8,0.7
			c-0.5,0.2-1.5,0.4-1.8,0.7c-2.1,2.5-3.2,5-3.1,8.1c0.2,3,1.2,6,2.6,8.6c1.6,3,3.6,5.6,6.3,7.9c2,1.7,4.3,3.2,6.5,4.7
			c8,5.3,18.1,9.8,28.5,8.6c3.4-0.4,6.5-1.4,9.5-2.9c0.7-0.3,1.4-0.7,2.1-1.1c0.4-0.3,1.6-1.5,2.1-1.5c0.6-0.1,1.9,1.1,2.5,1.4
			c4.4,2.6,8.7,5.4,12.9,8.2c4.5,3.1,8.7,6.3,12.8,9.7c1.8,1.4,3.5,2.9,5.2,4.4c0.4,0.3,1.4,1.6,2.1,1.7c0.5,0,0.8-0.3,0.7-0.7
			C1362.7,423.2,1361.1,422.2,1360.6,421.8"/>
		<path id="Fill-10_1_" class="st96" d="M1646.8,403.8c-1.9-0.4-4.1-0.4-6-0.3c-10.5,0.1-20.9,4.6-27.6,11.8
			c-5.7,6.1-7.3,13.7-8.4,21.4c-0.1,0.8-0.2,1.5-0.2,2.3c0,0.2,0,0.3-0.1,0.4c-0.4,0.4-0.7,0.8-0.4,1.2c-1,1.9-1.8,3.9-2.5,6
			c-2.1,6-4.2,12.1-2.9,18.5c0.3-3.5,0.9-7,1.7-10.5c0-0.2,0.1-0.4,0.1-0.6c0,0,0,0,0-0.1c0.3-1,0.6-2.1,1.1-3.1c0,0,0,0,0,0
			c0.1-0.1,0.1-0.3,0.2-0.4c0.1-0.3,0.2-0.5,0.4-0.8c0-0.1,0.1-0.2,0.1-0.3c0.6-1.4,0.9-3,1.5-4.4c0.1-0.3,0.3-0.6,0.4-1
			c0,0,0,0,0-0.1c0.4-0.9,0.8-1.7,1.3-2.6c0.3-0.2,0.4-0.6,0.6-1c0-0.1,0.4-0.6,0.5-0.9c0.3-0.5,0.5-1,0.8-1.4c0,0,0,0,0,0
			c0.3-0.5,0.6-0.9,0.8-1.4c0.1-0.1,0.1-0.2,0.2-0.3c0.1-0.2,0.2-0.3,0.3-0.5c0.9-1.5,1.9-2.9,2.9-4.4c0.4-0.5,1.2-1.2,1.4-1.8
			c0,0,0,0,0-0.1c2.2-2.8,4.7-5.4,7.8-7.4c-0.4,0.4-1.2,1.6-1.4,1.8c-0.6,0.7-1.3,1.4-2,2.1c-1.2,1.2-2.4,2.5-3.5,3.9
			c-2,2.5-3.7,5.1-5.2,7.8c0,0,0,0,0,0c-0.8,0.9-1.3,2.2-1.9,3.3c2.3-1,4.8-1.6,7.2-2.4c2.3-0.8,4.6-1.8,6.8-2.9
			c2.9-1.5,6-3.1,8.7-5c3.2-1.8,5.8-4.2,8.2-6.8c2.8-3,5.3-6.1,6.9-9.7c0.8-1.8,1.4-3.7,1.7-5.6c0-0.1,0-0.2,0.1-0.3
			c0.4-0.7,0.7-1.3,1-2C1647.7,405.4,1648.8,404.2,1646.8,403.8"/>
		<path class="st97" d="M1320,416.6c-0.6-0.6-1.3-1.1-2.1-1.5c-0.2-0.1-1.7-0.7-1.8-0.6C1315.9,414.8,1319.8,416.4,1320,416.6
			 M1327.1,412.7c0,0,0.5,0.8,0.7,1.1c0.3,0.5,0.6,1,0.8,1.6C1328.2,414.4,1327.8,413.5,1327.1,412.7 M1290.7,419.1
			c-0.5,0.1-1.1-0.4-0.5-0.6c0.5-0.1,0.5-0.1,0.7-0.5c0.2-0.3,0.3-0.7,0.5-1c0.4-0.7,0.8-1.3,1.3-2c1.1-1.3,2.4-2.5,3.8-3.4
			c2.5-1.7,5.4-3.2,8.4-4c4.8-1.2,10.3-1.3,15.1-0.4c3,0.5,5.7,1.4,7.7,3.6c1,1.1,1.8,2.3,2.1,3.7c0.1,0.4,0.1,0.8,0.2,1.1
			c0.2,0.5,0.1,0.4,0.8,0.5c0.8,0.1,1.6,0.2,2.3,0.4c2,0.3,4.1,0.7,6.1,1.2c0.7,0.2,1.3,0.4,1.9,0.6c0.5,0.2,2.3,0.8,2.6,1.3
			c0.4,0.9-0.9,0.5-1.3,0.3c-0.3-0.2-0.7-0.3-1.1-0.5c-0.9-0.4-1.9-0.7-2.8-0.9c-1-0.2-2.1-0.4-3.2-0.6c-1-0.2-2-0.3-3-0.5
			c-0.6-0.1-1.1-0.2-1.7-0.2c-0.2,0-0.5-0.2-0.5,0c-1.2-0.2-2.4-0.2-3.6-0.2c-1.5-0.1-2.9-0.1-4.4-0.1c-1.1,0-2.1,0.1-3.1,0.2
			c-0.6,0.1-1.2,0.2-1.8,0.3c-0.3,0.1-1.6,0.2-1.8,0.5c0.1-0.1,1.5,0,1.7,0c0.7,0,1.5-0.1,2.2-0.2c1.3-0.1,2.7-0.2,4-0.2
			c0,0.2-0.9,0.6-1.2,0.7c-0.5,0.3-1,0.7-1.4,1c-0.8,0.7-1.8,1.5-2.3,2.3c0.2-0.2,1-0.5,1.2-0.7c0.5-0.3,0.9-0.6,1.3-0.9
			c0.4-0.3,0.8-0.6,1.1-1c0.4-0.3,0.8-1,1.3-1.2c0,0,0.2,0.1,0.4,0.1c0.1,0,0.3-0.3,0.3-0.3c0.4-0.2,1.3,0,1.7,0.1
			c1.2,0,2.4,0.1,3.6,0.2c0.4,0,0.7-0.1,0.8,0.2c0.1,0.3-0.1,0.9-0.2,1.2c-0.3,1.1-0.8,2-1.6,2.8c-1.5,1.5-3.4,2.6-5.4,3.2
			c-8,2.6-16.6,3.7-24.6,0.9C1295.1,425.1,1290.1,423.1,1290.7,419.1"/>
		<path id="Background-Shape_1_" class="st98" d="M1658,542.6c5.5,33.3-126.9,54.9-240.8,39.8s-166.2-74.3-111.8-105.8
			C1359.7,445.1,1652.5,509.3,1658,542.6z"/>
		<path id="Container_1_" class="st99" d="M1344.7,324.2h80.5c2.5,0,4.5,1.8,4.5,4.1v145.9c0,2.2-2,4.1-4.5,4.1h-80.5
			c-2.5,0-4.5-1.8-4.5-4.1V328.3C1340.2,326,1342.2,324.2,1344.7,324.2z"/>
		<ellipse id="Touch_1_" class="st100" cx="1384.4" cy="461" rx="8.5" ry="7.6"/>
		<g id="Camera_1_" transform="translate(64.000000, 16.000000)">
			<ellipse id="Lens_1_" class="st100" cx="1313.1" cy="317.8" rx="1.1" ry="1"/>
			<path id="Sensor_1_" class="st100" d="M1318.2,316.7h9.6c0.6,0.1,1.1,0.5,1.1,1.1l0,0c0,0.6-0.5,1-1.1,0.7h-9.6
				c-0.6,0.3-1.1-0.2-1.1-0.7l0,0C1317,317.2,1317.6,316.7,1318.2,316.7z"/>
		</g>
		<g id="Rows_1_" transform="translate(14.000000, 28.000000)">
			<g id="Row_1_">
				<path id="Background_1_" class="st100" d="M1335.9,310.7h69.6c1.2,0,2.3,0.9,2.3,2V336c0,1.1-1,2-2.3,2h-69.6
					c-1.2,0-2.3-0.9-2.3-2v-23.2C1333.6,311.7,1334.6,310.7,1335.9,310.7z"/>
				<g id="Text_1_" transform="translate(39.000000, 16.200000)">
					<path id="Name_1_" class="st94" d="M1318.5,303h37.7c0.9,0,1.7,0.7,1.7,1.5v1.2c0,0.8-0.8,1.5-1.7,1.5h-37.7
						c-0.9,0-1.7-0.7-1.7-1.5v-1.2C1316.8,303.7,1317.6,303,1318.5,303z"/>
					<path class="st94" d="M1318.5,309.7h24.2c0.9,0,1.7,0.7,1.7,1.5v1.2c0,0.8-0.8,1.5-1.7,1.5h-24.2c-0.9,0-1.7-0.7-1.7-1.5v-1.2
						C1316.8,310.4,1317.6,309.7,1318.5,309.7z"/>
				</g>
				<ellipse id="Avatar_1_" class="st101" cx="1345.6" cy="324.6" rx="6.8" ry="6.1"/>
			</g>
			<g transform="translate(0.000000, 62.000000)">
				<path class="st100" d="M1335.9,280.3h69.6c1.2,0,2.3,0.9,2.3,2v17.1c0,1.1-1,2-2.3,2h-69.6c-1.2,0-2.3-0.9-2.3-2v-17.1
					C1333.6,281.2,1334.6,280.3,1335.9,280.3z"/>
				<g transform="translate(39.000000, 12.600000)">
					<path class="st94" d="M1318.5,274.3h37.7c0.9,0,1.7,0.7,1.7,1.5l0,0c0,0.8-0.8,1.5-1.7,1.5h-37.7c-0.9,0-1.7-0.7-1.7-1.5l0,0
						C1316.8,275,1317.6,274.3,1318.5,274.3z"/>
					<path class="st94" d="M1318.5,279.8h24.2c0.9,0,1.7,0.7,1.7,1.5l0,0c0,0.8-0.8,1.5-1.7,1.5h-24.2c-0.9,0-1.7-0.7-1.7-1.5l0,0
						C1316.8,280.5,1317.6,279.8,1318.5,279.8z"/>
				</g>
				<ellipse class="st101" cx="1345.6" cy="291.1" rx="6.8" ry="6.1"/>
			</g>
			<g transform="translate(0.000000, 112.000000)">
				<path class="st100" d="M1335.9,255.7h69.6c1.2,0,2.3,0.9,2.3,2v17.1c0,1.1-1,2-2.3,2h-69.6c-1.2,0-2.3-0.9-2.3-2v-17.1
					C1333.6,256.7,1334.6,255.7,1335.9,255.7z"/>
				<g transform="translate(39.000000, 12.600000)">
					<path class="st94" d="M1318.5,249.8h37.7c0.9,0,1.7,0.7,1.7,1.5l0,0c0,0.8-0.8,1.5-1.7,1.5h-37.7c-0.9,0-1.7-0.7-1.7-1.5l0,0
						C1316.8,250.5,1317.6,249.8,1318.5,249.8z"/>
					<path class="st94" d="M1318.5,255.3h24.2c0.9,0,1.7,0.7,1.7,1.5l0,0c0,0.8-0.8,1.5-1.7,1.5h-24.2c-0.9,0-1.7-0.7-1.7-1.5l0,0
						C1316.8,256,1317.6,255.3,1318.5,255.3z"/>
				</g>
				<ellipse class="st102" cx="1345.6" cy="266.6" rx="6.8" ry="6.1"/>
			</g>
			<g transform="translate(0.000000, 162.000000)">
				<path class="st100" d="M1335.9,231.2h69.6c1.2,0,2.3,0.9,2.3,2v17.1c0,1.1-1,2-2.3,2h-69.6c-1.2,0-2.3-0.9-2.3-2v-17.1
					C1333.6,232.1,1334.6,231.2,1335.9,231.2z"/>
				<g transform="translate(39.000000, 12.600000)">
					<path class="st94" d="M1318.5,225.3h37.7c0.9,0,1.7,0.7,1.7,1.5l0,0c0,0.8-0.8,1.5-1.7,1.5h-37.7c-0.9,0-1.7-0.7-1.7-1.5l0,0
						C1316.8,226,1317.6,225.3,1318.5,225.3z"/>
					<path class="st94" d="M1318.5,230.7h24.2c0.9,0,1.7,0.7,1.7,1.5l0,0c0,0.8-0.8,1.5-1.7,1.5h-24.2c-0.9,0-1.7-0.7-1.7-1.5l0,0
						C1316.8,231.4,1317.6,230.7,1318.5,230.7z"/>
				</g>
				<ellipse class="st101" cx="1345.6" cy="242" rx="6.8" ry="6.1"/>
			</g>
		</g>
		<g id="Group_1_" transform="translate(0.000000, 218.000000)">
			<path class="st97" d="M1356.8,230.8c-0.7,0-1.5,0-2.2,0c-0.6,0-1.4-0.1-1.9,0.2c-0.5,0.3-0.5,1-0.4,1.5c0.4,2.5,1.4,4.8,3.5,6.6
				c3.3,2.8,7,4.2,11.4,4.8c3.1,0.4,6-0.2,8.3-2.2c1.7,2.8,2.9,5.9,3.6,9c0.3,1.5,0.4,3.1,0.4,4.6c0,1-0.1,2-0.2,3
				c-0.1,0.4-0.3,1.1-0.1,1.5c0.2,0.5,1,0.5,1.3,0.1c0.3-0.3,0.2-1,0.3-1.4c0.1-0.7,0.2-1.3,0.2-2c0.1-1.1,0.2-2.2,0.2-3.3
				c0-2.5-0.6-4.9-1.5-7.3c-1.6-4.5-4.2-8.5-8.2-11.6c-2.5-1.9-5.3-2.7-8.5-3.1C1360.9,231.1,1358.8,230.8,1356.8,230.8"/>
			<path id="Fill-18_1_" class="st97" d="M1368.4,248.6c-8.1,0-13.5,5.9-16.1,12c-1,2.3-1.2,4.8-1.6,7.2c-0.1,0.8-0.1,2-0.4,2.6
				c-0.1,0.2-0.4,0.3-0.3,0.7c0.1,0.2,0.2,0.3,0.5,0.4c0.5,0.1,1.2-0.4,1.7-0.6c3.6-1.6,6-4.2,7.9-7.2c1.2-1.9,2.4-3.9,3.1-6
				c0.4-1.3,0.7-2.6,0.8-4c0.1-0.5,0.1-1.1,0.1-1.6c0-0.5-0.3-0.8-0.5-1.3c2.7-0.9,5.7-1.2,8.5-0.2c2.5,0.9,4.6,2.6,5.8,4.7
				c0.3,0.6,0.5,1.1,0.7,1.7c0.1,0.4,0.1,0.9,0.3,1.3c0.5,0.9,1.6,0.3,1.5-0.5c-0.3-2.2-1.7-4.5-3.5-6
				C1374.7,249.9,1371.6,248.6,1368.4,248.6"/>
		</g>
		<path class="st103" d="M1381.8,337.5h80.5c2.5,0,4.5,1.8,4.5,4.1v145.9c0,2.2-2,4.1-4.5,4.1h-80.5c-2.5,0-4.5-1.8-4.5-4.1V341.6
			C1377.2,339.4,1379.3,337.5,1381.8,337.5z"/>
		<ellipse class="st100" cx="1421.8" cy="474.3" rx="8.5" ry="7.6"/>
		<g transform="translate(112.000000, 16.000000)">
			<ellipse class="st100" cx="1302.4" cy="331" rx="1.1" ry="1"/>
			<path class="st100" d="M1307.5,330h9.6c0.6,0,1.1,0.4,1.1,1l0,0c0,0.6-0.5,1-1.1,0.8h-9.6c-0.6,0.2-1.1-0.3-1.1-0.8l0,0
				C1306.4,330.4,1306.9,330,1307.5,330z"/>
		</g>
		<g transform="translate(62.000000, 28.000000)">
			<g>
				<path class="st100" d="M1325.6,324.1h69.6c1.2,0,2.3,0.9,2.3,2v23.2c0,1.1-1,2-2.3,2h-69.6c-1.2,0-2.3-0.9-2.3-2v-23.2
					C1323.3,325,1324.3,324.1,1325.6,324.1z"/>
				<g id="Text-Stuff_1_" transform="translate(9.000000, 16.200000)">
					<path id="Label_1_" class="st94" d="M1320.7,316.4h37.7c0.9,0,1.7,0.7,1.7,1.5v1.2c0,0.8-0.8,1.5-1.7,1.5h-37.7
						c-0.9,0-1.7-0.7-1.7-1.5v-1.2C1319,317.1,1319.8,316.4,1320.7,316.4z"/>
					<path class="st94" d="M1320.7,323h24.2c0.9,0,1.7,0.7,1.7,1.5v1.2c0,0.8-0.8,1.5-1.7,1.5h-24.2c-0.9,0-1.7-0.7-1.7-1.5v-1.2
						C1319,323.7,1319.8,323,1320.7,323z"/>
				</g>
				<g id="Check_1_" transform="translate(110.000000, 20.000000)">
					<ellipse class="st94" cx="1279.2" cy="317.8" rx="4" ry="3.6"/>
					<ellipse id="Indicator_1_" class="st104" cx="1279.2" cy="317.8" rx="1.7" ry="1.5"/>
				</g>
			</g>
			<g transform="translate(0.000000, 62.000000)">
				<path class="st100" d="M1325.6,293.6h69.6c1.2,0,2.3,0.9,2.3,2v17.1c0,1.1-1,2-2.3,2h-69.6c-1.2,0-2.3-0.9-2.3-2v-17.1
					C1323.3,294.5,1324.3,293.6,1325.6,293.6z"/>
				<g transform="translate(39.000000, 12.600000)">
					<path class="st94" d="M1307.6,287.7h37.7c0.9,0,1.7,0.7,1.7,1.5l0,0c0,0.8-0.8,1.5-1.7,1.5h-37.7c-0.9,0-1.7-0.7-1.7-1.5l0,0
						C1305.9,288.4,1306.6,287.7,1307.6,287.7z"/>
					<path class="st94" d="M1307.6,293.1h24.2c0.9,0,1.7,0.7,1.7,1.5l0,0c0,0.8-0.8,1.5-1.7,1.5h-24.2c-0.9,0-1.7-0.7-1.7-1.5l0,0
						C1305.9,293.8,1306.6,293.1,1307.6,293.1z"/>
				</g>
				<ellipse class="st101" cx="1334.9" cy="304.3" rx="6.8" ry="6.1"/>
			</g>
			<g transform="translate(0.000000, 112.000000)">
				<path class="st100" d="M1325.6,269.1h69.6c1.2,0,2.3,0.9,2.3,2v17.1c0,1.1-1,2-2.3,2h-69.6c-1.2,0-2.3-0.9-2.3-2v-17.1
					C1323.3,270,1324.3,269.1,1325.6,269.1z"/>
				<g transform="translate(9.000000, 12.600000)">
					<path class="st94" d="M1320.7,263.2h37.7c0.9,0,1.7,0.7,1.7,1.5l0,0c0,0.8-0.8,1.5-1.7,1.5h-37.7c-0.9,0-1.7-0.7-1.7-1.5l0,0
						C1319,263.8,1319.8,263.2,1320.7,263.2z"/>
					<path class="st102" d="M1320.7,268.6h24.2c0.9,0,1.7,0.7,1.7,1.5l0,0c0,0.8-0.8,1.5-1.7,1.5h-24.2c-0.9,0-1.7-0.7-1.7-1.5l0,0
						C1319,269.3,1319.8,268.6,1320.7,268.6z"/>
				</g>
				<g transform="translate(110.000000, 14.000000)">
					<ellipse class="st94" cx="1279.2" cy="265.8" rx="4" ry="3.6"/>
					<ellipse class="st104" cx="1279.2" cy="265.8" rx="1.7" ry="1.5"/>
				</g>
			</g>
			<g transform="translate(0.000000, 162.000000)">
				<path class="st100" d="M1325.6,244.6h69.6c1.2,0,2.3,0.9,2.3,2v17.1c0,1.1-1,2-2.3,2h-69.6c-1.2,0-2.3-0.9-2.3-2v-17.1
					C1323.3,245.5,1324.3,244.6,1325.6,244.6z"/>
				<g transform="translate(39.000000, 12.600000)">
					<path class="st94" d="M1307.6,238.6h37.7c0.9,0,1.7,0.7,1.7,1.5l0,0c0,0.8-0.8,1.5-1.7,1.5h-37.7c-0.9,0-1.7-0.7-1.7-1.5l0,0
						C1305.9,239.3,1306.6,238.6,1307.6,238.6z"/>
					<path class="st94" d="M1307.6,244.1h24.2c0.9,0,1.7,0.7,1.7,1.5l0,0c0,0.8-0.8,1.5-1.7,1.5h-24.2c-0.9,0-1.7-0.7-1.7-1.5l0,0
						C1305.9,244.8,1306.6,244.1,1307.6,244.1z"/>
				</g>
				<ellipse class="st101" cx="1334.9" cy="255.3" rx="6.8" ry="6.1"/>
			</g>
		</g>
		<path class="st99" d="M1418.8,350.9h180.2c2.5,0,4.5,1.8,4.5,4.1v167.7c0,2.2-2,4.1-4.5,4.1h-180.2c-2.5,0-4.5-1.8-4.5-4.1V354.9
			C1414.3,352.7,1416.3,350.9,1418.8,350.9z"/>
		<path class="st100" d="M1559.6,372.7h30.7c2.5,0,4.5,1.8,4.5,4.1v33.1c0,2.2-2,4.1-4.5,4.1h-30.7c-2.5,0-4.5-1.8-4.5-4.1v-33.1
			C1555.1,374.5,1557.1,372.7,1559.6,372.7z"/>
		<g id="Profile-Info_1_" transform="translate(259.000000, 58.000000)">
			<ellipse class="st94" cx="1316" cy="330.2" rx="9" ry="8.1"/>
			<path class="st94" d="M1303.7,340.2h24.7c0.9,0,1.7,0.7,1.7,1.5l0,0c0,0.8-0.8,1.5-1.7,1.5h-24.7c-0.9,0-1.7-0.7-1.7-1.5l0,0
				C1302,340.9,1302.7,340.2,1303.7,340.2z"/>
			<path class="st94" d="M1308.1,345.6h15.7c0.9,0,1.7,0.7,1.7,1.5l0,0c0,0.8-0.8,1.5-1.7,1.5h-15.7c-0.9,0-1.7-0.7-1.7-1.5l0,0
				C1306.5,346.3,1307.2,345.6,1308.1,345.6z"/>
		</g>
		<path id="Header_1_" class="st105" d="M1418.8,350.3h180.2c2.5,0,4.5,1.8,4.5,4.1v9.9h-189.3v-9.9
			C1414.3,352.1,1416.3,350.3,1418.8,350.3z"/>
		<g id="Buttons_1_" transform="translate(9.000000, 10.000000)">
			<ellipse id="buttons_1_" class="st104" cx="1412.8" cy="347.7" rx="2.3" ry="2"/>
			<ellipse class="st104" cx="1419.5" cy="347.7" rx="2.3" ry="2"/>
			<ellipse class="st104" cx="1426.3" cy="347.7" rx="2.3" ry="2"/>
		</g>
		<g id="Components_1_" transform="translate(249.000000, 132.000000)">
			<path class="st100" d="M1310.6,285.6h30.7c2.5,0,4.5,1.8,4.5,4.1v90.7c0,2.2-2,4.1-4.5,4.1h-30.7c-2.5,0-4.5-1.8-4.5-4.1v-90.7
				C1306.1,287.4,1308.1,285.6,1310.6,285.6z"/>
			<g transform="translate(18.000000, 18.000000)">
				<path id="Data_1_" class="st94" d="M1300.4,276.7h15c1.2,0,2.3,0.9,2.3,2v9.3c0,1.1-1,2-2.3,2h-15c-1.2,0-2.3-0.9-2.3-2v-9.3
					C1298.2,277.6,1299.2,276.7,1300.4,276.7z"/>
				<path class="st102" d="M1300.4,294.3h15c1.2,0,2.3,0.9,2.3,2v8.7c0,1.1-1,2-2.3,2h-15c-1.2,0-2.3-0.9-2.3-2v-8.7
					C1298.2,295.2,1299.2,294.3,1300.4,294.3z"/>
				<path class="st94" d="M1300.4,311.2h15c1.2,0,2.3,0.9,2.3,2v8.7c0,1.1-1,2-2.3,2h-15c-1.2,0-2.3-0.9-2.3-2v-8.7
					C1298.2,312.1,1299.2,311.2,1300.4,311.2z"/>
				<path class="st94" d="M1300.4,344.6h15c1.2,0,2.3,0.9,2.3,2v8.7c0,1.1-1,2-2.3,2h-15c-1.2,0-2.3-0.9-2.3-2v-8.7
					C1298.2,345.5,1299.2,344.6,1300.4,344.6z"/>
				<path class="st101" d="M1300.4,327.6h15c1.2,0,2.3,0.9,2.3,2v8.7c0,1.1-1,2-2.3,2h-15c-1.2,0-2.3-0.9-2.3-2v-8.7
					C1298.2,328.5,1299.2,327.6,1300.4,327.6z"/>
			</g>
		</g>
		<g transform="translate(16.000000, 44.000000)">
			<g>
				<path class="st100" d="M1410,329.3h122.8c1.2,0,2.3,0.9,2.3,2v19.6c0,1.1-1,2-2.3,2H1410c-1.2,0-2.3-0.9-2.3-2v-19.6
					C1407.7,330.2,1408.7,329.3,1410,329.3z"/>
				<g transform="translate(9.000000, 14.100000)">
					<path class="st94" d="M1405.1,321.9h90.9c0.9,0,1.7,0.7,1.7,1.5v0.6c0,0.8-0.8,1.5-1.7,1.5h-90.9c-0.9,0-1.7-0.7-1.7-1.5v-0.6
						C1403.4,322.6,1404.2,321.9,1405.1,321.9z"/>
					<path class="st94" d="M1405.1,327.9h59.9c0.9,0,1.7,0.7,1.7,1.5v0.6c0,0.8-0.8,1.5-1.7,1.5h-59.9c-0.9,0-1.7-0.7-1.7-1.5v-0.6
						C1403.4,328.6,1404.2,327.9,1405.1,327.9z"/>
				</g>
				<g transform="translate(193.954198, 16.500000)">
					<ellipse class="st94" cx="1327.1" cy="324.4" rx="4" ry="3.6"/>
					<ellipse class="st104" cx="1327.1" cy="324.4" rx="1.7" ry="1.5"/>
				</g>
			</g>
			<g transform="translate(0.000000, 55.000000)">
				<path class="st100" d="M1410,301.6h122.8c1.2,0,2.3,0.9,2.3,2v15.9c0,1.1-1,2-2.3,2H1410c-1.2,0-2.3-0.9-2.3-2v-15.9
					C1407.7,302.5,1408.7,301.6,1410,301.6z"/>
				<g transform="translate(9.000000, 11.700000)">
					<path class="st94" d="M1404.4,296h92.8c0.9,0,1.7,0.7,1.7,1.5l0,0c0,0.8-0.8,1.5-1.7,1.5h-92.8c-0.9,0-1.7-0.7-1.7-1.5l0,0
						C1402.7,296.6,1403.4,296,1404.4,296z"/>
					<path class="st94" d="M1404.7,301.4h61.2c0.9,0,1.7,0.7,1.7,1.5l0,0c0,0.8-0.8,1.5-1.7,1.5h-61.2c-0.9,0-1.7-0.7-1.7-1.5l0,0
						C1403,302.1,1403.7,301.4,1404.7,301.4z"/>
				</g>
				<g transform="translate(193.954198, 12.500000)">
					<ellipse class="st94" cx="1327.1" cy="299.4" rx="4" ry="3.6"/>
					<ellipse class="st104" cx="1327.1" cy="299.4" rx="1.7" ry="1.5"/>
				</g>
			</g>
			<g transform="translate(0.000000, 102.000000)">
				<path class="st100" d="M1410,278.9h122.8c1.2,0,2.3,0.9,2.3,2v15.9c0,1.1-1,2-2.3,2H1410c-1.2,0-2.3-0.9-2.3-2v-15.9
					C1407.7,279.8,1408.7,278.9,1410,278.9z"/>
				<g transform="translate(9.000000, 11.700000)">
					<path class="st94" d="M1404.4,273.2h92.8c0.9,0,1.7,0.7,1.7,1.5l0,0c0,0.8-0.8,1.5-1.7,1.5h-92.8c-0.9,0-1.7-0.7-1.7-1.5l0,0
						C1402.7,273.9,1403.4,273.2,1404.4,273.2z"/>
					<path class="st94" d="M1404.7,278.1h61.2c0.9,0,1.7,0.7,1.7,1.5l0,0c0,0.8-0.8,1.5-1.7,1.5h-61.2c-0.9,0-1.7-0.7-1.7-1.5l0,0
						C1403,278.7,1403.7,278.1,1404.7,278.1z"/>
				</g>
				<g transform="translate(193.954198, 12.500000)">
					<ellipse class="st94" cx="1327.1" cy="276.3" rx="4" ry="3.6"/>
					<ellipse class="st102" cx="1327.1" cy="276.3" rx="1.7" ry="1.5"/>
				</g>
			</g>
			<g transform="translate(0.000000, 243.000000)">
				<path class="st100" d="M1410,209.4h122.8c1.2,0,2.3,0.9,2.3,2v15.9c0,1.1-1,2-2.3,2H1410c-1.2,0-2.3-0.9-2.3-2v-15.9
					C1407.7,210.3,1408.7,209.4,1410,209.4z"/>
				<g transform="translate(9.000000, 11.700000)">
					<path class="st94" d="M1404.4,203.8h92.8c0.9,0,1.7,0.7,1.7,1.5l0,0c0,0.8-0.8,1.5-1.7,1.5h-92.8c-0.9,0-1.7-0.7-1.7-1.5l0,0
						C1402.7,204.5,1403.4,203.8,1404.4,203.8z"/>
					<path class="st94" d="M1404.7,208.6h61.2c0.9,0,1.7,0.7,1.7,1.5l0,0c0,0.8-0.8,1.5-1.7,1.5h-61.2c-0.9,0-1.7-0.7-1.7-1.5l0,0
						C1403,209.3,1403.7,208.6,1404.7,208.6z"/>
				</g>
				<g transform="translate(193.954198, 12.500000)">
					<ellipse class="st94" cx="1327.1" cy="207.1" rx="4" ry="3.6"/>
					<ellipse class="st104" cx="1327.1" cy="207.1" rx="1.7" ry="1.5"/>
				</g>
			</g>
			<g transform="translate(0.000000, 196.000000)">
				<path class="st100" d="M1410,232.8h122.8c1.2,0,2.3,0.9,2.3,2v15.9c0,1.1-1,2-2.3,2H1410c-1.2,0-2.3-0.9-2.3-2v-15.9
					C1407.7,233.7,1408.7,232.8,1410,232.8z"/>
				<g transform="translate(9.000000, 11.700000)">
					<path class="st94" d="M1404.4,227.1h92.8c0.9,0,1.7,0.7,1.7,1.5l0,0c0,0.8-0.8,1.5-1.7,1.5h-92.8c-0.9,0-1.7-0.7-1.7-1.5l0,0
						C1402.7,227.8,1403.4,227.1,1404.4,227.1z"/>
					<path class="st94" d="M1404.7,232h61.2c0.9,0,1.7,0.7,1.7,1.5l0,0c0,0.8-0.8,1.5-1.7,1.5h-61.2c-0.9,0-1.7-0.7-1.7-1.5l0,0
						C1403,232.7,1403.7,232,1404.7,232z"/>
				</g>
				<g transform="translate(193.954198, 12.500000)">
					<ellipse class="st94" cx="1327.1" cy="230.2" rx="4" ry="3.6"/>
					<ellipse class="st104" cx="1327.1" cy="230.2" rx="1.7" ry="1.5"/>
				</g>
			</g>
			<g transform="translate(0.000000, 149.000000)">
				<path class="st100" d="M1410,255.5h122.8c1.2,0,2.3,0.9,2.3,2v15.9c0,1.1-1,2-2.3,2H1410c-1.2,0-2.3-0.9-2.3-2v-15.9
					C1407.7,256.4,1408.7,255.5,1410,255.5z"/>
				<g transform="translate(9.000000, 11.700000)">
					<path class="st94" d="M1404.4,249.9h92.8c0.9,0,1.7,0.7,1.7,1.5l0,0c0,0.8-0.8,1.5-1.7,1.5h-92.8c-0.9,0-1.7-0.7-1.7-1.5l0,0
						C1402.7,250.5,1403.4,249.9,1404.4,249.9z"/>
					<path class="st94" d="M1404.7,254.7h61.2c0.9,0,1.7,0.7,1.7,1.5l0,0c0,0.8-0.8,1.5-1.7,1.5h-61.2c-0.9,0-1.7-0.7-1.7-1.5l0,0
						C1403,255.4,1403.7,254.7,1404.7,254.7z"/>
				</g>
				<g transform="translate(193.954198, 12.500000)">
					<ellipse class="st94" cx="1327.1" cy="253.2" rx="4" ry="3.6"/>
					<ellipse class="st104" cx="1327.1" cy="253.2" rx="1.7" ry="1.5"/>
				</g>
			</g>
		</g>
		<path id="Fill-1_1_" class="st95" d="M1650.8,437.3c-2.2-1.4-5.2-1.7-7.9-1.7c-10.4,0-20.2,3.5-28.7,8.7
			c-4.6,2.8-8.8,6.5-12.5,10.2c-2.1,2.2-4,4.5-5.3,7.1c-0.9,1.8-1.5,3.6-1.9,5.5c-0.5,2.3-0.9,4.7-1.1,7c-0.1,0.9-0.7,5.8,1,5.9
			c0,0.1,0,0.2,0,0.3c-3.7,5.2-6,11.4-8.1,17.2c-1.9,5.1-3.5,10.2-4.6,15.4c-1.4,6.9-2.3,13.9-2.8,20.9c-0.1,1.5-0.2,3-0.2,4.5
			c0,1.3-0.1,2.6-0.1,3.8c-0.1,1.4-0.3,3.1-0.1,4.5c0.2,1.2,1.4,1.1,1.5-0.2c0.1-1.5,0.1-3,0.1-4.5c0.1-2,0.2-4,0.3-6
			c0.8-13.8,3.6-27.4,8.8-40.4c2.1-5.3,4.5-10.3,7.6-15.1c2.7-4.3,6-8.4,9.4-12.3c3.3-3.8,6.6-7.4,10.6-10.6
			c3.2-2.6,6.8-4.8,10.5-6.9c4.7-2.7,9.3-5.3,14.3-7.3c2.6-1.1,5.3-2,7.9-3c0.5-0.2,1-0.4,1.4-0.6
			C1652.5,439.1,1652,438,1650.8,437.3"/>
		<path id="Fill-20_1_" class="st95" d="M1608.8,485.5c4.2,0,8,0.5,11.9,2c3.4,1.3,6.4,3,9.4,4.9c4.2,2.6,7.5,5.7,9.8,9.8
			c1.4,2.4,2.4,5.9,1.5,8.6c-1.1,3.1-4.1,5.7-8,5.2c-2.4-0.3-4.7-1.8-6.5-3.2c-2.2-1.6-4-3.6-5.5-5.8c-2.4-3.6-3.8-7.6-5.8-11.3
			c-1-1.8-1.9-3.5-3.1-5.2c-0.6-0.8-1.2-1.7-2-2.3c-0.5-0.3-2.4-0.9-1.7-1.6c-11,0.1-20.7,7.7-22.8,17.1c-0.2,0.9-0.4,1.8-0.5,2.6
			c-0.1,0.6-0.1,2.6-0.6,3c-1.2,0.8-0.7-1.6-0.7-1.9c0.1-0.9,0.3-1.8,0.4-2.6c0.8-4.8,3.2-9.3,7.2-12.7
			C1596.3,488,1602.4,485.5,1608.8,485.5"/>
		<path id="Fill-19_1_" class="st95" d="M1304.1,473.6c10.6,15.9,22.8,31.4,30.2,48.8c-0.3-2.1-0.6-4.1-1-6.2
			c-1.9-10.9-4.2-21.6-6.6-32.4c-1.2-5.5-2.6-11-3.9-16.4c-0.7-2.9-1.4-5.9-2.2-8.8c-0.2-0.7-0.3-2-0.6-3.2
			c7.2,21.2,14.1,42.4,19.2,64.1c0.7,2.9,1.2,5.7,1.7,8.5c0.2-0.6,0.3-1.3,0.5-1.9c2-7.7,5.1-15.4,8.8-22.7c1.8-3.5,3.8-6.8,6.1-10
			c1.5-2,5-4.3,6.3-6.3c-7.4,12.1-10,27.3-14.3,40.5c-1,3.2-2.1,6.4-3.1,9.7c6.4-11.6,16.3-21.1,30.2-25.2
			c-16.7,10-26.8,27.4-33.5,45.2c0,0.2,0,0.4-0.1,0.6c2-3.4,4.5-6.5,7.9-8.6c7.3-4.6,15.3-3.3,22.4,0.7c-5.5-3.2-15.5-0.3-20.2,2.9
			c-3.3,2.3-6.2,5.4-8.7,8.4c-0.6,0.7-1.4,1.6-2.3,2.5c-1.2,7-3.2,14-5.9,20.8c0.5-2,0.1-5.1,0.3-6.6c0-0.2,0-0.3,0-0.5
			c-0.4,1.5-0.8,3-1.2,4.5c0.8-2.8,1.2-5.7,1.5-8.7c0.1-1.3,0.2-2.5,0.3-3.8c0-2.4-0.1-4.8-0.3-7.3c-0.7-2.4-1.4-4.6-2-6.4
			c-2.2-6.7-5.4-13.1-9.4-19c-3.6-5.4-8-10.4-13-14.8c-2.7-2.4-5.5-4.7-8.3-7c-1-0.8-2.8-2.9-4.4-4c11.4,5.6,23,11.7,31.3,20.8
			c-1-3.4-2-6.7-3.1-9.9C1321,505.6,1313.9,488.5,1304.1,473.6z"/>
		<path id="Base_1_" class="st106" d="M1315.4,563.9c0,18.3,1.6,33.1,23.2,33.1s23.2-14.8,23.2-33.1"/>
		<path id="Value_1_" class="st94" d="M1557.4,328.7L1557.4,328.7c0.9,0,1.7,0.7,1.7,1.5v9.6c0,0.8-0.8,1.5-1.7,1.5l0,0
			c-0.9,0-1.7-0.7-1.7-1.5v-9.6C1555.7,329.4,1556.5,328.7,1557.4,328.7z"/>
		<path class="st94" d="M1565.5,320.6L1565.5,320.6c0.9,0,1.7,0.7,1.7,1.5v17.7c0,0.8-0.8,1.5-1.7,1.5l0,0c-0.9,0-1.7-0.7-1.7-1.5
			v-17.7C1563.8,321.3,1564.6,320.6,1565.5,320.6z"/>
		<path class="st94" d="M1573.6,316.5L1573.6,316.5c0.9,0,1.7,0.7,1.7,1.5v21.7c0,0.8-0.8,1.5-1.7,1.5l0,0c-0.9,0-1.7-0.7-1.7-1.5
			v-21.7C1571.9,317.2,1572.7,316.5,1573.6,316.5z"/>
		<path class="st94" d="M1581,320.6L1581,320.6c0.9,0,1.7,0.7,1.7,1.5v17.7c0,0.8-0.8,1.5-1.7,1.5l0,0c-0.9,0-1.7-0.7-1.7-1.5v-17.7
			C1579.3,321.3,1580.1,320.6,1581,320.6z"/>
		<path class="st101" d="M1589.1,312.5L1589.1,312.5c0.9,0,1.7,0.7,1.7,1.5v25.8c0,0.8-0.8,1.5-1.7,1.5l0,0c-0.9,0-1.7-0.7-1.7-1.5
			V314C1587.4,313.2,1588.2,312.5,1589.1,312.5z"/>
		<path class="st104" d="M1277.7,468.3c0-5.7,5.1-10.3,11.3-10.3v10.3l-7.7,7.5C1279.1,474,1277.7,471.3,1277.7,468.3z"/>
		<path class="st107" d="M1288.6,467.9h11.4c0,2.7-1.2,5.1-3.1,7c-2.1,2-5.1,3.2-8.3,3.2c-3,0-5.7-1.1-7.8-2.8L1288.6,467.9z"/>
		<path class="st101" d="M1300.3,467.9c0-5.6-5.1-10.2-11.3-10.2v10.2H1300.3z M1283.2,458l4.5,9.2l-10.2-4.1
			C1278.6,460.7,1280.8,458.9,1283.2,458z"/>
		<path class="st104" d="M1645.6,472.8c-1.1,1-2.6,1.7-4.3,1.7c-3.3,0-6-2.4-6-5.3c0-3,2.7-5.3,6-5.3v-9.9c-9.4,0-17,6.9-17,15.3
			c0,8.4,7.7,15.3,17,15.3c4.9,0,9.4-1.9,12.4-4.8L1645.6,472.8z"/>
		<path class="st108" d="M1641.3,453.8v9.9c3.3,0,5.9,2.4,5.9,5.3h11C1658.3,460.7,1650.6,453.8,1641.3,453.8z"/>
		<path class="st109" d="M1646.9,469.1c0,1.7-0.9,3.3-2.3,4.3l6.9,7.9c4-2.8,6.6-7.3,6.6-12.2L1646.9,469.1L1646.9,469.1z"/>
		<path class="st104" d="M1537.5,332.5c-0.8,0.8-2,1.3-3.3,1.3c-2.5,0-4.6-1.8-4.6-4.1s2.1-4.1,4.6-4.1V318
			c-7.2,0-13.1,5.3-13.1,11.7s5.9,11.7,13.1,11.7c3.8,0,7.2-1.4,9.5-3.7L1537.5,332.5z"/>
		<path class="st110" d="M1534.2,317.9v7.6c2.5,0,4.6,1.8,4.6,4.1h8.5C1547.2,323.2,1541.3,317.9,1534.2,317.9z"/>
		<path class="st111" d="M1538.9,329.6c0,1.3-0.7,2.5-1.7,3.2l5.2,6c3-2.1,5-5.4,5-9.2H1538.9z"/>
		<path id="Fill-35_1_" class="st101" d="M1331.8,341.4C1331.8,341.4,1331.8,341.4,1331.8,341.4
			C1331.8,341.4,1331.8,341.4,1331.8,341.4"/>
		<path id="Fill-37_1_" class="st101" d="M1331.8,341.4C1331.8,341.4,1331.8,341.4,1331.8,341.4
			C1331.8,341.4,1331.9,341.4,1331.8,341.4"/>
		<path id="Fill-39_1_" class="st101" d="M1331.9,341.3C1331.9,341.3,1331.9,341.4,1331.9,341.3
			C1331.9,341.4,1331.9,341.4,1331.9,341.3C1331.8,341.6,1331.8,341.4,1331.9,341.3"/>
		<path id="Fill-41_1_" class="st101" d="M1331.9,341.4C1331.9,341.4,1331.9,341.4,1331.9,341.4
			C1331.8,341.5,1331.9,341.4,1331.9,341.4"/>
		<path id="Fill-43_1_" class="st101" d="M1332.1,341.4L1332.1,341.4L1332.1,341.4z"/>
		<path id="Fill-45_1_" class="st101" d="M1331.8,341.4L1331.8,341.4L1331.8,341.4"/>
		<path id="Fill-47_1_" class="st101" d="M1331.8,341.4C1331.8,341.4,1331.9,341.4,1331.8,341.4"/>
		<path id="Fill-49_1_" class="st101" d="M1331.8,341.4L1331.8,341.4L1331.8,341.4"/>
		<path id="Photo-Background_1_" class="st112" d="M1306.8,315.1h49.4c1.2,0,2.3,0.9,2.3,2v28.1c0,1.1-1,2-2.3,2h-49.4
			c-1.2,0-2.3-0.9-2.3-2v-28.1C1304.5,316,1305.5,315.1,1306.8,315.1z"/>
		<g id="icons8-night_landscape_1_" transform="translate(8.000000, 18.000000)">
			<polygon id="Mountains_1_" class="st113" points="1317.1,306.3 1301.2,329.2 1332.9,329.2 			"/>
			<polygon class="st114" points="1332.6,312.4 1318.8,329.2 1346.5,329.2 			"/>
		</g>
		<ellipse id="Sun_1_" class="st100" cx="1346.6" cy="325.6" rx="5.1" ry="4.6"/>
		<path class="st101" d="M1601.6,558.8C1601.6,558.8,1601.6,558.8,1601.6,558.8C1601.6,558.8,1601.6,558.8,1601.6,558.8"/>
		<path class="st101" d="M1601.6,558.8L1601.6,558.8C1601.6,558.8,1601.6,558.8,1601.6,558.8"/>
		<path class="st101" d="M1601.5,558.7C1601.6,558.7,1601.6,558.7,1601.5,558.7C1601.6,558.7,1601.6,558.7,1601.5,558.7
			C1601.7,559,1601.6,558.8,1601.5,558.7"/>
		<path class="st101" d="M1601.6,558.8C1601.6,558.8,1601.6,558.8,1601.6,558.8C1601.6,558.8,1601.6,558.8,1601.6,558.8"/>
		<path class="st101" d="M1601.6,558.8L1601.6,558.8L1601.6,558.8z"/>
		<path class="st101" d="M1601.6,558.8L1601.6,558.8L1601.6,558.8"/>
		<path class="st101" d="M1601.6,558.8C1601.6,558.8,1601.6,558.7,1601.6,558.8"/>
		<path class="st101" d="M1601.6,558.8L1601.6,558.8C1601.6,558.8,1601.6,558.8,1601.6,558.8"/>
		<path class="st112" d="M1639.7,519.5h-75.6c-1.2,0-2.3,0.9-2.3,2v43.8c0,1.1,1,2,2.3,2h75.6c1.2,0,2.3-0.9,2.3-2v-43.8
			C1642,520.4,1641,519.5,1639.7,519.5z"/>
		<polygon class="st115" points="1611.9,533.2 1635.1,567.4 1588.7,567.4 		"/>
		<polygon class="st116" points="1588,542.4 1608.5,567.4 1567.5,567.4 		"/>
		<ellipse class="st100" cx="1579.2" cy="535.6" rx="7.6" ry="6.9"/>
		<g>
			<g id="Head_1_" transform="translate(123.000000, 38.000000)">
				<path id="Shape_1_" class="st117" d="M1398.1,382.4c2.6-2.8,4.4-6.1,4.1-9.9c-0.8-10.9-17.7-8.5-21-3
					c-3.3,5.5-2.9,19.4,1.3,20.4c1.7,0.4,5.3-0.6,9-2.6l-2.3,14.6h13.6L1398.1,382.4z"/>
			</g>
			<path id="hair_1_" class="st118" d="M1512,401.3c1.8-0.3,6.6-0.4,7.5-0.4c0.6,0,1.2,0.1,1.5-0.4c0.3-0.4,0.2-1,0.3-1.5
				c0.1-0.5,0.2-1,0.4-1.5c0.4-1.4,1-2.8,1.8-4.1c1.5-2.4,3.8-4.3,6.7-5.4c3.2-1.2,6.7-1.5,10.1-1.3c3.6,0.3,6.9,1.3,10.4,2.4
				c3.3,1,6.7,1.4,10.1,0.9c3.4-0.5,6.1-2.2,9-3.8c3-1.6,6.4-2.7,9.9-2.5c3.3,0.2,6.3,1.4,9,3.1c2.5,1.5,4.6,3.4,5.8,6
				c1.3,2.8,1.3,5.8-0.8,8.3c-3,3.6-8.7,4.5-13.4,4.4c-2.7-0.1-5.4-0.5-7.9-1.3c-3.4-1.1-6.4-2.9-9.6-4.4c-1.5-0.7-3.1-1.3-4.7-1.7
				c-1.6-0.4-3.1-0.6-4.6,0.3c-1.5,0.9-2.9,1.8-4.6,2.4c-1.7,0.5-3.4,0.8-5.2,0.8c-3.4,0-6.8-1-10.2-1.6c-2.7-0.5-5.6-1-8.4-0.5
				c-1.2,0.2-2.8,0.6-3.3,1.7c7,1.1,9.8,9,7.8,14.7c-1.1,3.1-7.5,6.7-10,5.1c-1.6-1-0.6-2.4,0-3.3c1.2-1.7,1.6-3.9-0.6-5.1
				c-1.9-1-3.9,1.4-3.9,1.4c-0.5,0-5.1-2.3-8.2-5.7c-3.1,0.2-3.5-1.7-2.8-3.2S1509.5,401.7,1512,401.3z"/>
		</g>
		<g transform="translate(0.000000, 27.000000)">
			<ellipse id="Ballsy-Ball_1_" class="st119" cx="1531.5" cy="506.6" rx="43.5" ry="37.4"/>
		</g>
		<path id="Skin_1_" class="st117" d="M1449.2,565.2c7.2-14.4,12.5-27,14.6-33.6c3.6-11.4,6.3-21.4,7-25.1c1.7-8.9-12.7-9.4-14.6-5
			c-2.9,6.7-7.9,28.7-13.9,61.9L1449.2,565.2z M1533.2,519.9c-6.6-2.4-29.9-9.8-41.2-11.9c-3.2-0.6-6.4-1.2-9.3-1.7
			c-8.7-1.5-13.3,12.7-4.8,13.8c21,2.7,50.7,5.5,53.2,5.8C1534.7,526.4,1537.4,521.4,1533.2,519.9z"/>
		<path id="Leg-Back_1_" class="st120" d="M1477.4,502.5l36-16.5v-3.6h-4.3c-34.8,8-52.6,13.1-53.3,15.3c0,0,0,0,0,0.1
			c0,0,0,0-0.1,0.1c-6.9,8.5-11,50.2-12.4,53.3l13.2,1.8c5.1-16.9,21.2-28.6,20.8-48.8C1477.4,503.6,1477.4,503.1,1477.4,502.5z"/>
		<path id="Leg-Front_1_" class="st121" d="M1510.4,512.3c3.3-0.6,6.3-1.1,8.9-1.5c16.7-2.6,21.6-10.7,18.7-28.3h-30.9
			c-5,1.3-31.2,11.2-44.8,16.5c-9,3.5-6.2,16-1.1,19.3c0,0.2,0.1,0.3,0.3,0.4c27.4,10.2,49.1,4.9,56.3,6.6l3.3-9.5L1510.4,512.3z"/>
		
			<g transform="translate(86.201565, 97.046949) rotate(64.000000) translate(-86.201565, -97.046949) translate(57.201565, 86.546949)">
			<path id="shoe_1_" class="st100" d="M1041-1103.3c0.9-1.5,1.7-2.6,2.3-3.1c0.8-0.6,2-1.5,3.6-2.4c0.6,0.9,6.3,8.8,17.1,23.9
				c-1.6,2.4-3,2.9-4.1,1.7c-1.1-1.2-2.1-2.2-2.8-3l-12.9-6.9c-0.2-0.1-0.3-0.5-0.2-0.7c0,0,0,0,0,0l1.2-2.2c-0.3-1.7-0.7-3-1.3-3.8
				c-0.5-0.6-1.3-1.3-2.6-2l0,0C1040.9-1102,1040.7-1102.7,1041-1103.3C1041-1103.3,1041-1103.3,1041-1103.3z"/>
		</g>
		<g transform="translate(215.000000, 151.000000)">
			<path class="st100" d="M1237.5,411.3c0.6,1.5,0.9,2.7,0.9,3.4c0,0.9-0.2,2.3-0.5,4c-1.2,0-11.8,0-31.9,0c-0.8-2.5-0.4-3.8,1.4-4
				c1.8-0.2,3.3-0.4,4.5-0.5l14.8-5.9c0.3-0.1,0.6,0,0.7,0.3c0,0,0,0,0,0l0.9,2.1c1.7,0.7,3,1,4,1c0.8,0,2-0.3,3.5-0.9l0,0
				C1236.5,410.5,1237.2,410.8,1237.5,411.3C1237.5,411.3,1237.5,411.3,1237.5,411.3z"/>
		</g>
		<g transform="translate(11.000000, 89.000000)">
			<path class="st117" d="M1467.3,379.5l-20.5-8.1c-3.6-3.2-7.1-5.7-10.4-7.3c-1-0.3-2.7-0.4-0.9,2c1.8,2.4,3.6,5,2.9,5.8
				c-0.7,0.8-2.8-0.1-3.7,1.3c-0.6,0.9,3,2,10.7,3.3l15.3,10.6L1467.3,379.5z M1550.1,381.7l-11.6,2.1
				c11.7,19.6,17.9,29.9,18.7,31.1c1.9,2.6,0.1,7.5-0.5,10c4.1,0.9,2.5-4.7,7.7-3.5c4.7,1.1,8.8,3.8,13.2,0.1
				c0.5-0.5,0.9-1.9-0.9-2.6c-4.6-1.8-11.5-5.2-12.6-6.5C1562.7,410.6,1558,400.4,1550.1,381.7z"/>
			<path id="Coat-Back_1_" class="st122" d="M1507.1,342.7l-4.9-0.8c-10.6,9.3-15,31.6-22.1,34.6c-6.7,2.8-16.2,0.1-27.5-3.6l-3.5,7
				c10.3,10,32.2,18.5,41,13.6C1504.3,385.8,1507.6,358.3,1507.1,342.7z"/>
			<path id="Shirt_1_" class="st94" d="M1528.4,397.7c-19.6,0-34,0-43.3,0c-2,0-1.6-2.6-1.3-3.9c3.3-15,16.2-31.1,16.2-52.4
				l12.5-1.8C1522.8,354.6,1526.3,373,1528.4,397.7z"/>
			<path id="Coat-Front_1_" class="st123" d="M1532.7,382.9c8.8,14.3,16.2,24.6,22.2,30.8l9-1.6c-5.8-32.5-22.7-56.5-50.6-72h-0.1
				h-4.8c-11.2,34.3-14.3,57.1-9.2,68.5h38.8C1537.4,400.3,1535.4,391.5,1532.7,382.9L1532.7,382.9z"/>
		</g>
	</g>
</g>
</svg>
