<?xml version="1.0" encoding="utf-8"?>
<svg viewBox="0 0 690 560" style="enable-background:new 0 0 1920 1080;" xmlns="http://www.w3.org/2000/svg">
  <defs>
    <style type="text/css">
      .st95{fill:#DDE3E9;}
      .st96{fill:#47A067;}
      .st97{fill:#69A1AC;}
      .st98{fill:#89C5CC;}
      .st99{fill:#E3E3FF;}
      .st100{fill:#F2F2FF;}
      .st101{fill:#FFFFFF;}
      .st102{fill:#C5CFD6;}
      .st103{fill:#AFB9C5;}
      .st104{fill:#DDE3FB;}
      .st105{fill:#F2F2F2;}
      .st106{fill:#C5CFF0;}
      .st107{fill:#A57949;}
      .st108{fill:#F4BA73;}
      .st109{fill:#65B1EF;}
      .st110{fill:#F4D5BD;stroke:#F9F68A;stroke-miterlimit:10;}
      .st111{fill:#73B4F4;}
      .st112{fill:#EADC75;}
      .st113{fill:#94D6F7;}
      .st114{fill:#057710;}
      .st115{fill:#16C437;}
      .st116{fill:#6F9E7E;}
      .st117{fill:#74A56F;}
      .st118{fill:#B28B67;}
      .st119{fill:#191847;}
      .st120{fill:#45454C;}
      .st121{fill:#1F28CF;}
      .st122{fill:#2B44FF;}
      .st123{fill:#DB2721;}
      .st124{fill:#FF4133;}
    </style>
  </defs>
  <g style="" transform="matrix(1.126275, 0, 0, 1.304594, -1284.590088, -352.012421)">
    <g style="pointer-events: none;">
      <title>Group 3</title>
      <desc>Created with Sketch.</desc>
      <path id="Twisted-Leaf_1_" class="st95" d="M1723.8,382.9c-0.4-0.3-1.5-0.4-2-0.5c-2.1-0.4-4.2-0.6-6.3-0.6 c-6.5,0-13,0.6-19.4,1.5c-4,0.7-8.9,2.7-12.9,1.6c-7-2-14.1-1.9-20.7,0.9c-6.1,2.6-10.7,7.4-13.3,12.6c-0.4,0.8-2.1,3.7-2.5,5.7 c-0.2,0.5-0.4,0.8-0.6,1.2c-0.5,1.1-0.9,2.4-1.3,3.5c-0.2,0.6-0.6,1.6-0.1,1.9c-0.8,1.3-1.6,2.8-2.2,4.2 c-1.8,4.2-3.7,8.8-4.4,13.3c-0.2,1.7-0.2,3.3,0,4.9c0.1,0.8,0.1,2.5,0.7,3.1c1.3,1.3,2-0.6,1.9-1.4c-1.1-6.7,1.1-13,3.7-19.3 c1.7-4.1,4.5-7.8,7.6-11.2c2.5-2.8,5.2-4.8,8.7-6.7c4.2-2.2,8.7-4,13.2-5.8c2.9-1.1,5.9-2.3,8.9-3.3c0.7-0.3,1.7-0.8,2.5-0.8 c1.6,0,3.8,1,5.3,1.4c5,1.2,10.1,2.9,15.2,3.5c3.3,0.5,6.4-0.1,9.5-1c0.3-0.1,0.8-0.4,1.5-0.7c2.3-0.8,4.5-1.8,6.4-3.2 c1.1-0.8,2.1-1.9,3-2.9c0.3-0.3,0.4-0.7,0.4-0.9c0.2-0.1,0.3-0.2,0.4-0.4C1727.2,382.8,1725.2,382.8,1723.8,382.9"/>
      <path id="Fill-16_1_" class="st95" d="M1199.2,462.6c-1.3,0.9-2.5,1.9-3.7,2.9c-0.9,0.7-2.6,1.6-2.9,2.8c-0.3,1.2,0.7,2.2,1.6,2.9 c4.6,3.7,9.7,6.2,16,6.7c9.7,0.7,18.2-1.6,26.6-5.9c5.9-3,9.8-7.5,10.7-13.6c7,2.6,13.8,6.2,19.6,10.5c2.9,2.1,5.3,4.6,7.6,7.2 c1.5,1.7,2.9,3.4,4.2,5.2c0.6,0.8,1.2,2.1,2.1,2.7c1.1,0.6,2.4-0.3,2.4-1.4c-0.1-0.9-1.2-2-1.7-2.7c-0.9-1.2-1.7-2.5-2.6-3.6 c-1.5-2-3-3.8-4.7-5.7c-3.8-4.1-8.5-7.4-13.5-10.3c-9.5-5.5-19.9-8.9-31.4-9.2c-7.1-0.2-13.1,2-19.1,5.1 C1206.5,458.2,1202.6,460.1,1199.2,462.6"/>
      <path id="Leaf_1_" class="st96" d="M1291.2,436c-7.4-6.7-14.8-13.4-23.1-19.3c-4.9-3.5-10-6.7-15-10c0.6,0.5,1.2,0.9,1.7,1.4 c-1.6-0.9-3.6-1.5-5.3-2.3c-1.8-0.9-3.6-2.1-5.4-3.2c-3.4-2.2-6.7-4.5-10.2-6.5c-3.9-2.3-7.9-4.5-11.9-6.7 c-3.4-1.9-6.8-4-10.3-5.5c-2-0.9-3.9-1.9-5.9-2.8c-0.7-0.3-7.3-4-7.3-4.1c0.4-0.3,3.7,1.1,4.2,1.3c1.5,0.6,3,1.2,4.4,1.9 c-0.8-1.4-1.4-2.9-1.8-4.5c-0.1-0.5-1-4-0.5-4.3c0.2-0.2,2.3,6.1,2.5,6.7c0.1,0.5,0.1,1.1,0.2,1.7c0.3,0.7,0.3,0.6,0.9,0.9 c1.2,0.8,2.7,1.2,4,1.9c0.7,0.4,2.8,1.7,4.1,2c3.8,1.7,7.8,4.3,11.4,6.3c-1-1.6-1.7-3.3-2.2-5c-0.1-0.5-1.5-4.2-1.2-4.4 c0.4-0.3,3,5.4,3.1,6c0.3,0.9,0.3,2.1,0.7,3.1c0.4,1,1.6,1.4,2.7,2c4.1,2.3,8,4.7,11.9,7.3c4.2-6.7-0.7-14.7-4.8-20.3 c-3-4-6.9-7.4-11.2-10.5c-5.6-4-12-7.3-18.4-10.2c-7.5-3.4-15.6-5.6-23.9-6.6c-4.4-0.6-8.9-0.6-13.3-0.4c-2.2,0.1-4.2,0.4-6.3,0.9 c-0.9,0.3-1.8,0.7-2.7,1c-0.7,0.3-2.3,0.7-2.7,1c-3.2,3.6-4.8,7.3-4.6,11.9c0.2,4.4,1.8,8.6,3.9,12.5c2.3,4.4,5.4,8.3,9.3,11.5 c3,2.5,6.4,4.7,9.7,6.8c11.9,7.7,26.9,14.4,42.3,12.5c5-0.6,9.7-2.1,14.1-4.2c1-0.6,2.1-0.9,3.1-1.6c0.7-0.4,2.4-2.1,3.1-2.2 c0.9-0.1,2.9,1.6,3.8,2c6.5,3.8,12.9,7.9,19.1,12.1c6.6,4.5,12.9,9.2,19,14.2c2.6,2.1,5.2,4.3,7.7,6.5c0.6,0.6,2,2.4,3.1,2.5 c0.7,0.1,1.1-0.5,1-0.9C1294.2,438.2,1292,436.7,1291.2,436"/>
      <path id="Fill-10_1_" class="st97" d="M1716.1,409.8c-2.9-0.6-6-0.6-8.9-0.5c-15.6,0.2-31,6.7-41,17.3 c-8.5,8.9-10.8,20.1-12.5,31.3c-0.2,1.1-0.2,2.2-0.3,3.3c0,0.3-0.1,0.5-0.1,0.7c-0.7,0.6-1,1.1-0.6,1.8c-1.5,2.9-2.7,5.8-3.8,8.6 c-3.1,8.7-6.3,17.8-4.3,27.1c0.5-5,1.4-10.3,2.6-15.3c0.1-0.3,0.1-0.6,0.2-0.9v-0.1c0.4-1.5,0.9-3,1.6-4.6l0,0 c0.1-0.2,0.2-0.4,0.3-0.6c0.2-0.5,0.4-0.8,0.6-1.1c0.1-0.1,0.1-0.3,0.2-0.5c0.9-2,1.3-4.4,2.2-6.4c0.2-0.5,0.4-0.9,0.6-1.4v-0.1 c0.6-1.2,1.2-2.6,1.9-3.8c0.4-0.3,0.6-0.9,0.9-1.4c0.1-0.1,0.6-0.9,0.8-1.3c0.4-0.7,0.8-1.4,1.2-2.1l0,0c0.4-0.7,0.8-1.3,1.2-2 c0.1-0.2,0.2-0.3,0.3-0.5c0.2-0.3,0.3-0.5,0.4-0.7c1.4-2.2,2.8-4.4,4.3-6.4c0.5-0.8,1.8-1.9,2.1-2.7v-0.1c3.3-4.1,7-7.8,11.6-10.8 c-0.6,0.6-1.7,2.3-2,2.7c-0.9,1-2,2.1-3,3.1c-1.8,1.8-3.6,3.7-5.2,5.7c-2.9,3.6-5.4,7.4-7.8,11.3c0,0-0.1,0-0.1,0.1 c-1.2,1.3-1.9,3.3-2.8,4.8c3.4-1.4,7.2-2.3,10.6-3.5c3.5-1.2,6.9-2.6,10.1-4.3c4.3-2.1,8.8-4.6,12.9-7.3c4.7-2.6,8.7-6.1,12.1-9.9 c4.1-4.5,7.9-8.8,10.2-14.2c1.2-2.7,2.1-5.4,2.6-8.2c0-0.1,0.1-0.3,0.1-0.4c0.6-0.9,1-2,1.4-2.9 C1717.4,412.2,1719,410.4,1716.1,409.8"/>
      <path class="st98" d="M1230.9,428.5c-0.9-0.9-1.9-1.7-3.1-2.2c-0.3-0.2-2.5-1-2.7-0.9C1224.8,425.9,1230.6,428.2,1230.9,428.5 M1241.4,422.8c0,0,0.8,1.2,1,1.6c0.4,0.8,0.9,1.5,1.2,2.3C1243.1,425.2,1242.5,424,1241.4,422.8 M1187.4,432.2 c-0.7,0.2-1.6-0.7-0.7-0.8c0.8-0.2,0.7-0.2,1.1-0.8c0.3-0.5,0.5-0.9,0.7-1.5c0.5-0.9,1.1-2,1.9-2.9c1.6-2,3.5-3.5,5.7-4.9 c3.8-2.5,8-4.7,12.5-5.8c7.1-1.8,15.2-1.9,22.4-0.7c4.4,0.8,8.5,2.1,11.4,5.2c1.5,1.6,2.6,3.4,3.1,5.5c0.1,0.6,0.1,1.1,0.3,1.7 c0.2,0.8,0.1,0.7,1.2,0.7c1.2,0.2,2.3,0.4,3.5,0.6c3,0.5,6.1,0.9,9,1.7c1,0.3,1.9,0.6,2.8,0.9c0.7,0.3,3.5,1,3.8,1.9 c0.6,1.3-1.3,0.7-1.9,0.5c-0.5-0.3-1-0.6-1.6-0.7c-1.3-0.6-2.8-0.9-4.2-1.3c-1.6-0.4-3.1-0.7-4.7-0.9c-1.5-0.3-2.9-0.5-4.4-0.7 c-0.8-0.1-1.6-0.3-2.5-0.4c-0.3,0-0.8-0.3-0.7,0.1c-1.7-0.3-3.6-0.3-5.4-0.4c-2.2-0.1-4.3-0.2-6.5-0.1c-1.6,0-3.1,0.1-4.7,0.4 c-0.9,0.1-1.8,0.3-2.7,0.5c-0.5,0.1-2.4,0.4-2.7,0.7c0.1-0.2,2.2,0,2.5,0c1.1,0,2.2-0.1,3.2-0.3c2-0.2,4-0.3,6-0.3 c0,0.4-1.4,0.9-1.7,1c-0.8,0.5-1.5,0.9-2.1,1.5c-1.2,0.9-2.6,2.2-3.4,3.3c0.2-0.4,1.4-0.8,1.8-1c0.7-0.5,1.3-0.9,2-1.3 c0.6-0.5,1.1-0.9,1.7-1.4c0.6-0.6,1.2-1.5,1.9-1.8c0,0,0.3,0.2,0.5,0.1c0.2-0.1,0.4-0.5,0.4-0.5c0.7-0.2,1.9,0.1,2.6,0.1 c1.8,0.1,3.5,0.2,5.3,0.3c0.6,0,1-0.1,1.2,0.3s-0.2,1.4-0.3,1.8c-0.4,1.5-1.2,2.9-2.4,4.2c-2.2,2.2-5,3.7-8.1,4.7 c-11.9,3.8-24.6,5.3-36.5,1.4C1194,440.9,1186.5,438,1187.4,432.2"/>
      <path id="Background-Shape_1_" class="st99" d="M1732.7,612.7c8.1,48.6-188.4,80.3-357.5,58.3c-169.1-22-246.7-108.6-166-154.6 C1289.9,470.2,1724.6,564.1,1732.7,612.7z"/>
      <path id="Container_1_" class="st100" d="M1267.6,293.3h119.6c3.7,0,6.7,2.7,6.7,5.9v213.3c0,3.3-3,5.9-6.7,5.9h-119.6 c-3.7,0-6.7-2.7-6.7-5.9V299.3C1260.9,296,1263.9,293.3,1267.6,293.3z"/>
      <ellipse id="Touch_1_" class="st101" cx="1326.6" cy="493.5" rx="12.6" ry="11.2"/>
      <g id="Camera_1_" transform="translate(64.000000, 16.000000)">
        <ellipse id="Lens_1_" class="st101" cx="1251.7" cy="291.4" rx="1.7" ry="1.5"/>
        <path id="Sensor_1_" class="st101" d="M1259.2,289.8h14.3c0.9,0.1,1.7,0.8,1.7,1.6l0,0c0,0.8-0.8,1.5-1.7,1h-14.3 c-0.9,0.5-1.7-0.3-1.7-1l0,0C1257.5,290.5,1258.3,289.9,1259.2,289.8z"/>
      </g>
      <g id="Rows_1_" transform="translate(14.000000, 28.000000)">
        <g id="Row_1_">
          <path id="Background_1_" class="st101" d="M1261.3,286.6h103.3c1.8,0,3.4,1.3,3.4,3v33.9c0,1.7-1.5,3-3.4,3h-103.3 c-1.8,0-3.4-1.3-3.4-3v-33.9C1257.9,287.9,1259.4,286.6,1261.3,286.6z"/>
          <g id="Text_1_" transform="translate(39.000000, 16.200000)">
            <path id="Name_1_" class="st95" d="M1254.4,282.9h56c1.4,0,2.5,0.9,2.5,2.2v1.8c0,1.2-1.1,2.2-2.5,2.2h-56 c-1.4,0-2.5-0.9-2.5-2.2v-1.8C1251.9,283.8,1253,282.9,1254.4,282.9z"/>
            <path class="st95" d="M1254.4,292.7h36c1.4,0,2.5,0.9,2.5,2.2v1.8c0,1.2-1.1,2.2-2.5,2.2h-36c-1.4,0-2.5-0.9-2.5-2.2v-1.8 C1251.9,293.6,1253,292.7,1254.4,292.7z"/>
          </g>
          <ellipse id="Avatar_1_" class="st102" cx="1275.6" cy="307" rx="10.1" ry="8.9"/>
        </g>
        <g transform="translate(0.000000, 62.000000)">
          <path class="st101" d="M1261.3,270.7h103.3c1.8,0,3.4,1.3,3.4,3v25.1c0,1.7-1.5,3-3.4,3h-103.3c-1.8,0-3.4-1.3-3.4-3v-25.1 C1257.9,272,1259.4,270.7,1261.3,270.7z"/>
          <g transform="translate(39.000000, 12.600000)">
            <path class="st95" d="M1254.4,267.9h56c1.4,0,2.5,0.9,2.5,2.2l0,0c0,1.2-1.1,2.2-2.5,2.2h-56c-1.4,0-2.5-0.9-2.5-2.2l0,0 C1251.9,268.8,1253,267.9,1254.4,267.9z"/>
            <path class="st95" d="M1254.4,275.9h36c1.4,0,2.5,0.9,2.5,2.2l0,0c0,1.2-1.1,2.2-2.5,2.2h-36c-1.4,0-2.5-0.9-2.5-2.2l0,0 C1251.9,276.8,1253,275.9,1254.4,275.9z"/>
          </g>
          <ellipse class="st102" cx="1275.6" cy="286.6" rx="10.1" ry="8.9"/>
        </g>
        <g transform="translate(0.000000, 112.000000)">
          <path class="st101" d="M1261.3,258h103.3c1.8,0,3.4,1.3,3.4,3v25.1c0,1.7-1.5,3-3.4,3h-103.3c-1.8,0-3.4-1.3-3.4-3V261 C1257.9,259.3,1259.4,258,1261.3,258z"/>
          <g transform="translate(39.000000, 12.600000)">
            <path class="st95" d="M1254.4,255.2h56c1.4,0,2.5,0.9,2.5,2.2l0,0c0,1.2-1.1,2.2-2.5,2.2h-56c-1.4,0-2.5-0.9-2.5-2.2l0,0 C1251.9,256.1,1253,255.2,1254.4,255.2z"/>
            <path class="st95" d="M1254.4,263.1h36c1.4,0,2.5,0.9,2.5,2.2l0,0c0,1.2-1.1,2.2-2.5,2.2h-36c-1.4,0-2.5-0.9-2.5-2.2l0,0 C1251.9,264.1,1253,263.1,1254.4,263.1z"/>
          </g>
          <ellipse class="st103" cx="1275.6" cy="273.7" rx="10.1" ry="8.9"/>
        </g>
        <g transform="translate(0.000000, 162.000000)">
          <path class="st101" d="M1261.3,245.2h103.3c1.8,0,3.4,1.3,3.4,3v25.1c0,1.7-1.5,3-3.4,3h-103.3c-1.8,0-3.4-1.3-3.4-3v-25.1 C1257.9,246.6,1259.4,245.2,1261.3,245.2z"/>
          <g transform="translate(39.000000, 12.600000)">
            <path class="st95" d="M1254.4,242.4h56c1.4,0,2.5,0.9,2.5,2.2l0,0c0,1.2-1.1,2.2-2.5,2.2h-56c-1.4,0-2.5-0.9-2.5-2.2l0,0 C1251.9,243.4,1253,242.4,1254.4,242.4z"/>
            <path class="st95" d="M1254.4,250.4h36c1.4,0,2.5,0.9,2.5,2.2l0,0c0,1.2-1.1,2.2-2.5,2.2h-36c-1.4,0-2.5-0.9-2.5-2.2l0,0 C1251.9,251.3,1253,250.4,1254.4,250.4z"/>
          </g>
          <ellipse class="st102" cx="1275.6" cy="261" rx="10.1" ry="8.9"/>
        </g>
      </g>
      <g id="Group_1_" transform="translate(0.000000, 218.000000)">
        <path class="st98" d="M1285.6,257.6c-1.1,0-2.2,0-3.3,0.1c-0.8,0-2.1-0.1-2.9,0.4c-0.7,0.5-0.7,1.5-0.6,2.2 c0.6,3.7,2.1,7,5.2,9.7c4.8,4.1,10.4,6.1,16.9,7c4.6,0.7,8.9-0.3,12.2-3.2c2.5,4.1,4.4,8.6,5.3,13.1c0.5,2.2,0.6,4.5,0.5,6.7 c-0.1,1.4-0.1,2.9-0.3,4.5c-0.1,0.7-0.4,1.6-0.2,2.2c0.3,0.7,1.4,0.8,1.9,0.2c0.4-0.6,0.3-1.5,0.4-2c0.1-0.9,0.3-2,0.4-2.9 c0.2-1.6,0.3-3.2,0.3-4.8c0-3.6-0.9-7.2-2.2-10.6c-2.4-6.6-6.2-12.5-12.2-16.9c-3.7-2.9-7.9-4-12.7-4.6 C1291.6,258,1288.6,257.6,1285.6,257.6"/>
        <path id="Fill-18_1_" class="st98" d="M1302.7,283.7c-12,0-20.1,8.6-23.9,17.5c-1.4,3.3-1.8,7.1-2.3,10.5 c-0.2,1.1-0.1,2.9-0.6,3.9c-0.2,0.4-0.6,0.6-0.4,0.9c0.1,0.3,0.4,0.5,0.7,0.6c0.8,0.1,1.8-0.7,2.5-0.9c5.4-2.4,8.9-6.1,11.8-10.6 c1.8-2.9,3.6-5.7,4.7-8.7c0.7-1.9,1-3.9,1.2-5.8c0.1-0.8,0.2-1.6,0.2-2.3c0-0.8-0.4-1.1-0.7-1.9c4-1.3,8.5-1.7,12.6-0.4 c3.8,1.3,6.9,3.8,8.6,6.9c0.4,0.8,0.8,1.7,1.1,2.6c0.2,0.6,0.2,1.3,0.5,1.9c0.8,1.2,2.3,0.5,2.2-0.8c-0.4-3.3-2.5-6.6-5.2-8.7 C1312.1,285.4,1307.5,283.7,1302.7,283.7"/>
      </g>
      <path class="st104" d="M1322.6,312.9h119.6c3.7,0,6.7,2.7,6.7,5.9v213.3c0,3.3-3,5.9-6.7,5.9h-119.6c-3.7,0-6.7-2.7-6.7-5.9V318.8 C1315.9,315.6,1318.9,312.9,1322.6,312.9z"/>
      <ellipse class="st101" cx="1382" cy="512.8" rx="12.6" ry="11.2"/>
      <g transform="translate(112.000000, 16.000000)">
        <ellipse class="st101" cx="1259.1" cy="310.7" rx="1.7" ry="1.5"/>
        <path class="st101" d="M1266.6,309.3h14.3c0.9-0.1,1.7,0.7,1.7,1.4l0,0c0,0.8-0.8,1.5-1.7,1.2h-14.3c-0.9,0.3-1.7-0.5-1.7-1.2 l0,0C1264.9,309.9,1265.7,309.2,1266.6,309.3z"/>
      </g>
      <g transform="translate(62.000000, 28.000000)">
        <g>
          <path class="st101" d="M1269.3,306.2h103.3c1.8,0,3.4,1.3,3.4,3v33.9c0,1.7-1.5,3-3.4,3h-103.3c-1.8,0-3.4-1.3-3.4-3v-33.9 C1265.9,307.5,1267.4,306.2,1269.3,306.2z"/>
          <g id="Text-Stuff_1_" transform="translate(9.000000, 16.200000)">
            <path id="Label_1_" class="st95" d="M1266.4,302.3h56c1.4,0,2.5,0.9,2.5,2.2v1.8c0,1.2-1.1,2.2-2.5,2.2h-56 c-1.4,0-2.5-0.9-2.5-2.2v-1.8C1263.9,303.3,1265,302.3,1266.4,302.3z"/>
            <path class="st95" d="M1266.4,312.1h36c1.4,0,2.5,0.9,2.5,2.2v1.8c0,1.2-1.1,2.2-2.5,2.2h-36c-1.4,0-2.5-0.9-2.5-2.2v-1.8 C1263.9,313.1,1265,312.1,1266.4,312.1z"/>
          </g>
          <g id="Check_1_" transform="translate(110.000000, 20.000000)">
            <ellipse class="st95" cx="1253.6" cy="306.2" rx="5.9" ry="5.2"/>
            <ellipse id="Indicator_1_" class="st105" cx="1253.6" cy="306.2" rx="2.5" ry="2.2"/>
          </g>
        </g>
        <g transform="translate(0.000000, 62.000000)">
          <path class="st101" d="M1269.3,290.3h103.3c1.8,0,3.4,1.3,3.4,3v25.1c0,1.7-1.5,3-3.4,3h-103.3c-1.8,0-3.4-1.3-3.4-3v-25.1 C1265.9,291.6,1267.4,290.3,1269.3,290.3z"/>
          <g transform="translate(39.000000, 12.600000)">
            <path class="st95" d="M1261.4,287.4h56c1.4,0,2.5,0.9,2.5,2.2l0,0c0,1.2-1.1,2.2-2.5,2.2h-56c-1.4,0-2.5-0.9-2.5-2.2l0,0 C1258.9,288.4,1260,287.4,1261.4,287.4z"/>
            <path class="st95" d="M1261.4,295.4h36c1.4,0,2.5,0.9,2.5,2.2l0,0c0,1.2-1.1,2.2-2.5,2.2h-36c-1.4,0-2.5-0.9-2.5-2.2l0,0 C1258.9,296.4,1260,295.4,1261.4,295.4z"/>
          </g>
          <ellipse class="st102" cx="1283" cy="306" rx="10.1" ry="8.9"/>
        </g>
        <g transform="translate(0.000000, 112.000000)">
          <path class="st101" d="M1269.3,277.5h103.3c1.8,0,3.4,1.3,3.4,3v25.1c0,1.7-1.5,3-3.4,3h-103.3c-1.8,0-3.4-1.3-3.4-3v-25.1 C1265.9,278.8,1267.4,277.5,1269.3,277.5z"/>
          <g transform="translate(9.000000, 12.600000)">
            <path class="st95" d="M1266.4,274.6h56c1.4,0,2.5,0.9,2.5,2.2l0,0c0,1.2-1.1,2.2-2.5,2.2h-56c-1.4,0-2.5-0.9-2.5-2.2l0,0 C1263.9,275.6,1265,274.6,1266.4,274.6z"/>
            <path class="st103" d="M1266.4,282.6h36c1.4,0,2.5,0.9,2.5,2.2l0,0c0,1.2-1.1,2.2-2.5,2.2h-36c-1.4,0-2.5-0.9-2.5-2.2l0,0 C1263.9,283.6,1265,282.6,1266.4,282.6z"/>
          </g>
          <g transform="translate(110.000000, 14.000000)">
            <ellipse class="st95" cx="1253.6" cy="279.2" rx="5.9" ry="5.2"/>
            <ellipse class="st105" cx="1253.6" cy="279.2" rx="2.5" ry="2.2"/>
          </g>
        </g>
        <g transform="translate(0.000000, 162.000000)">
          <path class="st101" d="M1269.3,264.7h103.3c1.8,0,3.4,1.3,3.4,3v25.1c0,1.7-1.5,3-3.4,3h-103.3c-1.8,0-3.4-1.3-3.4-3v-25.1 C1265.9,266,1267.4,264.7,1269.3,264.7z"/>
          <g transform="translate(39.000000, 12.600000)">
            <path class="st95" d="M1261.4,261.9h56c1.4,0,2.5,0.9,2.5,2.2l0,0c0,1.2-1.1,2.2-2.5,2.2h-56c-1.4,0-2.5-0.9-2.5-2.2l0,0 C1258.9,262.8,1260,261.9,1261.4,261.9z"/>
            <path class="st95" d="M1261.4,269.9h36c1.4,0,2.5,0.9,2.5,2.2l0,0c0,1.2-1.1,2.2-2.5,2.2h-36c-1.4,0-2.5-0.9-2.5-2.2l0,0 C1258.9,270.8,1260,269.9,1261.4,269.9z"/>
          </g>
          <ellipse class="st102" cx="1283" cy="280.3" rx="10.1" ry="8.9"/>
        </g>
      </g>
      <path class="st100" d="M1377.6,332.4h267.6c3.7,0,6.7,2.7,6.7,5.9v245.2c0,3.3-3,5.9-6.7,5.9h-267.6c-3.7,0-6.7-2.7-6.7-5.9V338.3 C1370.9,335,1373.9,332.4,1377.6,332.4z"/>
      <path class="st101" d="M1586.6,364.3h45.6c3.7,0,6.7,2.7,6.7,5.9v48.4c0,3.3-3,5.9-6.7,5.9h-45.6c-3.7,0-6.7-2.7-6.7-5.9v-48.4 C1579.9,367,1582.9,364.3,1586.6,364.3z"/>
      <g id="Profile-Info_1_" transform="translate(259.000000, 58.000000)">
        <ellipse class="st95" cx="1350.5" cy="329" rx="13.4" ry="11.9"/>
        <path class="st95" d="M1332.1,343.6h36.7c1.4,0,2.5,0.9,2.5,2.2l0,0c0,1.2-1.1,2.2-2.5,2.2h-36.7c-1.4,0-2.5-0.9-2.5-2.2l0,0 C1329.7,344.5,1330.8,343.6,1332.1,343.6z"/>
        <path class="st95" d="M1338.8,351.5h23.3c1.4,0,2.5,0.9,2.5,2.2l0,0c0,1.2-1.1,2.2-2.5,2.2h-23.3c-1.4,0-2.5-0.9-2.5-2.2l0,0 C1336.3,352.5,1337.4,351.5,1338.8,351.5z"/>
      </g>
      <path id="Header_1_" class="st106" d="M1377.6,331.5h267.6c3.7,0,6.7,2.7,6.7,5.9v14.4h-281v-14.4 C1370.9,334.2,1373.9,331.5,1377.6,331.5z"/>
      <g id="Buttons_1_" transform="translate(9.000000, 10.000000)">
        <ellipse id="buttons_1_" class="st105" cx="1373" cy="332.3" rx="3.4" ry="3"/>
        <ellipse class="st105" cx="1383.1" cy="332.3" rx="3.4" ry="3"/>
        <ellipse class="st105" cx="1393.1" cy="332.3" rx="3.4" ry="3"/>
      </g>
      <g id="Components_1_" transform="translate(249.000000, 132.000000)">
        <path class="st101" d="M1337.6,297.9h45.6c3.7,0,6.7,2.7,6.7,5.9v132.7c0,3.3-3,5.9-6.7,5.9h-45.6c-3.7,0-6.7-2.7-6.7-5.9V303.9 C1330.9,300.6,1333.9,297.9,1337.6,297.9z"/>
        <g transform="translate(18.000000, 18.000000)">
          <path id="Data_1_" class="st95" d="M1331.3,293.2h22.3c1.8,0,3.4,1.3,3.4,3v13.6c0,1.7-1.5,3-3.4,3h-22.3c-1.8,0-3.4-1.3-3.4-3 v-13.6C1327.9,294.5,1329.4,293.2,1331.3,293.2z"/>
          <path class="st103" d="M1331.3,319h22.3c1.8,0,3.4,1.3,3.4,3v12.6c0,1.7-1.5,3-3.4,3h-22.3c-1.8,0-3.4-1.3-3.4-3v-12.6 C1327.9,320.3,1329.4,319,1331.3,319z"/>
          <path class="st95" d="M1331.3,343.8h22.3c1.8,0,3.4,1.3,3.4,3v12.6c0,1.7-1.5,3-3.4,3h-22.3c-1.8,0-3.4-1.3-3.4-3v-12.6 C1327.9,345.1,1329.4,343.8,1331.3,343.8z"/>
          <path class="st95" d="M1331.3,392.5h22.3c1.8,0,3.4,1.3,3.4,3v12.6c0,1.7-1.5,3-3.4,3h-22.3c-1.8,0-3.4-1.3-3.4-3v-12.6 C1327.9,393.9,1329.4,392.5,1331.3,392.5z"/>
          <path class="st102" d="M1331.3,367.7h22.3c1.8,0,3.4,1.3,3.4,3v12.6c0,1.7-1.5,3-3.4,3h-22.3c-1.8,0-3.4-1.3-3.4-3v-12.6 C1327.9,369.1,1329.4,367.7,1331.3,367.7z"/>
        </g>
      </g>
      <g transform="translate(16.000000, 44.000000)">
        <g>
          <path class="st101" d="M1372.3,321.2h182.3c1.8,0,3.4,1.3,3.4,3v28.6c0,1.7-1.5,3-3.4,3h-182.3c-1.8,0-3.4-1.3-3.4-3v-28.6 C1368.9,322.5,1370.4,321.2,1372.3,321.2z"/>
          <g transform="translate(9.000000, 14.100000)">
            <path class="st95" d="M1369.4,316.9h135c1.4,0,2.5,0.9,2.5,2.2v0.9c0,1.2-1.1,2.2-2.5,2.2h-135c-1.4,0-2.5-0.9-2.5-2.2v-0.9 C1366.9,317.8,1368,316.9,1369.4,316.9z"/>
            <path class="st95" d="M1369.4,325.7h89c1.4,0,2.5,0.9,2.5,2.2v0.9c0,1.2-1.1,2.2-2.5,2.2h-89c-1.4,0-2.5-0.9-2.5-2.2v-0.9 C1366.9,326.7,1368,325.7,1369.4,325.7z"/>
          </g>
          <g transform="translate(193.954198, 16.500000)">
            <ellipse class="st95" cx="1343.2" cy="321.6" rx="5.9" ry="5.2"/>
            <ellipse class="st105" cx="1343.2" cy="321.6" rx="2.5" ry="2.2"/>
          </g>
        </g>
        <g transform="translate(0.000000, 55.000000)">
          <path class="st101" d="M1372.3,306.1h182.3c1.8,0,3.4,1.3,3.4,3v23.3c0,1.7-1.5,3-3.4,3h-182.3c-1.8,0-3.4-1.3-3.4-3v-23.3 C1368.9,307.4,1370.4,306.1,1372.3,306.1z"/>
          <g transform="translate(9.000000, 11.700000)">
            <path class="st95" d="M1368.3,303.2H1506c1.4,0,2.5,0.9,2.5,2.2l0,0c0,1.2-1.1,2.2-2.5,2.2h-137.7c-1.4,0-2.5-0.9-2.5-2.2l0,0 C1365.8,304.2,1366.9,303.2,1368.3,303.2z"/>
            <path class="st95" d="M1368.7,311.2h90.8c1.4,0,2.5,0.9,2.5,2.2l0,0c0,1.2-1.1,2.2-2.5,2.2h-90.8c-1.4,0-2.5-0.9-2.5-2.2l0,0 C1366.2,312.2,1367.3,311.2,1368.7,311.2z"/>
          </g>
          <g transform="translate(193.954198, 12.500000)">
            <ellipse class="st95" cx="1343.2" cy="308.6" rx="5.9" ry="5.2"/>
            <ellipse class="st105" cx="1343.2" cy="308.6" rx="2.5" ry="2.2"/>
          </g>
        </g>
        <g transform="translate(0.000000, 102.000000)">
          <path class="st101" d="M1372.3,294.5h182.3c1.8,0,3.4,1.3,3.4,3v23.3c0,1.7-1.5,3-3.4,3h-182.3c-1.8,0-3.4-1.3-3.4-3v-23.3 C1368.9,295.9,1370.4,294.5,1372.3,294.5z"/>
          <g transform="translate(9.000000, 11.700000)">
            <path class="st95" d="M1368.3,291.7H1506c1.4,0,2.5,0.9,2.5,2.2l0,0c0,1.2-1.1,2.2-2.5,2.2h-137.7c-1.4,0-2.5-0.9-2.5-2.2l0,0 C1365.8,292.7,1366.9,291.7,1368.3,291.7z"/>
            <path class="st95" d="M1368.7,298.8h90.8c1.4,0,2.5,0.9,2.5,2.2l0,0c0,1.2-1.1,2.2-2.5,2.2h-90.8c-1.4,0-2.5-0.9-2.5-2.2l0,0 C1366.2,299.8,1367.3,298.8,1368.7,298.8z"/>
          </g>
          <g transform="translate(193.954198, 12.500000)">
            <ellipse class="st95" cx="1343.2" cy="296.6" rx="5.9" ry="5.2"/>
            <ellipse class="st103" cx="1343.2" cy="296.6" rx="2.5" ry="2.2"/>
          </g>
        </g>
        <g transform="translate(0.000000, 243.000000)">
          <path class="st101" d="M1372.3,258.2h182.3c1.8,0,3.4,1.3,3.4,3v23.3c0,1.7-1.5,3-3.4,3h-182.3c-1.8,0-3.4-1.3-3.4-3v-23.3 C1368.9,259.5,1370.4,258.2,1372.3,258.2z"/>
          <g transform="translate(9.000000, 11.700000)">
            <path class="st95" d="M1368.3,255.3H1506c1.4,0,2.5,0.9,2.5,2.2l0,0c0,1.2-1.1,2.2-2.5,2.2h-137.7c-1.4,0-2.5-0.9-2.5-2.2l0,0 C1365.8,256.3,1366.9,255.3,1368.3,255.3z"/>
            <path class="st95" d="M1368.7,262.5h90.8c1.4,0,2.5,0.9,2.5,2.2l0,0c0,1.2-1.1,2.2-2.5,2.2h-90.8c-1.4,0-2.5-0.9-2.5-2.2l0,0 C1366.2,263.4,1367.3,262.5,1368.7,262.5z"/>
          </g>
          <g transform="translate(193.954198, 12.500000)">
            <ellipse class="st95" cx="1343.2" cy="260.6" rx="5.9" ry="5.2"/>
            <ellipse class="st105" cx="1343.2" cy="260.6" rx="2.5" ry="2.2"/>
          </g>
        </g>
        <g transform="translate(0.000000, 196.000000)">
          <path class="st101" d="M1372.3,270.6h182.3c1.8,0,3.4,1.3,3.4,3v23.3c0,1.7-1.5,3-3.4,3h-182.3c-1.8,0-3.4-1.3-3.4-3v-23.3 C1368.9,271.9,1370.4,270.6,1372.3,270.6z"/>
          <g transform="translate(9.000000, 11.700000)">
            <path class="st95" d="M1368.3,267.7H1506c1.4,0,2.5,0.9,2.5,2.2l0,0c0,1.2-1.1,2.2-2.5,2.2h-137.7c-1.4,0-2.5-0.9-2.5-2.2l0,0 C1365.8,268.8,1366.9,267.7,1368.3,267.7z"/>
            <path class="st95" d="M1368.7,274.9h90.8c1.4,0,2.5,0.9,2.5,2.2l0,0c0,1.2-1.1,2.2-2.5,2.2h-90.8c-1.4,0-2.5-0.9-2.5-2.2l0,0 C1366.2,275.8,1367.3,274.9,1368.7,274.9z"/>
          </g>
          <g transform="translate(193.954198, 12.500000)">
            <ellipse class="st95" cx="1343.2" cy="272.5" rx="5.9" ry="5.2"/>
            <ellipse class="st105" cx="1343.2" cy="272.5" rx="2.5" ry="2.2"/>
          </g>
        </g>
        <g transform="translate(0.000000, 149.000000)">
          <path class="st101" d="M1372.3,282.1h182.3c1.8,0,3.4,1.3,3.4,3v23.3c0,1.7-1.5,3-3.4,3h-182.3c-1.8,0-3.4-1.3-3.4-3v-23.3 C1368.9,283.5,1370.4,282.1,1372.3,282.1z"/>
          <g transform="translate(9.000000, 11.700000)">
            <path class="st95" d="M1368.3,279.3H1506c1.4,0,2.5,0.9,2.5,2.2l0,0c0,1.2-1.1,2.2-2.5,2.2h-137.7c-1.4,0-2.5-0.9-2.5-2.2l0,0 C1365.8,280.2,1366.9,279.3,1368.3,279.3z"/>
            <path class="st95" d="M1368.7,286.4h90.8c1.4,0,2.5,0.9,2.5,2.2l0,0c0,1.2-1.1,2.2-2.5,2.2h-90.8c-1.4,0-2.5-0.9-2.5-2.2l0,0 C1366.2,287.4,1367.3,286.4,1368.7,286.4z"/>
          </g>
          <g transform="translate(193.954198, 12.500000)">
            <ellipse class="st95" cx="1343.2" cy="284.6" rx="5.9" ry="5.2"/>
            <ellipse class="st105" cx="1343.2" cy="284.6" rx="2.5" ry="2.2"/>
          </g>
        </g>
      </g>
      <path id="Fill-1_1_" class="st96" d="M1722,458.7c-3.3-2-7.7-2.5-11.7-2.5c-15.5,0-30,5-42.6,12.6c-6.9,4.2-13.1,9.5-18.5,15 c-3.1,3.2-5.9,6.7-7.9,10.5c-1.3,2.6-2.3,5.3-2.9,8.1c-0.8,3.3-1.4,6.8-1.6,10.3c-0.1,1.3-1,8.6,1.6,8.6c0,0.2,0,0.4,0,0.6 c-5.5,7.6-8.9,16.5-12.1,25.1c-2.8,7.3-5.2,14.9-6.8,22.5c-2.1,10.1-3.5,20.3-4.1,30.5c-0.1,2.2-0.2,4.5-0.3,6.6 c-0.1,1.9-0.1,3.7-0.2,5.6c-0.1,2.1-0.5,4.6-0.1,6.7c0.3,1.8,2.1,1.5,2.2-0.3c0.1-2.2,0.1-4.4,0.2-6.6c0.1-2.9,0.3-5.8,0.4-8.6 c1.1-20.1,5.3-40.1,13-59c3.1-7.7,6.7-15,11.3-22.1c4.1-6.3,8.9-12.4,13.9-18c4.8-5.5,9.9-10.8,15.8-15.5 c4.8-3.8,10.1-7.1,15.5-10.1c6.9-3.9,13.8-7.7,21.3-10.6c3.9-1.6,7.8-2.9,11.8-4.5c0.7-0.3,1.5-0.6,2.1-0.8 C1724.5,461.4,1723.8,459.7,1722,458.7"/>
      <path id="Fill-20_1_" class="st96" d="M1659.7,529.2c6.3,0,11.9,0.7,17.7,2.9c5,2,9.5,4.5,14,7.2c6.2,3.9,11.1,8.4,14.5,14.4 c2.1,3.5,3.6,8.6,2.2,12.5c-1.6,4.6-6.1,8.5-11.9,7.6c-3.6-0.6-6.9-2.7-9.7-4.6c-3.3-2.4-5.9-5.2-8.1-8.5 c-3.6-5.2-5.6-11.1-8.7-16.5c-1.4-2.6-2.8-5.1-4.5-7.6c-0.8-1.2-1.8-2.4-3-3.3c-0.7-0.5-3.6-1.3-2.5-2.4 c-16.3,0.2-30.7,11.2-33.8,25c-0.3,1.2-0.5,2.6-0.8,3.8c-0.2,0.8-0.1,3.8-0.9,4.4c-1.8,1.1-1.1-2.3-1-2.9c0.2-1.3,0.4-2.6,0.6-3.9 c1.2-7,4.8-13.6,10.6-18.5C1641.1,532.9,1650.2,529.2,1659.7,529.2"/>
      <path id="Fill-19_1_" class="st96" d="M1207.3,511.8c15.7,23.3,33.9,45.9,44.9,71.4c-0.4-3-0.9-6-1.4-9 c-2.8-15.9-6.2-31.6-9.9-47.4c-1.8-8-3.8-16.1-5.8-24c-1.1-4.3-2.2-8.6-3.2-12.8c-0.3-1-0.5-2.9-0.8-4.7 c10.7,31,20.9,62,28.4,93.7c1,4.2,1.8,8.4,2.5,12.5c0.2-0.9,0.5-1.9,0.7-2.9c3-11.3,7.6-22.5,13-33.2c2.6-5,5.6-10,9.1-14.6 c2.2-2.9,7.3-6.3,9.3-9.2c-10.9,17.8-14.9,40-21.2,59.3c-1.5,4.7-3.1,9.4-4.6,14.1c9.5-16.9,24.3-30.8,44.8-36.8 c-24.8,14.5-39.7,40-49.8,66.1c0,0.3-0.1,0.7-0.1,0.9c2.9-4.9,6.7-9.5,11.7-12.5c10.8-6.7,22.8-4.8,33.2,0.9 c-8.2-4.6-23.1-0.5-30,4.3c-4.9,3.3-9.2,7.9-12.8,12.4c-0.9,1-2.1,2.3-3.3,3.6c-1.8,10.2-4.7,20.4-8.8,30.5 c0.7-2.9,0.2-7.5,0.4-9.7c0-0.3,0-0.5,0.1-0.7c-0.6,2.2-1.2,4.5-1.8,6.6c1.2-4.1,1.8-8.5,2.3-12.6c0.1-1.9,0.2-3.7,0.4-5.6 c0-3.5-0.2-7.1-0.5-10.6c-1-3.4-2.1-6.7-3-9.4c-3.3-9.8-8.1-19.1-14-27.8c-5.4-8-11.8-15.2-19.3-21.7c-4-3.5-8.2-6.8-12.3-10.3 c-1.5-1.2-4.2-4.3-6.5-5.8c16.9,8.3,34.2,17.1,46.5,30.4c-1.4-4.8-3-9.8-4.7-14.4C1232.4,558.6,1221.8,533.7,1207.3,511.8z"/>
      <path id="Base_1_" class="st107" d="M1224.1,643.7c0,26.7,2.4,48.4,34.4,48.4s34.4-21.7,34.4-48.4"/>
      <path id="Value_1_" class="st95" d="M1583.4,300L1583.4,300c1.4,0,2.5,0.9,2.5,2.2v14c0,1.2-1.1,2.2-2.5,2.2l0,0 c-1.4,0-2.5-0.9-2.5-2.2v-14C1580.9,301,1582,300,1583.4,300z"/>
      <path class="st95" d="M1595.4,288.1L1595.4,288.1c1.4,0,2.5,0.9,2.5,2.2v25.8c0,1.2-1.1,2.2-2.5,2.2l0,0c-1.4,0-2.5-0.9-2.5-2.2 v-25.8C1592.9,289.1,1594,288.1,1595.4,288.1z"/>
      <path class="st95" d="M1607.4,282.2L1607.4,282.2c1.4,0,2.5,0.9,2.5,2.2v31.7c0,1.2-1.1,2.2-2.5,2.2l0,0c-1.4,0-2.5-0.9-2.5-2.2 v-31.7C1604.9,283.2,1606,282.2,1607.4,282.2z"/>
      <path class="st95" d="M1618.4,288.1L1618.4,288.1c1.4,0,2.5,0.9,2.5,2.2v25.8c0,1.2-1.1,2.2-2.5,2.2l0,0c-1.4,0-2.5-0.9-2.5-2.2 v-25.8C1615.9,289.1,1617,288.1,1618.4,288.1z"/>
      <path class="st102" d="M1630.4,276.2L1630.4,276.2c1.4,0,2.5,0.9,2.5,2.2v37.6c0,1.2-1.1,2.2-2.5,2.2l0,0c-1.4,0-2.5-0.9-2.5-2.2 v-37.6C1627.9,277.3,1629,276.2,1630.4,276.2z"/>
      <path class="st105" d="M1168.1,504c0-8.4,7.6-15.1,16.8-15.1V504l-11.5,11C1170.2,512.4,1168.1,508.4,1168.1,504z"/>
      <path class="st108" d="M1184.2,503.5h17c0,3.9-1.8,7.5-4.6,10.2c-3.1,2.9-7.5,4.7-12.3,4.7c-4.4,0-8.5-1.6-11.6-4.1L1184.2,503.5z "/>
      <path class="st102" d="M1201.7,503.5c0-8.2-7.6-14.9-16.8-14.9v14.9H1201.7z M1176.3,488.9l6.7,13.4l-15.1-5.9 C1169.4,492.9,1172.8,490.2,1176.3,488.9z"/>
      <path class="st105" d="M1714.3,510.7c-1.6,1.5-3.9,2.5-6.4,2.5c-4.9,0-8.8-3.5-8.8-7.8c0-4.4,4-7.8,8.8-7.8v-14.5 c-13.9,0-25.3,10-25.3,22.3c0,12.3,11.4,22.3,25.3,22.3c7.3,0,13.9-2.8,18.4-7.1L1714.3,510.7z"/>
      <path class="st109" d="M1707.9,482.9v14.5c4.9,0,8.8,3.5,8.8,7.8h16.4C1733.1,492.9,1721.7,482.9,1707.9,482.9z"/>
      <path class="st110" d="M1716.2,505.3c0,2.6-1.3,4.8-3.4,6.2l10.3,11.6c6-4.2,9.8-10.6,9.8-17.9L1716.2,505.3L1716.2,505.3 L1716.2,505.3z"/>
      <path class="st105" d="M1553.8,305.5c-1.2,1.1-3,1.9-4.9,1.9c-3.8,0-6.8-2.7-6.8-6s3.1-6,6.8-6v-11.1c-10.7,0-19.4,7.7-19.4,17.1 s8.8,17.1,19.4,17.1c5.6,0,10.7-2.1,14.2-5.4L1553.8,305.5z"/>
      <path class="st111" d="M1548.9,284.2v11.1c3.7,0,6.8,2.7,6.8,6h12.6C1568.2,292,1559.5,284.2,1548.9,284.2z"/>
      <path class="st112" d="M1555.8,301.3c0,1.9-1,3.5-2.6,4.7l7.7,8.6c4.5-3.1,7.4-8,7.4-13.4H1555.8L1555.8,301.3z"/>
      <path id="Fill-35_1_" class="st102" d="M1248.5,318.5L1248.5,318.5L1248.5,318.5"/>
      <path id="Fill-37_1_" class="st102" d="M1248.5,318.5L1248.5,318.5L1248.5,318.5"/>
      <path id="Fill-39_1_" class="st102" d="M1248.6,318.4L1248.6,318.4C1248.5,318.4,1248.5,318.4,1248.6,318.4 C1248.4,318.8,1248.5,318.5,1248.6,318.4"/>
      <path id="Fill-41_1_" class="st102" d="M1248.5,318.4C1248.5,318.5,1248.5,318.5,1248.5,318.4 C1248.5,318.6,1248.5,318.4,1248.5,318.4"/>
      <path id="Fill-43_1_" class="st102" d="M1248.9,318.5L1248.9,318.5L1248.9,318.5z"/>
      <path id="Fill-45_1_" class="st102" d="M1248.5,318.5L1248.5,318.5L1248.5,318.5"/>
      <path id="Fill-47_1_" class="st102" d="M1248.5,318.5C1248.5,318.5,1248.5,318.4,1248.5,318.5"/>
      <path id="Fill-49_1_" class="st102" d="M1248.5,318.5L1248.5,318.5L1248.5,318.5"/>
      <path id="Photo-Background_1_" class="st113" d="M1211.3,280.1h73.3c1.8,0,3.4,1.3,3.4,3v41.1c0,1.7-1.5,3-3.4,3h-73.3 c-1.8,0-3.4-1.3-3.4-3V283C1207.9,281.4,1209.4,280.1,1211.3,280.1z"/>
      <g id="icons8-night_landscape_1_" transform="translate(8.000000, 18.000000)">
        <polygon id="Mountains_1_" class="st114" points="1230.4,275.5 1206.9,309.1 1253.9,309.1 &#9;&#9;&#9;"/>
        <polygon class="st115" points="1253.5,284.5 1232.9,309.1 1274.1,309.1 &#9;&#9;&#9;"/>
      </g>
      <ellipse id="Sun_1_" class="st101" cx="1270.3" cy="295.5" rx="7.6" ry="6.7"/>
      <path class="st102" d="M1648.9,636.3C1648.9,636.4,1649,636.4,1648.9,636.3C1649,636.3,1648.9,636.3,1648.9,636.3"/>
      <path class="st102" d="M1649,636.3L1649,636.3C1649,636.3,1648.9,636.3,1649,636.3"/>
      <path class="st102" d="M1648.9,636.2C1648.9,636.2,1648.9,636.3,1648.9,636.2C1648.9,636.3,1648.9,636.3,1648.9,636.2 C1649.1,636.7,1649,636.4,1648.9,636.2"/>
      <path class="st102" d="M1648.9,636.3L1648.9,636.3C1649,636.5,1648.9,636.3,1648.9,636.3"/>
      <path class="st102" d="M1648.9,636.3L1648.9,636.3L1648.9,636.3z"/>
      <path class="st102" d="M1649,636.3L1649,636.3L1649,636.3"/>
      <path class="st102" d="M1649,636.4C1649,636.4,1648.9,636.3,1649,636.4"/>
      <path class="st102" d="M1649,636.3L1649,636.3C1648.9,636.3,1648.9,636.3,1649,636.3"/>
      <path class="st113" d="M1705.5,578.8h-112.3c-1.8,0-3.4,1.3-3.4,3v64.1c0,1.6,1.5,3,3.4,3h112.3c1.8,0,3.4-1.3,3.4-3v-64.1 C1708.9,580.2,1707.4,578.8,1705.5,578.8z"/>
      <polygon class="st116" points="1664.3,599.1 1698.7,648.9 1629.8,648.9 &#9;&#9;"/>
      <polygon class="st117" points="1628.7,612.4 1659.2,648.9 1598.3,648.9 &#9;&#9;"/>
      <ellipse class="st101" cx="1615.8" cy="602.5" rx="11.3" ry="10"/>
      <g>
        <g id="Head_1_" transform="translate(123.000000, 38.000000)">
          <path id="Shape_1_" class="st118" d="M1406.5,396.1c3.9-4,6.5-8.9,6.1-14.4c-1.3-16-26.3-12.5-31.1-4.5 c-4.9,8.1-4.3,28.4,2,29.8c2.5,0.6,7.8-0.8,13.3-3.7l-3.4,21.4h20.2L1406.5,396.1z"/>
        </g>
        <path id="hair_1_" class="st119" d="M1515.9,406.1c2.7-0.4,9.8-0.7,11.1-0.7c0.8,0,1.8,0.2,2.2-0.6c0.4-0.6,0.3-1.5,0.4-2.1 c0.1-0.8,0.3-1.5,0.6-2.2c0.6-2.1,1.4-4.2,2.7-6c2.3-3.5,5.7-6.3,9.9-8c4.7-1.8,10-2.2,15.1-1.9c5.4,0.4,10.3,2,15.4,3.4 c4.9,1.4,10,2,15,1.3c5.1-0.7,9-3.2,13.3-5.5c4.4-2.4,9.5-4,14.7-3.6c4.9,0.4,9.4,2.1,13.4,4.6c3.8,2.2,6.9,4.8,8.7,8.6 c1.9,4.1,1.9,8.6-1.2,12.2c-4.5,5.2-12.9,6.6-19.9,6.4c-4-0.1-8-0.7-11.8-2c-5.1-1.6-9.5-4.3-14.2-6.5c-2.2-0.9-4.5-1.9-6.9-2.5 c-2.3-0.7-4.7-0.9-6.8,0.5c-2.2,1.3-4.2,2.7-6.8,3.4c-2.5,0.8-5.1,1.2-7.7,1.2c-5.1,0-10.1-1.4-15.1-2.4c-4-0.8-8.4-1.5-12.5-0.8 c-1.7,0.4-4.2,0.9-4.8,2.6c10.5,1.7,14.6,13.1,11.6,21.6c-1.6,4.6-11.2,9.9-14.9,7.4c-2.4-1.5-0.9-3.5,0-4.8 c1.8-2.5,2.4-5.8-0.9-7.4c-2.8-1.5-5.8,2-5.9,2c-0.8-0.1-7.5-3.4-12.1-8.4c-4.6,0.3-5.3-2.4-4.2-4.6 C1505.4,409.5,1512.2,406.7,1515.9,406.1z"/>
      </g>
      <g transform="translate(0.000000, 27.000000)">
        <ellipse id="Ballsy-Ball_1_" class="st120" cx="1544.8" cy="572.6" rx="64.6" ry="54.7"/>
      </g>
      <path id="Skin_1_" class="st118" d="M1422.7,645.8c10.8-21.1,18.5-39.4,21.7-49.2c5.3-16.5,9.4-31.2,10.4-36.7 c2.4-13-18.9-13.8-21.7-7.3c-4.3,9.8-11.7,41.9-20.7,90.5L1422.7,645.8z M1547.5,579.6c-9.9-3.4-44.4-14.3-61.1-17.4 c-4.8-0.9-9.4-1.7-13.8-2.5c-13-2.2-19.7,18.5-7.2,20.1c31.1,4,75.2,8.1,79,8.6C1549.7,589.1,1553.7,581.7,1547.5,579.6z"/>
      <path id="Leg-Back_1_" class="st121" d="M1464.5,554.1l53.4-24.1v-5.2h-6.3c-51.6,11.7-78,19.1-79.2,22.4v0.1l-0.1,0.1 c-10.2,12.5-16.4,73.4-18.4,77.9l19.6,2.6c7.5-24.6,31.5-41.8,30.9-71.4C1464.6,555.7,1464.6,554.9,1464.5,554.1z"/>
      <path id="Leg-Front_1_" class="st122" d="M1513.6,568.4c4.9-0.9,9.4-1.6,13.2-2.2c24.9-3.9,32.1-15.7,27.8-41.4h-45.8 c-7.5,2-46.4,16.4-66.5,24c-13.3,5-9.1,23.4-1.6,28.2c0,0.3,0.2,0.5,0.4,0.7c40.7,15,72.9,7.1,83.6,9.6l5-13.9L1513.6,568.4z"/>
      <g transform="translate(86.201565, 97.046949) rotate(64.000000) translate(-86.201565, -97.046949) translate(57.201565, 86.546949)">
        <path id="shoe_1_" class="st101" d="M1099.8-1089.3c1.4-2.3,2.6-3.8,3.4-4.6c1.2-0.9,2.9-2.2,5.4-3.7c0.9,1.4,9.2,13,24.8,35.1 c-2.4,3.5-4.4,4.4-6,2.6c-1.6-1.7-3-3.2-4.1-4.4l-18.8-10.1c-0.4-0.2-0.5-0.7-0.3-1.1l0,0l1.8-3.2c-0.4-2.6-1.1-4.4-1.8-5.6 c-0.7-1-1.9-1.8-3.9-2.8l0,0C1099.5-1087.4,1099.3-1088.4,1099.8-1089.3L1099.8-1089.3z"/>
      </g>
      <g transform="translate(215.000000, 151.000000)">
        <path class="st101" d="M1212.6,490.6c0.9,2.2,1.4,3.9,1.4,4.9c0,1.3-0.2,3.3-0.8,5.9c-1.8,0-17.5,0-47.3,0 c-1.2-3.6-0.5-5.6,2.1-5.9c2.7-0.3,4.8-0.6,6.6-0.8l22-8.6c0.4-0.2,0.9,0,1.1,0.4l0,0l1.4,3c2.4,1,4.4,1.5,6,1.5 c1.2,0,3-0.5,5.2-1.3l0,0c0.8-0.4,1.8,0,2.2,0.7C1212.6,490.6,1212.6,490.6,1212.6,490.6z"/>
      </g>
      <g transform="translate(11.000000, 89.000000)">
        <path class="st118" d="M1454.9,415.3l-30.4-11.9c-5.3-4.7-10.5-8.4-15.4-10.7c-1.5-0.5-4-0.6-1.3,2.9c2.7,3.5,5.4,7.3,4.3,8.6 c-1.1,1.3-4.2-0.1-5.4,1.9c-0.8,1.3,4.4,2.9,15.8,4.8l22.8,15.5L1454.9,415.3z M1577.9,418.5l-17.2,3 c17.3,28.5,26.6,43.7,27.8,45.5c2.8,3.9,0.2,10.9-0.8,14.6c6.1,1.2,3.7-6.9,11.4-5.2c7.1,1.6,13,5.5,19.6,0.2 c0.8-0.7,1.4-2.8-1.4-3.8c-6.9-2.7-17-7.5-18.7-9.5C1596.5,460.7,1589.6,445.9,1577.9,418.5z"/>
        <path id="Coat-Back_1_" class="st123" d="M1514,361.5l-7.3-1c-15.8,13.6-22.3,46.3-32.8,50.7c-10,4.1-24.1,0.1-40.9-5.2 l-5.1,10.2c15.2,14.6,47.8,27,60.9,20C1509.8,424.6,1514.7,384.3,1514,361.5z"/>
        <path id="Shirt_1_" class="st95" d="M1545.6,442c-29.1,0-50.5,0-64.2,0c-2.9,0-2.4-3.7-2-5.7c4.9-21.9,24-45.5,24-76.6l18.5-2.6 C1537.3,378.9,1542.6,405.9,1545.6,442z"/>
        <path id="Coat-Front_1_" class="st124" d="M1552,420.3c13.1,20.8,24,35.9,32.9,45.1l13.4-2.3c-8.7-47.5-33.7-82.6-75.1-105.2 h-0.2h-7.1c-16.6,50.1-21.2,83.5-13.7,100.2h57.7C1558.9,445.7,1556,432.8,1552,420.3L1552,420.3z"/>
      </g>
    </g>
  </g>
</svg>