<?xml version="1.0" encoding="UTF-8"?> <svg xmlns="http://www.w3.org/2000/svg" xmlns:xlink="http://www.w3.org/1999/xlink" width="689px" height="559px" viewBox="0 0 689 559"><!-- Generator: Sketch 48.1 (47250) - http://www.bohemiancoding.com/sketch --><title>Group 3</title><desc>Created with Sketch.</desc><defs></defs><g id="Page-1" stroke="none" stroke-width="1" fill="none" fill-rule="evenodd"><g id="Group-3" transform="translate(-11.000000, 0.000000)" fill-rule="nonzero"><g id="Wireframe"><path d="M689.225393,143.334154 C688.69196,142.94624 687.426405,142.808691 686.837645,142.692486 C684.390395,142.21005 681.869376,142 679.374455,142 C671.681258,142.011519 663.863142,142.766681 656.297649,144.073733 C651.494316,144.903429 645.687447,147.695735 640.909168,146.179311 C632.58476,143.53709 624.17162,143.666846 616.273819,147.438932 C609.053162,150.888151 603.571642,157.438992 600.372783,164.517328 C599.890154,165.585871 597.932145,169.518544 597.377834,172.169574 C597.140868,172.711638 596.913298,173.257428 596.707998,173.81135 C596.125501,175.384012 595.603203,176.984455 595.11779,178.587948 C594.910402,179.271964 594.388799,180.78229 595.00818,181.074326 C594.018563,182.900742 593.141339,184.783059 592.410609,186.726357 C590.285576,192.378049 587.962202,198.577565 587.215465,204.567708 C586.938832,206.785765 586.928393,209.016696 587.185192,211.239158 C587.3122,212.337514 587.259657,214.546424 588.004306,215.381541 C589.584771,217.153751 590.396229,214.672793 590.21807,213.491094 C588.85752,204.484704 591.484669,196.027155 594.598275,187.561135 C596.611611,182.08663 599.919731,177.0783 603.625576,172.542582 C606.624702,168.871116 609.842002,165.979884 613.953229,163.545679 C618.980652,160.569071 624.355695,158.162647 629.681326,155.748769 C633.183959,154.160523 636.690767,152.614963 640.291179,151.246591 C641.091851,150.942019 642.35149,150.161447 643.239153,150.158398 C645.116434,150.151622 647.77664,151.536934 649.589894,152.052233 C655.554044,153.747877 661.594399,155.918842 667.758281,156.784789 C671.711879,157.340743 675.415985,156.714998 679.11348,155.397783 C679.491372,155.263622 680.124671,154.917718 680.900637,154.423762 C683.645747,153.367754 686.242622,152.038682 688.50371,150.12147 C689.806498,149.016676 690.988541,147.589016 692.066542,146.282304 C692.389107,145.891679 692.531773,145.443799 692.536645,145.018279 C692.780917,144.890555 692.94307,144.741487 692.979606,144.567349 C693.248585,143.281303 690.795767,143.257588 689.225393,143.334154" id="Twisted-Leaf" fill="#89C5CC"></path><path d="M85.2264596,225.096804 C83.284335,225.096804 81.3481316,225.135613 79.4084451,225.236039 C77.9299087,225.312976 75.6704822,225.007952 74.4193862,225.925066 C73.1195281,226.877583 73.2090414,228.827556 73.4121007,230.204588 C74.4855633,237.486686 77.105481,243.943926 82.5863405,249.103114 C91.0253175,257.047345 100.699717,261.083801 112.147664,262.881262 C120.18923,264.14391 127.61291,262.390705 133.532629,256.699768 C137.857826,264.688595 141.139167,273.529173 142.785584,282.451794 C143.597821,286.854551 143.845812,291.204201 143.703008,295.687299 C143.611057,298.55881 143.451883,301.423513 143.142592,304.281407 C143.008497,305.523289 142.372151,307.403133 142.860817,308.576589 C143.43412,309.954642 145.367537,310.088089 146.235502,308.912932 C146.957878,307.934882 146.825175,306.014186 146.973552,304.85673 C147.219452,302.933992 147.44724,301.009893 147.610245,299.078303 C147.874954,295.951812 148.070699,292.816469 148.056418,289.678062 C148.02333,282.626774 146.447966,275.547912 144.29303,268.854414 C140.159049,256.013124 133.451474,244.600612 123.019521,235.646331 C116.605216,230.140247 109.264082,227.910442 100.935168,226.713497 C95.7496679,225.9683 90.4795304,225.096804 85.2264596,225.096804" id="Fill-16" fill="#DDE3E9" transform="translate(110.675502, 267.403558) rotate(-39.000000) translate(-110.675502, -267.403558) "></path><path d="M129.485146,256.720509 C127.91013,244.178797 126.242815,231.708914 123.191353,219.410948 C121.392728,212.163915 119.087674,205.069392 116.993342,197.904742 C117.181076,198.803472 117.347216,199.70799 117.491412,200.61489 C116.762767,198.478023 115.241041,196.434093 114.365762,194.304715 C113.389475,191.929888 112.604405,189.463146 111.858693,187.011042 C110.402797,182.225304 109.029099,177.431395 107.390692,172.700465 C105.5649,167.429616 103.462557,162.246258 101.503366,157.021707 C99.8405788,152.587631 98.2833262,147.932277 96.1186375,143.700755 C94.9389431,141.394354 93.8811539,138.917059 92.7230542,136.566062 C92.3353955,135.779333 89.0091241,126.9905 89.0342017,126.9905 C89.5841685,126.9905 91.6468051,130.897253 91.988488,131.471215 C92.9870661,133.147483 93.8355265,134.891837 94.6930428,136.639595 C95.0632864,134.564345 95.6494765,132.53267 96.5728215,130.624911 C96.8577315,130.03597 98.857674,125.692788 99.5089958,125.692788 C99.8343088,125.692788 96.8281259,133.894382 96.4481299,134.614388 C96.1395355,135.199243 95.5613564,135.940696 95.3600386,136.562998 C95.0347258,137.567942 95.2022584,137.316706 95.4707982,138.223266 C95.9629471,139.884896 97.0520833,141.512143 97.737539,143.107729 C98.1137037,143.95948 99.0408798,146.911673 99.9429788,148.233896 C102.265796,152.774186 103.916393,158.310228 105.684716,163.206265 C106.06506,160.8008 106.722652,158.481463 107.633458,156.217957 C107.849404,155.680421 109.56792,150.692808 110.062855,150.692808 C110.619788,150.692808 108.487143,158.680954 108.197357,159.371002 C107.659232,160.652714 106.81321,161.893234 106.365644,163.197754 C105.87454,164.629595 106.73728,165.918456 107.286899,167.382978 C109.308784,172.770934 111.081286,178.212677 112.700885,183.727613 C122.106744,179.608092 123.977119,167.483745 124.590825,158.54274 C125.032818,152.098776 124.035285,145.536684 122.471415,139.285743 C120.384397,130.943211 116.873178,122.889022 113.147754,115.13475 C108.806883,106.099447 102.837358,98.0295991 95.639724,90.9558431 C91.8752903,87.2560701 87.5880573,84.0495771 83.2336023,81.0449591 C81.10653,79.5770331 78.9212916,78.3586401 76.4382561,77.5419531 C75.3188177,77.1742911 74.1697738,76.9080761 73.008191,76.7041601 C72.1255971,76.5492651 70.3248826,75.7308761 69.5931029,75.9395581 C63.6176565,77.5926771 59.125971,80.3423151 55.6436608,85.4538431 C52.3469949,90.2923481 50.3007285,96.0769031 49.1631785,101.751499 C47.8967572,108.070526 47.5912975,114.441639 48.6783439,120.801176 C49.5076478,125.653298 50.9381187,130.410101 52.3706794,135.120264 C57.4656217,151.873072 66.396051,169.83372 82.4203202,179.023577 C87.6072138,181.998578 93.3625342,183.737485 99.2707588,184.659365 C100.662917,184.876558 102.053681,185.083198 103.462557,185.162517 C104.412373,185.216305 107.534889,184.585492 108.222086,184.995027 C109.164239,185.556393 109.705499,188.741098 110.116145,189.89583 C113.236223,198.672408 116.026459,207.54839 118.558257,216.503692 C121.251666,226.031595 123.391277,235.652093 125.173532,245.379827 C125.931434,249.51739 126.669831,253.648145 127.298514,257.808177 C127.445149,258.776014 127.293638,261.820122 128.238229,262.674937 C128.835565,263.215537 129.679846,262.993919 130.035113,262.332126 C130.652998,261.181479 129.646409,258.004604 129.485146,256.720509" id="Leaf" fill="#C1DEE2" transform="translate(89.123641, 169.442244) rotate(-37.000000) translate(-89.123641, -169.442244) "></path><path d="M679.980481,179.659775 C676.569531,178.91462 672.803318,178.971651 669.328853,179.033121 C650.695311,179.286515 632.397488,188.108514 620.488828,202.204657 C610.350902,214.205007 607.563234,229.124851 605.560426,244.206908 C605.361855,245.70439 605.276704,247.192311 605.164681,248.692867 C605.140601,249.014903 605.104656,249.302105 605.066268,249.572574 C604.278615,250.276749 603.865421,251.097718 604.331661,251.999623 C602.596522,255.796774 601.128704,259.690229 599.869228,263.705941 C596.162342,275.525979 592.391592,287.570724 594.714416,300 C595.257083,293.160073 596.398603,286.165788 597.76382,279.438216 C597.842341,279.051978 597.927144,278.668814 598.015436,278.287015 C598.02451,278.246718 598.032885,278.206421 598.041959,278.166465 C598.525299,276.106189 599.153466,274.107724 599.917388,272.140678 C599.925414,272.119163 599.933092,272.09799 599.941468,272.076817 C600.042323,271.817959 600.149461,271.560467 600.255202,271.302975 C600.474014,270.769892 600.698758,270.237833 600.937113,269.708506 C601.017728,269.528194 601.095202,269.346174 601.169535,269.162788 C602.281741,266.436925 602.75147,263.365464 603.747814,260.545006 C603.986169,259.903667 604.235342,259.264718 604.49638,258.629185 C604.511735,258.591961 604.52744,258.554737 604.543144,258.517514 C605.248785,256.807276 606.028411,255.11787 606.852706,253.446222 C607.300799,253.109501 607.540201,252.27419 607.926524,251.515033 C608.006441,251.365455 608.631118,250.36793 608.817126,249.793184 C609.30256,248.854056 609.786249,247.914586 610.275172,246.977165 C610.260515,246.982629 610.245858,246.988093 610.231201,246.993557 C610.720473,246.09336 611.211142,245.19692 611.697972,244.304236 C611.805109,244.108214 611.913294,243.911851 612.021129,243.715146 C612.195969,243.40199 612.370809,243.089175 612.5453,242.777043 C614.177489,239.856183 615.90809,236.993721 617.705347,234.166774 C618.346776,233.15798 619.879156,231.711381 620.172999,230.578622 C620.183817,230.536275 620.18626,230.497344 620.192891,230.456706 C624.092764,224.979369 628.582417,219.927201 633.966511,215.924124 C633.31566,216.627616 631.932295,219.015051 631.566562,219.487689 C630.447377,220.93497 629.232222,222.282193 628.01253,223.645807 C625.828252,226.088564 623.695623,228.608843 621.800651,231.273918 C618.33526,236.147822 615.345531,241.27717 612.519475,246.50965 C612.492604,246.540385 612.463289,246.569413 612.437814,246.600831 C611.017457,248.351707 610.123365,250.998 609.100848,253.000904 C613.147294,251.126746 617.621592,249.905879 621.774477,248.241744 C625.915846,246.582731 629.944494,244.73521 633.833898,242.565653 C639.003368,239.682359 644.365825,236.426829 649.250176,232.742714 C654.847498,229.270672 659.551077,224.491705 663.702915,219.476761 C668.615185,213.543178 673.117053,207.557687 675.901231,200.353038 C677.268891,196.812695 678.344803,193.121068 678.982742,189.386411 C679.01066,189.223515 679.046256,189.046959 679.084993,188.863573 C679.73759,187.573723 680.321087,186.254846 680.810709,184.905575 C681.588241,182.765728 683.424584,180.411761 679.980481,179.659775" id="Fill-10" fill="#69A1AC"></path><path d="M85.6033752,213.822265 C85.1883947,212.302928 84.9392191,210.732029 85.0544394,209.142494 C85.0837129,208.740708 85.4207088,205.822265 85.7469322,205.822265 C86.5066368,205.822265 85.4602865,213.354364 85.6033752,213.822265 M72.3819551,220.396167 C72.4279926,220.414625 73.2644562,222.02235 73.5388493,222.489153 C74.1217627,223.482144 74.7433843,224.451059 75.3819551,225.396167 C74.1838332,223.839 73.1089363,222.336673 72.3819551,220.396167 M117.257188,172.563539 C117.968823,171.963268 117.579493,170.46363 116.735411,171.291599 C116.05395,171.962489 116.033656,171.896023 115.177023,171.853184 C114.481409,171.818393 113.741469,171.602379 113.042384,171.51644 C111.559566,171.334178 110.085025,171.257067 108.593128,171.36118 C105.395175,171.583945 102.283473,172.345707 99.3221089,173.530411 C94.1542747,175.598125 88.9375741,178.277534 84.8263784,182.008714 C78.2894808,187.94132 73.0399355,196.062109 69.942386,204.159531 C68.0237745,209.174336 66.990902,214.207574 68.7348757,219.423334 C69.6061951,222.030045 70.9854057,224.510575 72.9870635,226.468984 C73.5104426,226.98072 74.2001814,227.377179 74.6899147,227.914359 C75.4429396,228.74025 75.2704382,228.475685 74.7809719,229.654157 C74.2463776,230.940897 73.7165898,232.229194 73.1902735,233.519308 C71.812665,236.897388 70.456419,240.313634 69.4561241,243.818935 C69.1266089,244.972482 68.8731973,246.143685 68.6894806,247.32761 C68.5500909,248.222823 67.7409896,251.628684 68.4451481,252.543889 C69.6166092,254.067154 70.1156885,251.728123 70.1533398,250.927936 C70.1861845,250.226927 70.2473344,249.524362 70.3349203,248.827508 C70.5554872,247.07291 70.9544302,245.350507 71.4727357,243.658222 C72.0326978,241.82937 72.7189653,240.034789 73.4009602,238.24618 C74.037293,236.5783 74.7032662,234.921324 75.3823238,233.269801 C75.7593703,232.35226 76.1409564,231.436535 76.5225424,230.520811 C76.6528531,230.207954 76.7198777,229.554458 77.0648806,229.822659 C77.8189737,227.867366 79.0467782,226.010473 80.0646971,224.17487 C81.3117278,221.926711 82.5841264,219.683226 84.0172771,217.541257 C85.0509507,215.996443 86.1396324,214.484082 87.3308539,213.048833 C88.0270014,212.21022 88.7712144,211.421975 89.5618906,210.666444 C89.9963486,210.251551 91.479701,208.47177 92.0781155,208.47177 C91.8209655,208.47177 90.6577822,210.732131 90.4764688,210.999034 C89.752016,212.067162 88.9656123,213.084663 88.1629197,214.098268 C86.6734257,215.979307 85.2912778,217.928629 84.0410428,219.967783 C84.4018005,220.182499 85.9019756,219.193299 86.3492511,219.002469 C87.3524833,218.574854 88.3837537,218.209291 89.4403919,217.92733 C91.3015919,217.430394 93.5764215,216.864394 95.4138559,216.864394 C94.8723188,216.864394 93.6154079,217.748184 93.0517073,217.988344 C92.1483444,218.37286 91.2220169,218.723624 90.2828719,219.016489 C89.4158251,219.286767 88.5330235,219.492915 87.6443472,219.682707 C86.7551369,219.872238 85.1484167,219.879508 84.3393154,220.353078 C84.2904489,220.381638 84.3411846,220.840149 84.149724,220.962955 C83.9569283,221.0868 83.40471,221.046297 83.3598489,221.080309 C82.6973471,221.577765 82.2340499,223.019245 81.8353739,223.728302 C80.8008992,225.566761 79.7931275,227.419499 78.7754756,229.266785 C78.4601131,229.839016 78.0406087,230.230542 78.318053,230.694505 C78.6141894,231.189105 80.0131603,231.495991 80.559771,231.676176 C82.589467,232.345769 84.646133,232.567495 86.7623467,232.215952 C90.7261419,231.558043 94.1665581,229.842391 97.2683801,227.413787 C109.149085,218.11167 118.893548,206.406392 121.868264,191.544242 C123.09954,185.391208 124.426145,175.794926 117.257188,172.563539" id="Leave-the-Leaf!" fill="#89C5CC" transform="translate(95.342753, 212.048012) scale(-1, 1) rotate(58.000000) translate(-95.342753, -212.048012) "></path><g id="Background-Shape-2" opacity="0.6" transform="translate(38.000000, 306.000000)" fill="#DDE3E9"><path d="M661.71121,146.152379 C671.360993,211.476278 437.337348,254.084822 235.907772,224.349347 C34.4781963,194.613871 -57.9281424,78.4934855 38.190693,16.6199792 C134.309528,-45.253527 652.061428,80.8284801 661.71121,146.152379 Z" id="Background-Shape"></path></g><g id="Mobile3" transform="translate(137.000000, 24.000000)"><rect id="Container" fill="#F2F2F2" x="0" y="0" width="159" height="302" rx="8"></rect><circle id="Touch" fill="#FFFFFF" cx="79" cy="268" r="15"></circle><g id="Camera" transform="translate(64.000000, 16.000000)" fill="#FFFFFF"><circle id="Lens" cx="2" cy="2" r="2"></circle><rect id="Sensor" x="9" y="0" width="21" height="4" rx="2"></rect></g><g id="Rows" transform="translate(14.000000, 28.000000)"><g id="Row"><rect id="Background" fill="#FFFFFF" x="0" y="0" width="131" height="54" rx="4"></rect><g id="Text" transform="translate(39.000000, 16.200000)" fill="#DDE3E9"><rect id="Name" x="0" y="0" width="73" height="8.1" rx="3"></rect><rect id="Name" x="0" y="13.5" width="49" height="8.1" rx="3"></rect></g><circle id="Avatar" fill="#C5CFD6" cx="21" cy="27" r="12"></circle></g><g id="Row" transform="translate(0.000000, 62.000000)"><rect id="Background" fill="#FFFFFF" x="0" y="0" width="131" height="42" rx="4"></rect><g id="Text" transform="translate(39.000000, 12.600000)" fill="#DDE3E9"><rect id="Name" x="0" y="0" width="73" height="6.3" rx="3"></rect><rect id="Name" x="0" y="10.5" width="49" height="6.3" rx="3"></rect></g><circle id="Avatar" fill="#C5CFD6" cx="21" cy="21" r="12"></circle></g><g id="Row" transform="translate(0.000000, 112.000000)"><rect id="Background" fill="#FFFFFF" x="0" y="0" width="131" height="42" rx="4"></rect><g id="Text" transform="translate(39.000000, 12.600000)" fill="#DDE3E9"><rect id="Name" x="0" y="0" width="73" height="6.3" rx="3"></rect><rect id="Name" x="0" y="10.5" width="49" height="6.3" rx="3"></rect></g><circle id="Avatar" fill="#AFB9C5" cx="21" cy="21" r="12"></circle></g><g id="Row" transform="translate(0.000000, 162.000000)"><rect id="Background" fill="#FFFFFF" x="0" y="0" width="131" height="42" rx="4"></rect><g id="Text" transform="translate(39.000000, 12.600000)" fill="#DDE3E9"><rect id="Name" x="0" y="0" width="73" height="6.3" rx="3"></rect><rect id="Name" x="0" y="10.5" width="49" height="6.3" rx="3"></rect></g><circle id="Avatar" fill="#C5CFD6" cx="21" cy="21" r="12"></circle></g></g></g><g id="Mobile3" transform="translate(155.000000, 50.000000)"><g id="Group" transform="translate(0.000000, 218.000000)" fill="#89C5CC"><path d="M12.139863,0 C10.8150371,0 9.4942504,0.0266022626 8.17108772,0.095441451 C7.1624999,0.14817927 5.62122565,-0.0609051802 4.76778691,0.567748289 C3.88108497,1.22067049 3.94214671,2.55731751 4.08066419,3.50123112 C4.81292983,8.49288902 6.60011418,12.9191321 10.3388981,16.4555996 C16.0955705,21.9011294 22.6949899,24.6679981 30.5042395,25.9001029 C35.9898168,26.7656098 41.0539017,25.563841 45.0920545,21.6628758 C48.0425006,27.1389749 50.2808765,33.1989237 51.4039848,39.3151105 C51.9580547,42.3330672 52.1272219,45.3146208 52.0298082,48.3876489 C51.9670833,50.3559829 51.8585027,52.31965 51.647519,54.2786499 C51.5560451,55.1299223 51.1219604,56.4184986 51.4553052,57.222867 C51.8463854,58.1674807 53.1652714,58.2589551 53.7573564,57.4534199 C54.250127,56.7829963 54.1596035,55.4664176 54.2608187,54.6730168 C54.4285603,53.355038 54.583947,52.0361258 54.6951411,50.7120799 C54.8757128,48.5689643 55.0092408,46.4197815 54.9994994,44.2684985 C54.9769279,39.4350541 53.9022889,34.582708 52.4322929,29.9945178 C49.6122862,21.1922025 45.0366951,13.3692704 37.9205081,7.23138172 C33.5449714,3.45712737 28.5371962,1.92866404 22.8556037,1.10819426 C19.3182997,0.597384143 15.7232603,0 12.139863,0" id="Fill-16"></path><path d="M32.5712675,35 C18.2723696,35 8.64204555,46.5241625 4.08868149,58.5015953 C2.37224237,63.0163306 1.96994464,67.9738742 1.30842479,72.7144486 C1.09603594,74.2357354 1.17471582,76.5539408 0.557219238,77.9092029 C0.333122071,78.4006816 -0.180638832,78.5773956 0.0650016363,79.2469528 C0.213697249,79.6524625 0.505468481,79.9008173 0.943593663,79.9813279 C1.84302649,80.1468978 3.11478377,79.1673519 3.88589345,78.780719 C10.2819123,75.5730304 14.484261,70.6132124 17.9124559,64.5448952 C20.0375153,60.7836392 22.1937187,56.8791017 23.4561093,52.7498622 C24.227219,50.2274235 24.6761159,47.5708006 24.9397871,44.953978 C25.0435228,43.9234876 25.1439802,42.8684346 25.1378918,41.8315761 C25.1318035,40.8029052 24.6531676,40.2591173 24.3091772,39.363721 C29.080316,37.5576904 34.465673,37.0655295 39.2986316,38.9370602 C43.7686325,40.6680385 47.4818078,44.0130955 49.5609705,48.2155678 C50.1011922,49.3079195 50.5177741,50.460313 50.8212537,51.6356771 C51.0198267,52.4055314 51.0294275,53.4044089 51.397537,54.1003482 C52.290179,55.7876597 54.1681928,54.6596013 53.9878848,53.088962 C53.4851297,48.7075013 50.9786134,44.3087559 47.774984,41.2625435 C43.7344442,37.4207769 38.2575282,35 32.5712675,35" id="Fill-18"></path></g><rect id="Container" fill="#DDE3E9" x="48" y="0" width="159" height="302" rx="8"></rect><circle id="Touch" fill="#FFFFFF" cx="127" cy="268" r="15"></circle><g id="Camera" transform="translate(112.000000, 16.000000)" fill="#FFFFFF"><circle id="Lens" cx="2" cy="2" r="2"></circle><rect id="Sensor" x="9" y="0" width="21" height="4" rx="2"></rect></g><g id="Rows" transform="translate(62.000000, 28.000000)"><g id="Row"><rect id="Container" fill="#FFFFFF" x="0" y="0" width="131" height="54" rx="4"></rect><g id="Text-Stuff" transform="translate(9.000000, 16.200000)" fill="#DDE3E9"><rect id="Label" x="0" y="0" width="73" height="8.1" rx="3"></rect><rect id="Label" x="0" y="13.5" width="49" height="8.1" rx="3"></rect></g><g id="Check" transform="translate(110.000000, 20.000000)"><circle id="Background" fill="#DDE3E9" cx="7" cy="7" r="7"></circle><circle id="Indicator" fill="#F2F2F2" cx="7" cy="7" r="3"></circle></g></g><g id="Row" transform="translate(0.000000, 62.000000)"><rect id="Background" fill="#FFFFFF" x="0" y="0" width="131" height="42" rx="4"></rect><g id="Text" transform="translate(39.000000, 12.600000)" fill="#DDE3E9"><rect id="Name" x="0" y="0" width="73" height="6.3" rx="3"></rect><rect id="Name" x="0" y="10.5" width="49" height="6.3" rx="3"></rect></g><circle id="Avatar" fill="#C5CFD6" cx="21" cy="21" r="12"></circle></g><g id="Row" transform="translate(0.000000, 112.000000)"><rect id="Container" fill="#FFFFFF" x="0" y="0" width="131" height="42" rx="4"></rect><g id="Text-Stuff" transform="translate(9.000000, 12.600000)"><rect id="Label" fill="#DDE3E9" x="0" y="0" width="73" height="6.3" rx="3"></rect><rect id="Label" fill="#AFB9C5" x="0" y="10.5" width="49" height="6.3" rx="3"></rect></g><g id="Check" transform="translate(110.000000, 14.000000)"><circle id="Background" fill="#DDE3E9" cx="7" cy="7" r="7"></circle><circle id="Indicator" fill="#F2F2F2" cx="7" cy="7" r="3"></circle></g></g><g id="Row" transform="translate(0.000000, 162.000000)"><rect id="Background" fill="#FFFFFF" x="0" y="0" width="131" height="42" rx="4"></rect><g id="Text" transform="translate(39.000000, 12.600000)" fill="#DDE3E9"><rect id="Name" x="0" y="0" width="73" height="6.3" rx="3"></rect><rect id="Name" x="0" y="10.5" width="49" height="6.3" rx="3"></rect></g><circle id="Avatar" fill="#C5CFD6" cx="21" cy="21" r="12"></circle></g></g></g><g id="Web" transform="translate(269.000000, 75.000000)"><rect id="Container" fill="#F2F2F2" x="0" y="0" width="335" height="346" rx="8"></rect><rect id="Background" fill="#FFFFFF" x="249" y="43" width="70" height="81" rx="8"></rect><g id="Profile-Info" transform="translate(259.000000, 58.000000)" fill="#DDE3E9"><circle id="Avatar" cx="25" cy="16" r="16"></circle><rect id="Name" x="0" y="36" width="50" height="6" rx="3"></rect><rect id="Name" x="8" y="46" width="34" height="6" rx="3"></rect></g><path d="M8,0 L327,0 C331.418278,-8.11624501e-16 335,3.581722 335,8 L335,27 L0,27 L0,8 C-5.41083001e-16,3.581722 3.581722,8.11624501e-16 8,0 Z" id="Header" fill="#C5CFD6"></path><g id="Buttons" transform="translate(9.000000, 10.000000)" fill="#F2F2F2"><circle id="buttons" cx="4" cy="4" r="4"></circle><circle id="buttons" cx="16" cy="4" r="4"></circle><circle id="buttons" cx="28" cy="4" r="4"></circle></g><g id="Components" transform="translate(249.000000, 132.000000)"><rect id="Background" fill="#FFFFFF" x="0" y="0" width="70" height="194" rx="8"></rect><g id="Rows" transform="translate(18.000000, 18.000000)"><rect id="Data" fill="#DDE3E9" x="0" y="0" width="34" height="26" rx="4"></rect><rect id="Data" fill="#AFB9C5" x="0" y="34" width="34" height="25" rx="4"></rect><rect id="Data" fill="#DDE3E9" x="0" y="67" width="34" height="25" rx="4"></rect><rect id="Data" fill="#DDE3E9" x="0" y="133" width="34" height="25" rx="4"></rect><rect id="Data" fill="#C5CFD6" x="0" y="100" width="34" height="25" rx="4"></rect></g></g><g id="Rows" transform="translate(16.000000, 44.000000)"><g id="Row"><rect id="Container" fill="#FFFFFF" x="0" y="0" width="225" height="47" rx="4"></rect><g id="Text-Stuff" transform="translate(9.000000, 14.100000)" fill="#DDE3E9"><rect id="Label" x="0" y="0" width="167" height="7.05" rx="3"></rect><rect id="Label" x="0" y="11.75" width="112.09589" height="7.05" rx="3"></rect></g><g id="Check" transform="translate(193.954198, 16.500000)"><circle id="Background" fill="#DDE3E9" cx="7" cy="7" r="7"></circle><circle id="Indicator" fill="#F2F2F2" cx="7" cy="7" r="3"></circle></g></g><g id="Row" transform="translate(0.000000, 55.000000)"><rect id="Container" fill="#FFFFFF" x="0" y="0" width="225" height="39" rx="4"></rect><g id="Text-Stuff" transform="translate(9.000000, 11.700000)" fill="#DDE3E9"><rect id="Label" x="0" y="0" width="167" height="5.85" rx="2.925"></rect><rect id="Label" x="0" y="9.75" width="112.09589" height="5.85" rx="2.925"></rect></g><g id="Check" transform="translate(193.954198, 12.500000)"><circle id="Background" fill="#DDE3E9" cx="7" cy="7" r="7"></circle><circle id="Indicator" fill="#F2F2F2" cx="7" cy="7" r="3"></circle></g></g><g id="Row" transform="translate(0.000000, 102.000000)"><rect id="Container" fill="#FFFFFF" x="0" y="0" width="225" height="39" rx="4"></rect><g id="Text-Stuff" transform="translate(9.000000, 11.700000)" fill="#DDE3E9"><rect id="Label" x="0" y="0" width="167" height="5.85" rx="2.925"></rect><rect id="Label" x="0" y="9.75" width="112.09589" height="5.85" rx="2.925"></rect></g><g id="Check" transform="translate(193.954198, 12.500000)"><circle id="Background" fill="#DDE3E9" cx="7" cy="7" r="7"></circle><circle id="Indicator" fill="#AFB9C5" cx="7" cy="7" r="3"></circle></g></g><g id="Row" transform="translate(0.000000, 243.000000)"><rect id="Container" fill="#FFFFFF" x="0" y="0" width="225" height="39" rx="4"></rect><g id="Text-Stuff" transform="translate(9.000000, 11.700000)" fill="#DDE3E9"><rect id="Label" x="0" y="0" width="167" height="5.85" rx="2.925"></rect><rect id="Label" x="0" y="9.75" width="112.09589" height="5.85" rx="2.925"></rect></g><g id="Check" transform="translate(193.954198, 12.500000)"><circle id="Background" fill="#DDE3E9" cx="7" cy="7" r="7"></circle><circle id="Indicator" fill="#F2F2F2" cx="7" cy="7" r="3"></circle></g></g><g id="Row" transform="translate(0.000000, 196.000000)"><rect id="Container" fill="#FFFFFF" x="0" y="0" width="225" height="39" rx="4"></rect><g id="Text-Stuff" transform="translate(9.000000, 11.700000)" fill="#DDE3E9"><rect id="Label" x="0" y="0" width="167" height="5.85" rx="2.925"></rect><rect id="Label" x="0" y="9.75" width="112.09589" height="5.85" rx="2.925"></rect></g><g id="Check" transform="translate(193.954198, 12.500000)"><circle id="Background" fill="#DDE3E9" cx="7" cy="7" r="7"></circle><circle id="Indicator" fill="#F2F2F2" cx="7" cy="7" r="3"></circle></g></g><g id="Row" transform="translate(0.000000, 149.000000)"><rect id="Container" fill="#FFFFFF" x="0" y="0" width="225" height="39" rx="4"></rect><g id="Text-Stuff" transform="translate(9.000000, 11.700000)" fill="#DDE3E9"><rect id="Label" x="0" y="0" width="167" height="5.85" rx="2.925"></rect><rect id="Label" x="0" y="9.75" width="112.09589" height="5.85" rx="2.925"></rect></g><g id="Check" transform="translate(193.954198, 12.500000)"><circle id="Background" fill="#DDE3E9" cx="7" cy="7" r="7"></circle><circle id="Indicator" fill="#F2F2F2" cx="7" cy="7" r="3"></circle></g></g></g></g><path d="M686.985552,245.375543 C683.041234,242.700897 677.796053,242 673.075943,242 C654.640081,242 637.311227,248.840049 622.341136,259.031869 C614.13827,264.616354 606.800186,271.727973 600.321713,279.132413 C596.582329,283.406588 593.248011,288.030491 590.887402,293.173043 C589.294462,296.644032 588.201116,300.260531 587.460033,303.990844 C586.55685,308.53695 585.839399,313.17526 585.51483,317.797002 C585.387069,319.616957 584.32954,329.27428 587.355536,329.437799 C587.338181,329.675873 587.334119,329.902782 587.352582,330.10628 C580.782166,340.379859 576.722643,352.420088 572.958149,363.835416 C569.682911,373.768992 566.764367,383.786488 564.869751,394.062949 C562.375474,407.592494 560.737117,421.325536 559.958001,435.049575 C559.790732,437.999033 559.675895,440.949932 559.576936,443.903351 C559.493117,446.422403 559.40819,448.941454 559.325478,451.460505 C559.233166,454.283542 558.736156,457.533745 559.185163,460.340214 C559.575829,462.784349 561.691256,462.414451 561.784676,459.982202 C561.897666,457.04499 561.879204,454.102015 562.007702,451.162642 C562.178665,447.261606 562.354796,443.360571 562.545698,439.460615 C563.874625,412.36875 568.860224,385.675236 578.06117,360.084213 C581.784677,349.728154 586.051348,339.9246 591.535065,330.344715 C596.356348,321.921705 602.155772,313.767384 608.083695,306.172773 C613.845456,298.792465 619.835782,291.582879 626.895453,285.329912 C632.62435,280.255793 638.925953,275.835387 645.403688,271.72221 C653.631293,266.498258 661.843021,261.401088 670.755213,257.39092 C675.387811,255.306598 680.10792,253.44054 684.776704,251.440499 C685.616746,251.080686 686.517344,250.731678 687.325261,250.314958 C690.020409,248.925049 689.133103,246.831723 686.985552,245.375543" id="Fill-1" fill="#C1DEE2"></path><path d="M627.1822,340 C619.704911,340 613.05129,340.971586 606.161789,343.943116 C600.214766,346.507723 594.795086,349.902835 589.533123,353.599146 C582.131565,358.797709 576.301613,364.848195 572.220786,372.86497 C569.782781,377.65423 567.994401,384.431196 569.631665,389.654916 C571.560392,395.807388 576.856053,400.93864 583.830664,399.85453 C588.14355,399.184822 592.097231,396.329896 595.375233,393.642906 C599.296606,390.428309 602.435651,386.563042 605.027551,382.270114 C609.255673,375.267419 611.740228,367.35093 615.331926,360.033439 C617.036237,356.560477 618.683227,353.062699 620.724509,349.762094 C621.735076,348.1276 622.810953,346.508743 624.343998,345.29409 C625.164194,344.64444 628.622492,343.519875 627.299967,342.060796 C646.690409,342.315421 663.868304,357.207408 667.590622,375.640687 C667.93732,377.358811 668.208287,379.090872 668.494539,380.819534 C668.675183,381.911123 668.60223,385.936508 669.578058,386.633752 C671.730158,388.17204 670.825546,383.499044 670.73314,382.826277 C670.494481,381.087417 670.239842,379.349916 669.972696,377.615475 C668.519203,368.181436 664.319221,359.411324 657.31508,352.683312 C649.305584,344.989832 638.498879,340 627.1822,340" id="Fill-20" fill="#89C5CC" transform="translate(620.000000, 370.000000) scale(-1, 1) translate(-620.000000, -370.000000) "></path><g id="Plant" transform="translate(64.000000, 281.000000)"><path d="M9.93785602,35.7363701 C28.6043474,67.0518486 50.3448762,97.3738414 63.400835,131.612719 C62.8747124,127.576998 62.316848,123.545457 61.6924335,119.519653 C58.3796628,98.1788894 54.2624276,76.9938487 49.9359142,55.8347788 C47.7325965,45.061608 45.4023236,34.3274793 43.0122847,23.5942683 C41.7268475,17.8294571 40.457171,12.0611334 39.145247,6.30181171 C38.8274703,4.90590411 38.5544351,2.4694293 38.1565942,0 C50.8449133,41.636678 63.0807311,83.3047517 72.0307975,125.94239 C73.204927,131.538126 74.2047864,137.123918 75.0238081,142.699993 C75.3039851,141.427955 75.5795646,140.155702 75.8811982,138.88715 C79.5025613,123.679846 84.9347228,108.59358 91.4026624,94.3744557 C94.494721,87.5745292 98.0463864,80.9235176 102.228151,74.7261293 C104.835821,70.8630236 110.985519,66.2708832 113.364361,62.3144999 C100.354578,86.1759773 95.6569872,116.031633 88.1451337,141.973334 C86.3116359,148.30385 84.4667482,154.62409 82.659084,160.955464 C93.9872772,138.237255 111.563216,119.571486 136,111.482566 C106.420215,131.026943 88.6779699,165.254031 76.7221336,200.259757 C76.682738,200.674905 76.6358989,201.090058 76.5954089,201.505863 C80.1135643,194.828835 84.5452103,188.789483 90.5514934,184.559607 C103.406592,175.504479 117.667098,178.142392 130.137007,185.909854 C120.350227,179.688703 102.662664,185.353659 94.4280037,191.676694 C88.5328799,196.203004 83.4948291,202.275393 79.119821,208.199601 C78.071517,209.619676 76.6413193,211.276578 75.1303997,213.044484 C73.0120284,226.795282 69.5599117,240.451838 64.6724606,254 C65.4790179,250.11126 64.8958605,243.891877 65.11953,240.993318 C65.1438759,240.679499 65.1636243,240.365464 65.1877517,240.052521 C64.4448288,243.018848 63.7270637,245.951459 63.0359813,248.836783 C64.4097546,243.330925 65.1563919,237.583268 65.7392402,231.776207 C65.8893549,229.280566 66.0357479,226.784927 66.1904602,224.289502 C66.141426,219.553405 65.9463583,214.798592 65.6164284,210.036217 C64.4465561,205.407706 63.1367171,201.041891 62.0564998,197.41118 C58.158506,184.310429 52.4441742,171.759576 45.4108456,160.050843 C38.9937018,149.366014 31.3123836,139.687606 22.4447835,130.934599 C17.6643455,126.217405 12.6613846,121.724669 7.7288832,117.169517 C5.94526254,115.52278 2.75721952,111.473853 0,109.363232 C20.0804874,120.433766 40.7488532,132.410494 55.3976085,150.247606 C53.6802099,143.652644 51.8148695,137.151008 49.841671,130.779652 C39.8311473,98.4544622 27.1913357,64.9525261 9.93785602,35.7363701 Z" id="Fill-19" fill="#DDE3E9"></path><path d="M30,213 C30,248.898509 32.8428117,278 71,278 C109.157188,278 112,248.898509 112,213" id="Base" fill="#C5CFD6"></path></g><g id="Graph" transform="translate(519.000000, 0.000000)"><rect id="Value" fill="#DDE3E9" x="0" y="32" width="6" height="25" rx="3"></rect><rect id="Value" fill="#DDE3E9" x="14" y="16" width="6" height="41" rx="3"></rect><rect id="Value" fill="#DDE3E9" x="28" y="8" width="6" height="49" rx="3"></rect><rect id="Value" fill="#DDE3E9" x="42" y="16" width="6" height="41" rx="3"></rect><rect id="Value" fill="#C5CFD6" x="56" y="0" width="6" height="57" rx="3"></rect></g><g id="Pie-Chart" transform="translate(47.000000, 306.000000) scale(-1, 1) translate(-47.000000, -306.000000) translate(27.000000, 286.000000)"><path d="M40,20.256388 C40,9.11740024 30.998,0 20,0 L20,20.256388 L33.668,35 C37.556,31.3953758 40,26.1074457 40,20.256388 Z" id="Value" fill="#F2F2F2"></path><path d="M20.5292199,20 L0.332,20 C0.332,25.221 2.46179684,30.113 5.8286734,33.668 C9.53183367,37.556 14.8053278,40 20.5292199,40 C25.8017042,40 30.6278299,37.891 34.332,34.557 L20.5292199,20 Z" id="Value" fill="#AFB9C5"></path><path d="M0,20 C0,9.002 9.002,0 20,0 L20,20 L0,20 Z M30,0 L22,18 L40,10 C38.22,5.334 34.223,1.78 30,0 Z" id="Value" fill="#C5CFD6"></path></g><g id="Chart" transform="translate(640.000000, 278.000000)"><path d="M37.7664728,37.179 C35.8448939,39.219 33.1227826,40.5 30.095205,40.5 C24.2778019,40.5 19.5618833,35.799 19.5618833,30 C19.5618833,24.201 24.2778019,19.5 30.095205,19.5 L30.095205,0 C13.5458518,0 0,13.503 0,30 C0,46.497 13.5458518,60 30.095205,60 C38.788205,60 46.6445583,56.334 52,50.502 L37.7664728,37.179 Z" id="Value" fill="#F2F2F2"></path><path d="M30,0 L30,19.5 C35.799,19.5 40.5,24.201 40.5,30 L60,30 C60,13.503 46.497,0 30,0 Z" id="Value" fill="#AFB9C5"></path><path d="M40.0969635,30 C40.0969635,33.4069834 38.4924726,36.4354131 36,38.3907651 L48.2618015,54 C55.3993366,48.4117535 60,39.7492845 60,30 L40.0969635,30 Z" id="Value" fill="#C5CFD6"></path></g><g id="Chart" transform="translate(458.000000, 11.000000)"><path d="M29.0511329,28.5039 C27.5729953,30.0679 25.4790636,31.05 23.1501577,31.05 C18.6752322,31.05 15.0476025,27.4459 15.0476025,23 C15.0476025,18.5541 18.6752322,14.95 23.1501577,14.95 L23.1501577,0 C10.419886,0 0,10.3523 0,23 C0,35.6477 10.419886,46 23.1501577,46 C29.8370808,46 35.8804294,43.1894 40,38.7182 L29.0511329,28.5039 Z" id="Value" fill="#F2F2F2"></path><path d="M23,0 L23,14.95 C27.4459,14.95 31.05,18.5541 31.05,23 L46,23 C46,10.3523 35.6477,0 23,0 Z" id="Value" fill="#AFB9C5"></path><path d="M31.0727226,23 C31.0727226,25.5552376 29.8693544,27.8265598 28,29.2930738 L37.1963511,41 C42.5495024,36.8088151 46,30.3119634 46,23 L31.0727226,23 Z" id="Value" fill="#C5CFD6"></path></g><g id="Image" transform="translate(75.000000, 5.000000)"><path d="M48.007,51.9862978 C48.003,51.9962978 47.999,52.0062978 47.993,52.0182978 C47.999,52.0082978 48.007,51.9682978 48.007,51.9862978" id="Fill-35" fill="#C5CFD6"></path><path d="M47.9976864,52.0014952 C47.9976864,52.0034952 47.9956864,52.0074952 47.9956864,52.0114952 C47.9956864,52.0014952 48.0136864,51.9714952 47.9976864,52.0014952" id="Fill-37" fill="#C5CFD6"></path><path d="M48.0671431,51.8323017 C48.0531431,51.8723017 48.0351431,51.9103017 48.0191431,51.9503017 C48.0271431,51.9303017 48.0351431,51.9143017 48.0431431,51.8943017 C47.8351431,52.4143017 47.9671431,52.0763017 48.0671431,51.8323017" id="Fill-39" fill="#C5CFD6"></path><path d="M48.0223751,51.95275 C48.0143751,51.97075 48.0063751,51.99075 47.9983751,52.00875 C47.9403751,52.12075 48.0223751,51.95275 48.0223751,51.95275" id="Fill-41" fill="#C5CFD6"></path><polygon id="Fill-43" fill="#C5CFD6" points="48 52.001 48 52.001 48 51.999"></polygon><path d="M47.999,52.002 C47.999,52 47.999,52 48.001,51.998 C47.999,52 47.999,52 47.999,52.002" id="Fill-45" fill="#C5CFD6"></path><path d="M47.9895117,52.0163509 C47.9775117,52.0403509 48.0455117,51.9243509 47.9895117,52.0163509" id="Fill-47" fill="#C5CFD6"></path><path d="M47.998,52.002 L48.002,51.998 C48,52 48,52.002 47.998,52.002" id="Fill-49" fill="#C5CFD6"></path><rect id="Photo-Background" fill="#DDE3E9" x="0" y="0" width="95" height="63" rx="4"></rect><g id="icons8-night_landscape" transform="translate(8.000000, 18.000000)"><polygon id="Mountains" fill="#AFB9C5" points="28 0 0 45 56 45"></polygon><polygon id="Mountains" fill="#C5CFD6" points="55.5 12 31 45 80 45"></polygon></g><circle id="Sun" fill="#FFFFFF" cx="74" cy="21" r="9"></circle></g><g id="Image" transform="translate(600.000000, 454.000000) scale(-1, 1) translate(-600.000000, -454.000000) translate(529.000000, 407.000000)"><path d="M71.007,76.9862978 C71.003,76.9962978 70.999,77.0062978 70.993,77.0182978 C70.999,77.0082978 71.007,76.9682978 71.007,76.9862978" id="Fill-35" fill="#C5CFD6"></path><path d="M70.9976864,77.0014952 C70.9976864,77.0034952 70.9956864,77.0074952 70.9956864,77.0114952 C70.9956864,77.0014952 71.0136864,76.9714952 70.9976864,77.0014952" id="Fill-37" fill="#C5CFD6"></path><path d="M71.0671431,76.8323017 C71.0531431,76.8723017 71.0351431,76.9103017 71.0191431,76.9503017 C71.0271431,76.9303017 71.0351431,76.9143017 71.0431431,76.8943017 C70.8351431,77.4143017 70.9671431,77.0763017 71.0671431,76.8323017" id="Fill-39" fill="#C5CFD6"></path><path d="M71.0223751,76.95275 C71.0143751,76.97075 71.0063751,76.99075 70.9983751,77.00875 C70.9403751,77.12075 71.0223751,76.95275 71.0223751,76.95275" id="Fill-41" fill="#C5CFD6"></path><polygon id="Fill-43" fill="#C5CFD6" points="71 77.001 71 77.001 71 76.999"></polygon><path d="M70.999,77.002 C70.999,77 70.999,77 71.001,76.998 C70.999,77 70.999,77 70.999,77.002" id="Fill-45" fill="#C5CFD6"></path><path d="M70.9895117,77.0163509 C70.9775117,77.0403509 71.0455117,76.9243509 70.9895117,77.0163509" id="Fill-47" fill="#C5CFD6"></path><path d="M70.998,77.002 L71.002,76.998 C71,77 71,77.002 70.998,77.002" id="Fill-49" fill="#C5CFD6"></path><rect id="Photo-Background" fill="#DDE3E9" x="0" y="0" width="142" height="94" rx="4"></rect><g id="icons8-night_landscape" transform="translate(11.000000, 27.000000)"><polygon id="Mountains" fill="#AFB9C5" points="41.7257937 0 0.670793651 67 82.7807937 67"></polygon><polygon id="Mountains" fill="#C5CFD6" points="84.0557937 17.9464286 47.7607937 67 120.350794 67"></polygon></g><circle id="Sun" fill="#FFFFFF" cx="110.5" cy="31.5" r="13.5"></circle></g></g><g id="sitting-1" transform="translate(280.000000, 140.000000)"><g id="A-Human/Sitting" transform="translate(154.500000, 184.000000) scale(-1, 1) translate(-154.500000, -184.000000) "><g id="Head/Front/Airy"><g id="Head" transform="translate(123.000000, 38.000000)" fill="#B28B67"><path d="M8.26227388,34.4901268 C3.65436435,29.0813759 0.535634794,22.4528771 1.05677633,15.0254539 C2.55833022,-6.37502057 32.3485306,-1.66718886 38.1433414,9.13393292 C43.9381521,19.9350547 43.249578,47.3329958 35.7603014,49.2634576 C32.7735882,50.033323 26.4110012,48.1474609 19.935372,44.244306 L24,73 L0,73 L8.26227388,34.4901268 Z" id="Shape"></path></g><path d="M147.46395,34.6852568 C144.300819,34.1665378 135.783951,33.8099042 134.213288,33.8101344 C133.209561,33.8101344 132.121826,34.0394482 131.527347,33.1178184 C131.040518,32.3631089 131.218861,31.0866873 131.07357,30.2108742 C130.904866,29.1934668 130.665239,28.1891827 130.422857,27.1874312 C129.733124,24.3368945 128.690147,21.6249591 127.230806,19.0787928 C124.492532,14.3018818 120.481065,10.5601063 115.416751,8.38277606 C109.824292,5.97866458 103.495965,5.42817325 97.4804855,5.91581049 C91.0431327,6.43752248 85.2158664,8.56258942 79.137955,10.5624086 C73.346036,12.4680618 67.2796011,13.2181667 61.2218882,12.2875578 C55.1184992,11.3500418 50.5068151,8.0420286 45.3587232,4.90231703 C40.0885222,1.68800939 34.0656977,-0.4142643 27.8353795,0.06899848 C22.0195896,0.52025863 16.6594134,2.9216073 11.8503349,6.12946836 C7.3508902,9.13080883 3.6382688,12.741811 1.5422157,17.8240133 C-0.7126711,23.2909379 -0.7106053,29.291777 2.9974255,34.1232537 C8.372062,41.1265349 18.3498899,42.9375616 26.6510131,42.7575181 C31.4525172,42.6536822 36.1681776,41.7771784 40.701363,40.1828026 C46.7469108,38.0563543 51.9712062,34.4522592 57.6270148,31.5280473 C60.281281,30.1558481 63.0248336,29.0288489 65.9005946,28.2170411 C68.6912006,27.4289475 71.4398029,27.0674789 73.9664512,28.7532579 C76.6393091,30.5366564 79.0344377,32.2885128 82.0922147,33.4049212 C85.0255874,34.4759733 88.132713,35.0750442 91.2579713,35.0508696 C97.338637,35.0039017 103.33277,33.1092997 109.238536,31.8402457 C114.0545,30.8055706 119.207412,29.7743491 124.117253,30.7689633 C126.166024,31.1840766 129.158615,32.0410104 129.898614,34.1702216 C117.444175,36.4274433 112.552707,51.8301494 116.063803,63.1372093 C117.958789,69.2400423 129.349812,76.3741897 133.778791,73.1658382 C136.584677,71.1332552 134.881216,68.4648419 133.778791,66.7033156 C131.667589,63.3299158 130.945263,58.9966672 134.851836,56.6480423 C138.221542,54.6224367 141.764556,59.4327123 141.831578,59.4274169 C142.757725,59.3544325 150.76044,54.8285457 156.274165,48.224129 C161.713475,48.5465656 162.538697,44.9600245 161.239896,42.026908 C159.941096,39.0937915 151.8344,35.4024381 147.46395,34.6852568 Z" id="hair" fill="#191847"></path></g><g id="Bottom/Sitting/Sweat-Pants" transform="translate(36.000000, 194.000000)"><g id="Objects/Seat/Ball" transform="translate(0.000000, 27.000000)" fill="#C5CFD6"><ellipse id="Ballsy-Ball" cx="77" cy="73.5" rx="77" ry="73.5"></ellipse></g><path d="M222.509253,162.659849 C209.696468,134.301545 200.430392,109.608281 196.711023,96.5800564 C190.34256,74.2725728 185.497817,54.6432898 184.273327,47.3127766 C181.353374,29.8322277 206.735275,28.8143004 210.090229,37.5018287 C215.168086,50.6507477 224.032873,93.8526085 234.684593,159.107411 L222.509253,162.659849 Z M73.888346,73.6635414 C85.644063,69.0168268 126.811956,54.4748802 146.66723,50.3612296 C152.37284,49.1791314 157.902884,48.0808288 163.102095,47.0882686 C178.555991,44.1380286 186.56256,72.0174283 171.678573,74.1595557 C134.611563,79.4942994 82.062816,85.0032894 77.565792,85.6215241 C71.26302,86.4880065 66.500245,76.5838567 73.888346,73.6635414 Z" id="Skin" fill="#B28B67"></path><path d="M172.587121,39.4162575 L109,7.04671741 L109,0 L116.562186,0 C178.079876,15.6757222 209.515366,25.7216696 210.868655,30.1378423 C210.883215,30.1853551 210.896564,30.2329302 210.908703,30.2805675 C210.939662,30.3212022 210.970097,30.3620825 211,30.4032083 C223.191506,47.1700257 230.49295,129.026966 232.889416,135.156136 L209.52773,138.641377 C200.591265,105.503295 172,82.4181007 172.759487,42.7290106 C172.554409,41.5647756 172.502591,40.4606967 172.587121,39.4162575 Z" id="Leg-Back" fill="#1F28CF"></path><path d="M114.283174,58.6404762 C108.4651,57.4758245 103.107279,56.4363908 98.522705,55.6322592 C68.90929,50.4380832 60.273766,34.5862504 65.379549,4.7745025e-14 L119.941763,-4.97379915e-14 C128.854593,2.56031807 175.174037,21.9848377 199.206622,32.316337 C215.112618,39.1542526 210.098531,63.8044803 201.090957,70.2194819 C201.042044,70.6130299 200.879937,70.8803556 200.591265,71 C152.136867,91.0826527 113.804991,80.5453361 101,83.9121674 L95.07712,65.2284164 L114.283174,58.6404762 Z" id="Leg-Front" fill="#2B44FF"></path><g id="Accessories/Shoe/Flat-Sneaker" transform="translate(86.201565, 97.046949) rotate(64.000000) translate(-86.201565, -97.046949) translate(57.201565, 86.546949)" fill="#E4E4E4"><path d="M1.67813181,6.4019242 C0.55937727,9.3884109 0,11.6229931 0,13.1056708 C0,14.908957 0.3004142,17.5404001 0.90124261,21 C2.99318117,21 21.7937852,21 57.3030548,21 C58.768738,16.1545073 57.9226607,13.5385816 54.7648228,13.1522232 C51.606985,12.7658647 48.9837155,12.4170139 46.8950143,12.1056708 L20.6799926,0.4188835 C20.1755635,0.1940064 19.584344,0.4206282 19.359467,0.9250573 C19.35562,0.9336867 19.3518954,0.9423702 19.3482945,0.9511052 L17.6632131,5.038695 C14.7398812,6.4026522 12.3643706,7.0846307 10.5366811,7.0846307 C9.0517269,7.0846307 7.00099246,6.4849054 4.38447792,5.2854549 L4.38448339,5.285443 C3.38038273,4.8251478 2.19325534,5.2659892 1.73296014,6.2700899 C1.71312074,6.3133681 1.69483298,6.3573409 1.67813181,6.4019242 Z" id="shoe"></path></g><g id="Accessories/Shoe/Flat-Sneaker" transform="translate(215.000000, 151.000000)" fill="#E4E4E4"><path d="M1.67813181,6.4019242 C0.55937727,9.3884109 0,11.6229931 0,13.1056708 C0,14.908957 0.3004142,17.5404001 0.90124261,21 C2.99318117,21 21.7937852,21 57.3030548,21 C58.768738,16.1545073 57.9226607,13.5385816 54.7648228,13.1522232 C51.606985,12.7658647 48.9837155,12.4170139 46.8950143,12.1056708 L20.6799926,0.4188835 C20.1755635,0.1940064 19.584344,0.4206282 19.359467,0.9250573 C19.35562,0.9336867 19.3518954,0.9423702 19.3482945,0.9511052 L17.6632131,5.038695 C14.7398812,6.4026522 12.3643706,7.0846307 10.5366811,7.0846307 C9.0517269,7.0846307 7.00099246,6.4849054 4.38447792,5.2854549 L4.38448339,5.285443 C3.38038273,4.8251478 2.19325534,5.2659892 1.73296014,6.2700899 C1.71312074,6.3133681 1.69483298,6.3573409 1.67813181,6.4019242 Z" id="shoe"></path></g></g><g id="Body/Jacket-2" transform="translate(11.000000, 89.000000)"><path d="M196,77.6170876 L232.234567,61.7041739 C238.582018,55.3790221 244.711387,50.5716141 250.622674,47.2819501 C252.390261,46.7192094 255.410101,46.5491987 252.188168,51.2551684 C248.966235,55.961138 245.78889,61.0560141 247.076289,62.7052963 C248.363689,64.3545786 252.093006,62.5342201 253.566345,65.2162765 C254.548571,67.0043141 248.262286,69.1431805 234.707491,71.6328758 L207.56994,92.4392868 L196,77.6170876 Z M49.5082829,82 L70,86.0658446 C49.3920824,124.471059 38.3404263,144.825845 36.8450319,147.130202 C33.4803944,152.315007 36.6196693,161.817238 37.7793043,166.821179 C30.5044044,168.51462 33.3734014,157.565005 24.1671562,159.851185 C15.7641225,161.937904 8.6393632,167.293169 0.8038784,160.07074 C-0.15944841,159.182785 -0.86464918,156.407288 2.41981989,154.983749 C10.6026301,151.437195 22.6920431,144.796343 24.6523424,142.218096 C27.3255608,138.702197 35.6108743,118.629498 49.5082829,82 Z" id="Skin" fill="#B28B67"></path><path d="M121.280247,9.87718023 L129.765198,7.64600955 C150.120135,24.2050747 161.602366,67.2616718 174.61267,71.9556463 C186.913385,76.3936093 203.208593,69.6320097 222.503164,60.7390322 L229.796052,73.8353428 C213.409826,95.0000245 176.298612,114.916545 159.84294,106.839809 C133.533742,93.9267871 123.046804,40.501408 121.280247,9.87718023 Z" id="Coat-Back" fill="#DB2721" transform="translate(175.538149, 58.161768) rotate(5.000000) translate(-175.538149, -58.161768) "></path><path d="M88,114 C122.671756,114 148.175573,114 164.511451,114 C168.007634,114 167.348845,108.951637 166.84345,106.404206 C161.010588,77.0037663 138.241304,45.3115155 138.241304,3.4607303 L116.1718,0 C97.917485,29.3584068 91.6048263,65.5045499 88,114 Z" id="Shirt" fill="#DDE3E9"></path><path d="M80.3687546,84.2331696 C64.7713811,112.367832 51.6609446,132.623442 41.0374452,145 L25,141.85882 C35.3305927,77.7906722 65.2466105,30.5043988 114.748053,3.81764932e-14 L115,2.9470116e-14 L123.486398,0 C143.298923,67.5369477 148.760885,112.536948 139.872285,135 L71,135 C72.0896281,118.56345 75.5833963,101.181199 80.3687561,84.2331662 L80.3687546,84.2331696 Z" id="Coat-Front" fill="#FF4133"></path></g></g></g></g></g></svg> 