<?xml version="1.0" encoding="utf-8"?>
<!-- Generator: Adobe Illustrator 23.1.0, SVG Export Plug-In . SVG Version: 6.00 Build 0)  -->
<svg version="1.1" id="Layer_1" xmlns="http://www.w3.org/2000/svg" xmlns:xlink="http://www.w3.org/1999/xlink" x="0px" y="0px"
	 viewBox="0 0 1920 1080" style="enable-background:new 0 0 1920 1080;" xml:space="preserve">
<style type="text/css">
	.st0{fill:#B7B7BC;}
	.st1{fill:#E9E8F3;stroke:#000000;stroke-miterlimit:10;}
	.st2{fill:#EDEDEF;}
	.st3{opacity:0.88;fill:#8F8F93;enable-background:new    ;}
	.st4{fill:#E9E8F3;}
	.st5{fill:#D02100;}
	.st6{fill:none;}
	.st7{fill:#D000C4;}
</style>
<g>
	<rect class="st0" width="1920" height="1080"/>
</g>
<path class="st1" d="M1335.5,755.5"/>
<path class="st2" d="M1919.5,202.5v495c-170.8-44.9-411.6-75-633,42c-30.2,16-30.7,19.1-76,47c-435.9,268.1-902.3,288-1061,293
	c-32.2,1-84.6,2-150,0v-921c262.4,58,590.3,108.2,969,116C1337.4,282.1,1659.5,247.6,1919.5,202.5z"/>
<path class="st3" d="M1920.5,1080.5H629.7c5.3-0.3,10.2-0.7,14.8-1c162.1-12,306.6-56.7,428-108.9c113.3-48.7,206.4-103.9,275-145.1
	c25.1-15.1,23.9-15,35-21c177.7-95.5,382.1-51.8,537,7C1919.8,901.2,1920.2,990.8,1920.5,1080.5z"/>
<path class="st4" d="M735.5,1079.5"/>
<path class="st4" d="M426.5,172.5"/>
<path class="st3" d="M1907.5-0.5c-259.7,96.5-489.4,139.1-660,159c-141.3,16.5-402.8,45-737-12c-213.7-36.5-387.3-96-511-147H1907.5
	z"/>
<path class="st5" d="M629.7,1080.5c-33.7,2.1-82.7,3.5-142.2,0H629.7z"/>
<path class="st6" d="M1919.5,0.5c0,63.7,0,127.3,0,191"/>
<path class="st7" d="M-0.5,158.5"/>
</svg>
