<?xml version="1.0" encoding="utf-8"?>
<!-- Generator: Adobe Illustrator 23.1.0, SVG Export Plug-In . SVG Version: 6.00 Build 0)  -->
<svg version="1.1" id="a6a3afa7-c5e3-4bb7-8d5f-b359f5b682fe"
	 xmlns="http://www.w3.org/2000/svg" xmlns:xlink="http://www.w3.org/1999/xlink" x="0px" y="0px" viewBox="0 0 2000 600"
	 style="enable-background:new 0 0 2000 600;" xml:space="preserve">
<style type="text/css">
	.st0{fill:url(#SVGID_1_);}
	.st1{fill:#333333;}
	.st2{fill:#1B2335;}
	.st3{opacity:0.1;enable-background:new    ;}
	.st4{fill:#FDA57D;}
	.st5{fill:url(#SVGID_2_);}
	.st6{fill:#72351C;}
	.st7{fill:url(#SVGID_3_);}
	.st8{fill:url(#SVGID_4_);}
	.st9{fill:#BE7C5E;}
</style>
<title>Connecting Teams</title>
<g>
	<g>
		
			<linearGradient id="SVGID_1_" gradientUnits="userSpaceOnUse" x1="183.9516" y1="-256.8397" x2="183.9516" y2="-79.1941" gradientTransform="matrix(1 0 0 -1 0 123.9791)">
			<stop  offset="0" style="stop-color:#808080;stop-opacity:0.25"/>
			<stop  offset="0.5351" style="stop-color:#808080;stop-opacity:0.12"/>
			<stop  offset="1" style="stop-color:#808080;stop-opacity:0.1"/>
		</linearGradient>
		<ellipse class="st0" cx="184" cy="292" rx="87.3" ry="88.8"/>
		<path class="st1" d="M240.6,281.6c0,34.7-24,51.6-55.4,51.6s-57.9-17.2-57.9-51.6c0-34.7,25.4-62.9,56.8-62.9
			C215.2,218.7,240.6,247,240.6,281.6z"/>
		<path class="st2" d="M185.2,376.1c19.6,0,39-6,55.4-17.2c-3.8-20.9-17.7-22.3-17.7-22.3h-78c0,0-13.4,1.1-17.5,20.3
			C144,369.4,164.5,376.1,185.2,376.1z"/>
		<path class="st3" d="M168.3,311h31.1l0,0v26.8c0,8.5-6.5,15.2-14.8,15.2H183c-8.2,0-14.8-6.7-14.8-15.2L168.3,311L168.3,311z"/>
		<path class="st4" d="M171,309.9h25.6c1.7,0,2.7,1.4,2.7,2.8v23.7c0,8.5-6.5,15.2-14.8,15.2H183c-8.2,0-14.8-6.7-14.8-15.2v-23.7
			C168.3,311.3,169.6,309.9,171,309.9L171,309.9z"/>
		<path class="st3" d="M168.3,323.4c10.1,3.9,21,3.9,31.1,0v-3.9h-31.1V323.4z"/>
		<ellipse class="st4" cx="184.1" cy="279.1" rx="44.8" ry="46.3"/>
		<path class="st3" d="M132.5,282.3c0,0,27.9-3.4,48.9-31.3c0,0,27.9,31.6,47.2,28.2c0,0,11.1-12.2,0-24.5
			c-11.1-12.2-19.9-27.6-34.9-25.6s-33.3,2.8-41,10.1S132.5,282.3,132.5,282.3z"/>
		<path class="st1" d="M132.5,281.6c0,0,27.9-3.4,48.9-31.3c0,0,27.9,31.6,47.2,28.2c0,0,11.1-12.2,0-24.5
			c-11.1-12.4-19.9-27.6-34.9-25.6c-15,2-33.3,2.8-41,10.1C145.1,245.9,132.5,281.6,132.5,281.6z"/>
		<ellipse class="st4" cx="139.3" cy="279.1" rx="4.1" ry="8.1"/>
		<ellipse class="st4" cx="228.9" cy="279.1" rx="4.1" ry="8.1"/>
	</g>
	<g>
		
			<linearGradient id="SVGID_2_" gradientUnits="userSpaceOnUse" x1="496.2221" y1="-256.521" x2="496.2221" y2="-79.5128" gradientTransform="matrix(1 0 0 -1 0 123.9791)">
			<stop  offset="0" style="stop-color:#808080;stop-opacity:0.25"/>
			<stop  offset="0.5351" style="stop-color:#808080;stop-opacity:0.12"/>
			<stop  offset="1" style="stop-color:#808080;stop-opacity:0.1"/>
		</linearGradient>
		<ellipse class="st5" cx="496.2" cy="292" rx="87.3" ry="88.5"/>
		<path class="st2" d="M496.5,374.3c19.5,0,38.8-5.4,55-15.4c-3.8-18.7-17.6-20-17.6-20h-77.5c0,0-13.3,1-17.3,18.3
			C455.9,368.3,475.9,374.3,496.5,374.3z"/>
		<ellipse class="st6" cx="495.5" cy="278.2" rx="48.3" ry="45.1"/>
		<path class="st3" d="M479.7,315.7h30.9l0,0v24.1c0,7.6-6.5,13.7-14.7,13.7h-1.7c-8.1,0-14.7-6.1-14.7-13.7L479.7,315.7
			L479.7,315.7z"/>
		<path class="st4" d="M482.7,314.8h25.5c1.7,0,2.7,1.3,2.7,2.5v21.3c0,7.6-6.5,13.7-14.7,13.7h-1.7c-8.1,0-14.7-6.1-14.7-13.7
			v-21.3C479.7,316,481.1,314.8,482.7,314.8L482.7,314.8z"/>
		<path class="st3" d="M480,326.9c10.1,3.5,20.9,3.5,30.9,0v-3.5H480V326.9z"/>
		<ellipse class="st4" cx="495.5" cy="287.1" rx="44.5" ry="41.6"/>
		<path class="st3" d="M463.7,249.3c0,0,18.7,35.4,71.5,14.9l-12.2-18l-21.7-7.3L463.7,249.3z"/>
		<path class="st6" d="M463.7,248.8c0,0,18.7,35.4,71.5,14.9l-12.2-18l-21.7-7.3L463.7,248.8z"/>
		<path class="st6" d="M463.7,246.5c1.4-3.5,3.5-7.1,6.3-9.7c8.7-8.1,23.1-9.9,30.4-19c1.7,2.5,0.6,5.9-2.1,7.3
			c-0.3,0-0.3,0.3-0.6,0.3c7,0,15.1-0.5,19.3-6.1c1.9,4.3,1.1,9.4-2.1,12.9c6.3,0.3,13,4.3,13.3,10.2c0.3,3.8-2.4,7.6-5.7,9.9
			c-3.5,2.1-7.6,3.5-11.6,4.1C498.7,258.7,455.9,268.9,463.7,246.5z"/>
		<path class="st6" d="M539.9,287.6h-1.1l-23.1,19c-22-9.7-38.2,0-38.2,0l-24.1-18.3l-2.4,0.3c0.8,22.9,21.1,41.1,45.5,40.3
			C520.7,328.4,539.9,309.9,539.9,287.6L539.9,287.6z M495.5,314c-8.7,0-15.7-1.6-15.7-3.5c0-2,7-3.5,15.7-3.5
			c8.7,0,15.7,1.6,15.7,3.5C511.2,312.4,504.1,314,495.5,314L495.5,314z"/>
		<ellipse class="st4" cx="447.8" cy="287.1" rx="4.1" ry="7.3"/>
		<ellipse class="st4" cx="539.9" cy="287.1" rx="4.1" ry="7.3"/>
	</g>
	<g>
		
			<linearGradient id="SVGID_3_" gradientUnits="userSpaceOnUse" x1="390.5727" y1="436.2021" x2="390.5727" y2="613.9382" gradientTransform="matrix(-1 -1.275204e-03 -1.275204e-03 1 731.3231 -380.5069)">
			<stop  offset="0" style="stop-color:#808080;stop-opacity:0.25"/>
			<stop  offset="0.5351" style="stop-color:#808080;stop-opacity:0.12"/>
			<stop  offset="1" style="stop-color:#808080;stop-opacity:0.1"/>
		</linearGradient>
		<path class="st7" d="M340,232.9c-48.2-0.1-87.3-39.9-87.2-89s39.2-88.8,87.4-88.7s87.3,39.9,87.2,89S388.2,233,340,232.9z"/>
		<path class="st2" d="M341.4,228.6c19.5,0,38.8-5.8,55.1-16.8c-3.8-20.4-17.6-21.8-17.6-21.8h-77.6c0,0-13.3,1.1-17.4,19.9
			C300.7,222,320.8,228.6,341.4,228.6z"/>
		<ellipse class="st6" cx="340.2" cy="120.4" rx="48.3" ry="49.1"/>
		<path class="st3" d="M324.7,161.2h30.9l0,0v26.3c0,8.3-6.5,14.9-14.7,14.9h-1.7c-8.1,0-14.7-6.6-14.7-14.9L324.7,161.2
			L324.7,161.2z"/>
		<path class="st4" d="M327.4,160.2h25.5c1.7,0,2.7,1.4,2.7,2.8v23.2c0,8.3-6.5,14.9-14.7,14.9h-1.7c-8.1,0-14.7-6.6-14.7-14.9
			v-23.2C324.5,161.6,325.8,160.2,327.4,160.2L327.4,160.2z"/>
		<path class="st3" d="M324.7,135.3c10.1,3.8,20.9,3.8,30.9,0v-3.8h-30.9V135.3z"/>
		<ellipse class="st4" cx="340.2" cy="130.1" rx="44.5" ry="45.3"/>
		<path class="st3" d="M304.3,88.9c0,0,18.8,38.6,71.6,16.3l-12.2-19.6l-21.7-8L304.3,88.9z"/>
		<path class="st6" d="M304.3,88.4c0,0,18.8,38.6,71.6,16.3l-12.2-19.6l-21.7-8L304.3,88.4z"/>
		<ellipse class="st4" cx="296.1" cy="139.2" rx="4.1" ry="8"/>
		<ellipse class="st4" cx="384.7" cy="138.2" rx="4.1" ry="8"/>
	</g>
	<g>
		
			<linearGradient id="SVGID_4_" gradientUnits="userSpaceOnUse" x1="340.0808" y1="-407.8621" x2="340.0808" y2="-230.2165" gradientTransform="matrix(1 0 0 -1 0 123.9791)">
			<stop  offset="0" style="stop-color:#808080;stop-opacity:0.25"/>
			<stop  offset="0.5351" style="stop-color:#808080;stop-opacity:0.12"/>
			<stop  offset="1" style="stop-color:#808080;stop-opacity:0.1"/>
		</linearGradient>
		<ellipse class="st8" cx="340.1" cy="443" rx="87.3" ry="88.8"/>
		<path class="st1" d="M300.8,422c0,0-11.3,59.6-17.6,56.4c0,0,59.9,55.3,112.5,0c0,0-9.2-42.2-22.8-56.4H300.8z"/>
		<path class="st2" d="M340.6,528.1c19.5,0,38.8-6.1,55-17.6c-3.8-21.4-17.6-22.8-17.6-22.8h-77.5c0,0-13.3,1.1-17.3,20.8
			C300,521.5,320,528.1,340.6,528.1z"/>
		<ellipse class="st1" cx="339.4" cy="418.5" rx="44.5" ry="47.5"/>
		<path class="st3" d="M324,461.6h30.9l0,0v27.5c0,8.7-6.5,15.6-14.7,15.6h-1.7c-8.1,0-14.7-6.9-14.7-15.6L324,461.6L324,461.6
			L324,461.6z"/>
		<path class="st9" d="M326.7,460.4h25.5c1.7,0,2.7,1.4,2.7,2.9v24.3c0,8.7-6.5,15.6-14.7,15.6h-1.7c-8.1,0-14.7-6.9-14.7-15.6
			v-24.3C324,461.6,325,460.4,326.7,460.4L326.7,460.4z"/>
		<path class="st3" d="M324,474c10.1,4,20.9,4,30.9,0v-4H324V474z"/>
		<ellipse class="st9" cx="339.4" cy="428.9" rx="44.5" ry="47.5"/>
		<path class="st1" d="M297,411h84.8c0,0-7.3-36.4-39.3-34.1C310.3,379.2,297,411,297,411z"/>
		<ellipse class="st9" cx="294.9" cy="426.9" rx="4.1" ry="8.4"/>
		<ellipse class="st9" cx="339.4" cy="426.9" rx="4.1" ry="8.4"/>
		<path class="st3" d="M297,412.2h84.8c0,0-7.3-36.4-39.3-34.1C310.3,380.3,297,412.2,297,412.2z"/>
		<ellipse class="st9" cx="383.9" cy="426.9" rx="4.1" ry="8.4"/>
	</g>
</g>
</svg>
