<?xml version="1.0" encoding="utf-8"?>
<!-- Generator: Adobe Illustrator 23.1.0, SVG Export Plug-In . SVG Version: 6.00 Build 0)  -->
<svg version="1.1" id="Layer_1" xmlns="http://www.w3.org/2000/svg" xmlns:xlink="http://www.w3.org/1999/xlink" x="0px" y="0px"
	 viewBox="0 0 2000 600" style="enable-background:new 0 0 2000 600;" xml:space="preserve">
<style type="text/css">
	.st0{opacity:0.57;fill:#88D8D2;enable-background:new    ;}
	.st1{fill:#88D8D2;}
	.st2{fill:#FFFFFF;}
	.st3{fill:#E6E6E6;}
</style>
<path id="b82a9922-ead1-40af-af3b-f133b244cde7_1_" class="st0" d="M589.7,195.3l-1.6,0.4l-10-37.6c-3.2-12.1-16.8-18.9-30.3-15.2
	l0,0l-89.6,23.8c-13.5,3.7-21.9,16.3-18.7,28.2l0,0l54.6,206c3.2,12.1,16.8,18.9,30.3,15.2l0,0l89.6-23.8
	c13.5-3.7,21.9-16.3,18.7-28.2l0,0l-37.6-141.8l1.6-0.4L589.7,195.3z"/>
<title>contact us</title>
<path id="b82a9922-ead1-40af-af3b-f133b244cde7" class="st1" d="M584.2,201.3l-1.6,0.4l-10-37.5c-3.2-12.1-16.8-18.9-30.3-15.2l0,0
	l-89.6,23.8c-13.5,3.7-21.9,16.3-18.7,28.2l0,0l54.6,206c3.2,12.1,16.8,18.9,30.3,15.2l0,0l89.6-23.8c13.5-3.7,21.9-16.3,18.7-28.2
	l0,0l-37.6-141.8l1.6-0.4L584.2,201.3z"/>
<path id="b2a7827b-2d2c-407d-93be-35e4c67116bc" class="st2" d="M544.9,154.3l-11.7,3.2c2.8,3.5,1.9,8.6-2.1,11.4
	c-0.9,0.7-1.9,1.2-3.2,1.4l-51.3,13.7c-4.7,1.2-9.6-1.2-10.7-5.4c-0.4-1.1-0.4-2.1-0.2-3.2l-10.9,3c-10.2,2.6-16.3,12.1-14,21l0,0
	L495.5,405c2.5,8.9,12.4,14,22.6,11.4l0,0l90-24c10.2-2.6,16.3-12.1,14-21l0,0l0,0l0,0l-54.6-205.7
	C565.2,156.8,555,151.5,544.9,154.3L544.9,154.3L544.9,154.3L544.9,154.3z"/>
<ellipse id="e6b07811-3d0f-4972-ba4c-46b0c6566e33" transform="matrix(0.9665 -0.2566 0.2566 0.9665 -79.858 155.9922)" class="st3" cx="557.8" cy="384" rx="10.3" ry="9.3"/>
<path class="st3" d="M495.3,312.4c-0.9,0.2-1.6,1.2-1.2,2.3c0.2,0.9,1.2,1.6,2.1,1.2l81.2-21.5c0.9-0.2,1.6-1.2,1.2-2.3
	c-0.4-1.1-1.2-1.6-2.1-1.2L495.3,312.4z"/>
<path class="st3" d="M506.2,353.5c-0.9,0.2-1.6,1.2-1.2,2.3s1.2,1.6,2.1,1.2l81.2-21.5c0.9-0.2,1.6-1.2,1.2-2.3
	c-0.4-1.1-1.2-1.6-2.1-1.2L506.2,353.5z"/>
<path class="st3" d="M498.1,322.9c-0.9,0.2-1.6,1.2-1.2,2.3c0.2,0.9,1.2,1.6,2.1,1.2l34.8-9.3c0.9-0.2,1.6-1.2,1.2-2.3
	c-0.4-1.1-1.2-1.6-2.1-1.2L498.1,322.9z"/>
<path class="st3" d="M500.7,332.9c-0.9,0.2-1.6,1.2-1.2,2.3c0.4,1.1,1.2,1.6,2.1,1.2l81.2-21.5c0.9-0.2,1.6-1.2,1.2-2.3
	s-1.2-1.6-2.1-1.2L500.7,332.9z"/>
<path class="st3" d="M503.5,343.2c-0.9,0.2-1.6,1.2-1.2,2.3c0.4,1.1,1.2,1.6,2.1,1.2l34.8-9.3c0.9-0.2,1.6-1.2,1.2-2.3
	c-0.2-0.9-1.2-1.6-2.1-1.2L503.5,343.2z"/>
<g>
	
		<ellipse transform="matrix(0.9665 -0.2566 0.2566 0.9665 -42.0471 140.4569)" class="st1" cx="517.2" cy="231.3" rx="34" ry="32.7"/>
</g>
<path class="st2" d="M526.6,216.8l-24.7,6.7c-2.3,0.5-3.7,2.8-3.2,4.7L503,244c0.5,2.1,2.8,3.2,5.1,2.6l24.7-6.7
	c2.3-0.5,3.7-2.8,3.2-4.7l-4.2-15.8C531.2,217.4,528.9,216.3,526.6,216.8z M527.2,218.9c0.2,0,0.4,0,0.5,0l-10.3,12.4l-15.2-5.8
	c0.2,0,0.2-0.2,0.4-0.2L527.2,218.9z M532.1,237.8l-24.7,6.7c-1.1,0.2-1.9-0.2-2.1-1.1l-4.2-15.6l15.9,6c0.5,0.2,1.1,0,1.4-0.4
	l10.9-13.1l4,15.4C533.6,236.6,533.1,237.5,532.1,237.8z"/>
</svg>
